M48
;GenerationSoftware,Autodesk,EAGLE,9.6.2*%
;CreationDate,2020-06-25T01:45:23Z*%
FMAT,2
ICI,OFF
METRIC,TZ,000.000
T6C0.350
T5C0.700
T4C0.900
T3C1.000
T2C1.153
T1C1.306
%
G90
M71
T1
X35179Y1397
X35179Y19431
X1905Y19431
X35179Y1397
X35179Y19431
X1905Y19431
T2
X35179Y1397
X35179Y19431
X1905Y19431
T3
X2630Y4666
X2630Y16366
T4
X26151Y13784
X26151Y9484
X26151Y6984
X28651Y13784
X26151Y11684
X28651Y6984
X28651Y9084
X28651Y11684
T5
X32451Y10384
X31651Y3634
X31651Y17134
T6
X22504Y14249
X22225Y16281
X20955Y8204
X20599Y16408
X6985Y7493
X6985Y9525
X7671Y11735
X8915Y9957
X7493Y14478
X21133Y5613
X22657Y9119
X21285Y15697
X21565Y9677
X23114Y15672
X8357Y7417
X11836Y4039
X8331Y8484
X8357Y12624
X14478Y6985
X19431Y6985
X14478Y12954
X19304Y12954
X13208Y4826
X13208Y2794
X15443Y18212
X3683Y1143
X3683Y13335
X6985Y13589
X6477Y4953
X5715Y17399
X20523Y3734
M30