G04 EAGLE Gerber RS-274X export*
G75*
%MOMM*%
%FSLAX34Y34*%
%LPD*%
%INTop Copper*%
%IPPOS*%
%AMOC8*
5,1,8,0,0,1.08239X$1,22.5*%
G01*
%ADD10C,1.676400*%
%ADD11R,1.800000X0.700000*%
%ADD12R,1.350000X1.350000*%
%ADD13C,1.350000*%
%ADD14C,1.500000*%
%ADD15R,1.000000X1.100000*%
%ADD16R,1.250000X0.650000*%
%ADD17R,1.100000X0.450000*%
%ADD18R,0.900000X0.450000*%
%ADD19R,0.450000X0.900000*%
%ADD20R,0.700000X0.900000*%
%ADD21R,0.900000X0.700000*%
%ADD22C,0.304800*%
%ADD23C,0.604000*%
%ADD24C,0.152400*%

G36*
X333748Y3814D02*
X333748Y3814D01*
X333778Y3812D01*
X333949Y3834D01*
X334120Y3851D01*
X334148Y3859D01*
X334177Y3863D01*
X334340Y3918D01*
X334505Y3969D01*
X334531Y3983D01*
X334559Y3992D01*
X334708Y4079D01*
X334859Y4161D01*
X334881Y4179D01*
X334907Y4194D01*
X335036Y4308D01*
X335168Y4418D01*
X335186Y4441D01*
X335209Y4461D01*
X335313Y4598D01*
X335420Y4732D01*
X335434Y4758D01*
X335452Y4782D01*
X335527Y4937D01*
X335606Y5089D01*
X335614Y5118D01*
X335627Y5144D01*
X335670Y5311D01*
X335717Y5476D01*
X335720Y5506D01*
X335727Y5534D01*
X335750Y5865D01*
X335488Y28825D01*
X335471Y28981D01*
X335460Y29137D01*
X335449Y29180D01*
X335444Y29225D01*
X335396Y29375D01*
X335355Y29526D01*
X335335Y29566D01*
X335321Y29609D01*
X335245Y29746D01*
X335175Y29886D01*
X335147Y29921D01*
X335125Y29961D01*
X335024Y30080D01*
X334927Y30203D01*
X334893Y30233D01*
X334864Y30267D01*
X334741Y30364D01*
X334622Y30466D01*
X334583Y30488D01*
X334547Y30516D01*
X334408Y30586D01*
X334271Y30663D01*
X334228Y30677D01*
X334188Y30697D01*
X334037Y30739D01*
X333888Y30787D01*
X333843Y30792D01*
X333800Y30804D01*
X333644Y30815D01*
X333488Y30833D01*
X333443Y30829D01*
X333398Y30832D01*
X333243Y30812D01*
X333087Y30799D01*
X333044Y30787D01*
X332999Y30781D01*
X332850Y30730D01*
X332700Y30687D01*
X332660Y30666D01*
X332618Y30652D01*
X332482Y30573D01*
X332343Y30500D01*
X332308Y30472D01*
X332269Y30450D01*
X332152Y30346D01*
X332030Y30247D01*
X331997Y30209D01*
X331968Y30183D01*
X331915Y30114D01*
X331814Y29996D01*
X331671Y29799D01*
X330553Y28681D01*
X329274Y27752D01*
X327866Y27035D01*
X326363Y26547D01*
X324802Y26299D01*
X318543Y26299D01*
X318543Y36340D01*
X318543Y46381D01*
X324802Y46381D01*
X326363Y46133D01*
X327866Y45645D01*
X329274Y44928D01*
X330553Y43999D01*
X331736Y42815D01*
X331758Y42791D01*
X331875Y42654D01*
X331892Y42641D01*
X331906Y42625D01*
X332050Y42517D01*
X332192Y42405D01*
X332211Y42396D01*
X332228Y42383D01*
X332390Y42305D01*
X332551Y42224D01*
X332572Y42218D01*
X332591Y42209D01*
X332766Y42165D01*
X332939Y42117D01*
X332960Y42115D01*
X332981Y42110D01*
X333161Y42101D01*
X333341Y42089D01*
X333362Y42091D01*
X333383Y42090D01*
X333562Y42117D01*
X333740Y42140D01*
X333760Y42147D01*
X333782Y42150D01*
X333951Y42211D01*
X334121Y42269D01*
X334140Y42280D01*
X334160Y42287D01*
X334314Y42381D01*
X334470Y42471D01*
X334486Y42485D01*
X334504Y42496D01*
X334637Y42619D01*
X334771Y42738D01*
X334784Y42755D01*
X334800Y42769D01*
X334906Y42915D01*
X335015Y43059D01*
X335024Y43078D01*
X335037Y43095D01*
X335111Y43259D01*
X335190Y43421D01*
X335195Y43442D01*
X335204Y43461D01*
X335245Y43637D01*
X335290Y43811D01*
X335291Y43835D01*
X335296Y43853D01*
X335298Y43932D01*
X335313Y44142D01*
X334817Y87565D01*
X334796Y87758D01*
X334774Y87960D01*
X334773Y87962D01*
X334773Y87965D01*
X334713Y88152D01*
X334652Y88344D01*
X334651Y88346D01*
X334650Y88349D01*
X334554Y88522D01*
X334458Y88696D01*
X334456Y88698D01*
X334455Y88701D01*
X334324Y88854D01*
X334197Y89003D01*
X334195Y89005D01*
X334193Y89007D01*
X334037Y89129D01*
X333881Y89253D01*
X333879Y89254D01*
X333877Y89256D01*
X333699Y89345D01*
X333522Y89435D01*
X333520Y89436D01*
X333517Y89437D01*
X333329Y89489D01*
X333134Y89543D01*
X333132Y89543D01*
X333129Y89544D01*
X332935Y89558D01*
X332733Y89572D01*
X332730Y89572D01*
X332727Y89572D01*
X332533Y89547D01*
X332333Y89522D01*
X332331Y89521D01*
X332328Y89521D01*
X332138Y89456D01*
X331952Y89394D01*
X331949Y89392D01*
X331947Y89392D01*
X331776Y89293D01*
X331603Y89193D01*
X331601Y89191D01*
X331598Y89190D01*
X331583Y89176D01*
X331350Y88978D01*
X331053Y88681D01*
X329774Y87752D01*
X328366Y87035D01*
X326863Y86547D01*
X326543Y86496D01*
X326543Y103840D01*
X326543Y121184D01*
X326863Y121133D01*
X328366Y120645D01*
X329774Y119928D01*
X331182Y118905D01*
X331193Y118899D01*
X331284Y118824D01*
X331303Y118814D01*
X331319Y118801D01*
X331480Y118720D01*
X331640Y118635D01*
X331660Y118629D01*
X331679Y118620D01*
X331853Y118572D01*
X332026Y118520D01*
X332047Y118518D01*
X332067Y118513D01*
X332247Y118500D01*
X332426Y118483D01*
X332447Y118486D01*
X332468Y118484D01*
X332647Y118507D01*
X332827Y118527D01*
X332847Y118533D01*
X332868Y118536D01*
X333039Y118594D01*
X333211Y118648D01*
X333229Y118658D01*
X333249Y118665D01*
X333405Y118755D01*
X333563Y118843D01*
X333579Y118856D01*
X333597Y118867D01*
X333732Y118986D01*
X333870Y119103D01*
X333883Y119120D01*
X333899Y119133D01*
X334008Y119277D01*
X334120Y119419D01*
X334130Y119438D01*
X334142Y119454D01*
X334221Y119617D01*
X334303Y119778D01*
X334308Y119798D01*
X334317Y119817D01*
X334362Y119992D01*
X334411Y120166D01*
X334412Y120186D01*
X334417Y120207D01*
X334441Y120538D01*
X333965Y162213D01*
X333943Y162406D01*
X333921Y162608D01*
X333921Y162610D01*
X333920Y162613D01*
X333860Y162801D01*
X333800Y162992D01*
X333799Y162994D01*
X333798Y162996D01*
X333703Y163167D01*
X333605Y163344D01*
X333603Y163346D01*
X333602Y163348D01*
X333474Y163499D01*
X333344Y163651D01*
X333342Y163653D01*
X333341Y163654D01*
X333187Y163775D01*
X333028Y163901D01*
X333026Y163902D01*
X333024Y163903D01*
X332845Y163994D01*
X332669Y164083D01*
X332667Y164083D01*
X332665Y164085D01*
X332472Y164138D01*
X332281Y164191D01*
X332279Y164191D01*
X332277Y164192D01*
X332079Y164205D01*
X331880Y164220D01*
X331878Y164220D01*
X331875Y164220D01*
X331677Y164194D01*
X331480Y164169D01*
X331478Y164169D01*
X331476Y164168D01*
X331286Y164104D01*
X331099Y164041D01*
X331097Y164040D01*
X331094Y164039D01*
X330920Y163938D01*
X330750Y163840D01*
X330748Y163838D01*
X330746Y163837D01*
X330731Y163824D01*
X330622Y163732D01*
X329274Y162752D01*
X327866Y162035D01*
X326363Y161547D01*
X324802Y161299D01*
X318543Y161299D01*
X318543Y171340D01*
X318543Y181381D01*
X324802Y181381D01*
X326363Y181133D01*
X327866Y180645D01*
X329274Y179928D01*
X330529Y179016D01*
X330583Y178984D01*
X330632Y178946D01*
X330757Y178883D01*
X330876Y178813D01*
X330936Y178793D01*
X330992Y178764D01*
X331126Y178727D01*
X331257Y178682D01*
X331320Y178674D01*
X331380Y178657D01*
X331519Y178648D01*
X331656Y178629D01*
X331719Y178634D01*
X331782Y178629D01*
X331920Y178647D01*
X332058Y178656D01*
X332119Y178673D01*
X332181Y178681D01*
X332313Y178725D01*
X332447Y178762D01*
X332503Y178790D01*
X332562Y178810D01*
X332683Y178880D01*
X332807Y178942D01*
X332856Y178980D01*
X332911Y179012D01*
X333015Y179104D01*
X333124Y179189D01*
X333165Y179237D01*
X333212Y179278D01*
X333296Y179389D01*
X333387Y179494D01*
X333417Y179549D01*
X333455Y179599D01*
X333516Y179725D01*
X333584Y179846D01*
X333603Y179905D01*
X333631Y179962D01*
X333665Y180096D01*
X333708Y180229D01*
X333715Y180291D01*
X333731Y180352D01*
X333744Y180546D01*
X333754Y180629D01*
X333752Y180652D01*
X333754Y180683D01*
X333485Y204241D01*
X333484Y204247D01*
X333485Y204254D01*
X333462Y204445D01*
X333440Y204641D01*
X333439Y204647D01*
X333438Y204653D01*
X333378Y204838D01*
X333318Y205025D01*
X333315Y205030D01*
X333313Y205036D01*
X333217Y205207D01*
X333122Y205377D01*
X333118Y205381D01*
X333115Y205387D01*
X332988Y205534D01*
X332861Y205683D01*
X332856Y205687D01*
X332852Y205692D01*
X332699Y205810D01*
X332544Y205932D01*
X332539Y205935D01*
X332534Y205938D01*
X332359Y206025D01*
X332185Y206113D01*
X332179Y206115D01*
X332173Y206118D01*
X331983Y206169D01*
X331797Y206220D01*
X331791Y206221D01*
X331785Y206222D01*
X331454Y206249D01*
X38028Y206249D01*
X38017Y206248D01*
X38006Y206249D01*
X37817Y206228D01*
X37628Y206209D01*
X37617Y206206D01*
X37606Y206205D01*
X37425Y206147D01*
X37243Y206091D01*
X37233Y206086D01*
X37222Y206082D01*
X37056Y205990D01*
X36889Y205899D01*
X36880Y205892D01*
X36870Y205887D01*
X36725Y205763D01*
X36580Y205642D01*
X36572Y205633D01*
X36564Y205626D01*
X36446Y205475D01*
X36327Y205328D01*
X36322Y205318D01*
X36315Y205309D01*
X36229Y205138D01*
X36142Y204971D01*
X36139Y204960D01*
X36133Y204950D01*
X36083Y204766D01*
X36030Y204584D01*
X36029Y204572D01*
X36026Y204562D01*
X35997Y204231D01*
X35812Y175281D01*
X35814Y175253D01*
X35812Y175224D01*
X35833Y175053D01*
X35849Y174880D01*
X35857Y174853D01*
X35861Y174824D01*
X35915Y174661D01*
X35965Y174495D01*
X35978Y174469D01*
X35987Y174442D01*
X36073Y174292D01*
X36154Y174140D01*
X36172Y174117D01*
X36187Y174092D01*
X36300Y173962D01*
X36410Y173829D01*
X36432Y173810D01*
X36451Y173789D01*
X36589Y173683D01*
X36722Y173574D01*
X36747Y173561D01*
X36770Y173543D01*
X37065Y173392D01*
X40294Y172055D01*
X43081Y169268D01*
X44589Y165627D01*
X44589Y161685D01*
X43081Y158044D01*
X40294Y155257D01*
X37174Y153965D01*
X36916Y153858D01*
X36902Y153851D01*
X36887Y153846D01*
X36725Y153756D01*
X36561Y153668D01*
X36549Y153658D01*
X36535Y153651D01*
X36394Y153530D01*
X36251Y153412D01*
X36241Y153400D01*
X36229Y153389D01*
X36114Y153243D01*
X35997Y153099D01*
X35990Y153085D01*
X35980Y153073D01*
X35896Y152906D01*
X35810Y152743D01*
X35806Y152728D01*
X35799Y152713D01*
X35749Y152534D01*
X35697Y152356D01*
X35696Y152341D01*
X35692Y152325D01*
X35662Y151995D01*
X35589Y140574D01*
X35597Y140494D01*
X35594Y140414D01*
X35615Y140294D01*
X35626Y140173D01*
X35649Y140096D01*
X35663Y140018D01*
X35707Y139904D01*
X35742Y139787D01*
X35780Y139717D01*
X35809Y139642D01*
X35874Y139539D01*
X35932Y139432D01*
X35982Y139370D01*
X36025Y139303D01*
X36110Y139215D01*
X36187Y139121D01*
X36249Y139071D01*
X36305Y139013D01*
X36405Y138944D01*
X36499Y138867D01*
X36570Y138829D01*
X36636Y138784D01*
X36748Y138736D01*
X36856Y138679D01*
X36932Y138656D01*
X37005Y138625D01*
X37125Y138599D01*
X37242Y138565D01*
X37321Y138558D01*
X37399Y138541D01*
X37521Y138540D01*
X37643Y138529D01*
X37722Y138538D01*
X37802Y138537D01*
X37922Y138560D01*
X38043Y138574D01*
X38119Y138598D01*
X38197Y138613D01*
X38311Y138659D01*
X38427Y138696D01*
X38496Y138735D01*
X38570Y138765D01*
X38672Y138832D01*
X38778Y138892D01*
X38839Y138944D01*
X38906Y138988D01*
X38992Y139074D01*
X39085Y139153D01*
X39134Y139216D01*
X39191Y139272D01*
X39280Y139401D01*
X39334Y139470D01*
X39351Y139504D01*
X39379Y139545D01*
X39801Y140276D01*
X39825Y140306D01*
X39935Y140441D01*
X39948Y140465D01*
X39964Y140486D01*
X40042Y140643D01*
X40124Y140797D01*
X40132Y140822D01*
X40144Y140846D01*
X40189Y141016D01*
X40239Y141183D01*
X40241Y141209D01*
X40248Y141235D01*
X40275Y141566D01*
X40275Y149288D01*
X41168Y150181D01*
X60432Y150181D01*
X61325Y149288D01*
X61325Y149098D01*
X61327Y149080D01*
X61325Y149062D01*
X61346Y148880D01*
X61365Y148697D01*
X61370Y148680D01*
X61372Y148663D01*
X61429Y148488D01*
X61483Y148312D01*
X61491Y148297D01*
X61497Y148280D01*
X61587Y148120D01*
X61675Y147958D01*
X61686Y147945D01*
X61695Y147929D01*
X61816Y147789D01*
X61932Y147649D01*
X61946Y147638D01*
X61958Y147624D01*
X62103Y147512D01*
X62246Y147397D01*
X62262Y147389D01*
X62276Y147378D01*
X62441Y147296D01*
X62603Y147211D01*
X62620Y147206D01*
X62636Y147198D01*
X62815Y147151D01*
X62990Y147100D01*
X63008Y147098D01*
X63025Y147094D01*
X63356Y147067D01*
X69948Y147067D01*
X69975Y147069D01*
X70001Y147067D01*
X70175Y147089D01*
X70349Y147107D01*
X70374Y147114D01*
X70401Y147118D01*
X70567Y147173D01*
X70734Y147225D01*
X70757Y147238D01*
X70783Y147246D01*
X70934Y147333D01*
X71088Y147417D01*
X71108Y147434D01*
X71131Y147447D01*
X71384Y147662D01*
X72356Y148633D01*
X74026Y149325D01*
X75834Y149325D01*
X77504Y148633D01*
X78783Y147354D01*
X79475Y145684D01*
X79475Y143876D01*
X78783Y142206D01*
X77504Y140927D01*
X75834Y140235D01*
X74026Y140235D01*
X72356Y140927D01*
X71384Y141898D01*
X71364Y141915D01*
X71346Y141936D01*
X71208Y142043D01*
X71073Y142153D01*
X71049Y142166D01*
X71028Y142182D01*
X70871Y142260D01*
X70717Y142342D01*
X70692Y142350D01*
X70668Y142362D01*
X70498Y142407D01*
X70331Y142457D01*
X70305Y142459D01*
X70279Y142466D01*
X69948Y142493D01*
X64037Y142493D01*
X63891Y142479D01*
X63745Y142472D01*
X63691Y142459D01*
X63636Y142453D01*
X63496Y142410D01*
X63354Y142375D01*
X63304Y142351D01*
X63251Y142335D01*
X63122Y142265D01*
X62990Y142203D01*
X62946Y142170D01*
X62897Y142143D01*
X62785Y142050D01*
X62667Y141962D01*
X62630Y141921D01*
X62588Y141886D01*
X62496Y141772D01*
X62398Y141663D01*
X62370Y141615D01*
X62335Y141572D01*
X62268Y141442D01*
X62194Y141316D01*
X62175Y141264D01*
X62150Y141215D01*
X62109Y141074D01*
X62061Y140936D01*
X62054Y140881D01*
X62039Y140828D01*
X62027Y140682D01*
X62007Y140537D01*
X62010Y140482D01*
X62006Y140426D01*
X62023Y140281D01*
X62032Y140135D01*
X62046Y140082D01*
X62053Y140027D01*
X62098Y139887D01*
X62136Y139746D01*
X62142Y139733D01*
X62341Y138991D01*
X62341Y137187D01*
X50800Y137187D01*
X37586Y137187D01*
X37568Y137186D01*
X37550Y137187D01*
X37368Y137166D01*
X37185Y137147D01*
X37168Y137142D01*
X37150Y137140D01*
X36976Y137083D01*
X36800Y137029D01*
X36784Y137021D01*
X36767Y137015D01*
X36607Y136925D01*
X36446Y136838D01*
X36432Y136826D01*
X36417Y136817D01*
X36278Y136697D01*
X36137Y136580D01*
X36126Y136566D01*
X36112Y136554D01*
X36000Y136409D01*
X35885Y136266D01*
X35876Y136250D01*
X35865Y136236D01*
X35783Y136071D01*
X35699Y135909D01*
X35694Y135892D01*
X35686Y135876D01*
X35638Y135698D01*
X35588Y135522D01*
X35586Y135504D01*
X35582Y135487D01*
X35554Y135156D01*
X35556Y135138D01*
X35555Y135121D01*
X35555Y135120D01*
X35576Y134938D01*
X35594Y134755D01*
X35600Y134738D01*
X35602Y134720D01*
X35659Y134546D01*
X35712Y134370D01*
X35721Y134355D01*
X35726Y134338D01*
X35817Y134177D01*
X35904Y134016D01*
X35916Y134003D01*
X35924Y133987D01*
X36045Y133848D01*
X36162Y133707D01*
X36176Y133696D01*
X36188Y133682D01*
X36333Y133570D01*
X36476Y133455D01*
X36492Y133446D01*
X36506Y133436D01*
X36671Y133354D01*
X36833Y133269D01*
X36850Y133264D01*
X36866Y133256D01*
X37044Y133208D01*
X37220Y133158D01*
X37238Y133156D01*
X37255Y133152D01*
X37586Y133125D01*
X50800Y133125D01*
X62341Y133125D01*
X62341Y131321D01*
X62168Y130675D01*
X62060Y130490D01*
X62000Y130356D01*
X61933Y130227D01*
X61917Y130173D01*
X61895Y130123D01*
X61862Y129980D01*
X61821Y129840D01*
X61817Y129784D01*
X61804Y129730D01*
X61800Y129584D01*
X61789Y129438D01*
X61795Y129383D01*
X61793Y129328D01*
X61818Y129184D01*
X61835Y129039D01*
X61853Y128986D01*
X61862Y128931D01*
X61915Y128795D01*
X61960Y128656D01*
X61988Y128607D01*
X62008Y128556D01*
X62086Y128432D01*
X62158Y128305D01*
X62194Y128263D01*
X62224Y128216D01*
X62326Y128111D01*
X62421Y128000D01*
X62465Y127967D01*
X62504Y127927D01*
X62624Y127843D01*
X62739Y127754D01*
X62789Y127729D01*
X62835Y127697D01*
X62969Y127640D01*
X63100Y127574D01*
X63154Y127560D01*
X63204Y127538D01*
X63347Y127508D01*
X63489Y127470D01*
X63552Y127465D01*
X63598Y127455D01*
X63682Y127454D01*
X63819Y127443D01*
X77789Y127443D01*
X77811Y127445D01*
X77833Y127443D01*
X78011Y127465D01*
X78189Y127483D01*
X78211Y127489D01*
X78233Y127492D01*
X78403Y127548D01*
X78574Y127601D01*
X78594Y127611D01*
X78615Y127618D01*
X78771Y127707D01*
X78928Y127793D01*
X78945Y127807D01*
X78965Y127818D01*
X79100Y127936D01*
X79237Y128050D01*
X79251Y128068D01*
X79268Y128082D01*
X79377Y128224D01*
X79490Y128364D01*
X79500Y128384D01*
X79514Y128402D01*
X79665Y128697D01*
X79713Y128812D01*
X80992Y130091D01*
X82662Y130783D01*
X84470Y130783D01*
X86140Y130091D01*
X87419Y128812D01*
X88111Y127142D01*
X88111Y125334D01*
X87419Y123664D01*
X86858Y123102D01*
X86852Y123095D01*
X86845Y123090D01*
X86725Y122941D01*
X86602Y122791D01*
X86598Y122783D01*
X86593Y122776D01*
X86505Y122607D01*
X86414Y122435D01*
X86411Y122426D01*
X86407Y122419D01*
X86354Y122235D01*
X86299Y122049D01*
X86298Y122040D01*
X86296Y122032D01*
X86280Y121841D01*
X86263Y121648D01*
X86264Y121639D01*
X86263Y121630D01*
X86285Y121441D01*
X86306Y121248D01*
X86309Y121239D01*
X86310Y121231D01*
X86369Y121048D01*
X86428Y120864D01*
X86432Y120856D01*
X86435Y120848D01*
X86530Y120679D01*
X86622Y120512D01*
X86628Y120505D01*
X86633Y120497D01*
X86759Y120351D01*
X86883Y120205D01*
X86890Y120199D01*
X86896Y120192D01*
X87050Y120073D01*
X87199Y119955D01*
X87207Y119951D01*
X87214Y119946D01*
X87387Y119859D01*
X87558Y119773D01*
X87566Y119770D01*
X87574Y119766D01*
X87763Y119716D01*
X87946Y119665D01*
X87954Y119664D01*
X87963Y119662D01*
X88294Y119635D01*
X101579Y119635D01*
X101606Y119637D01*
X101632Y119635D01*
X101806Y119657D01*
X101980Y119675D01*
X102005Y119682D01*
X102032Y119686D01*
X102197Y119741D01*
X102365Y119793D01*
X102388Y119806D01*
X102413Y119814D01*
X102565Y119901D01*
X102590Y119915D01*
X112964Y119915D01*
X113857Y119022D01*
X113857Y113150D01*
X113817Y113071D01*
X113731Y112909D01*
X113726Y112892D01*
X113718Y112876D01*
X113668Y112699D01*
X113616Y112523D01*
X113615Y112506D01*
X113610Y112488D01*
X113596Y112305D01*
X113580Y112122D01*
X113582Y112105D01*
X113580Y112087D01*
X113603Y111904D01*
X113623Y111722D01*
X113629Y111705D01*
X113631Y111687D01*
X113689Y111513D01*
X113745Y111338D01*
X113753Y111323D01*
X113759Y111306D01*
X113851Y111146D01*
X113857Y111135D01*
X113857Y105150D01*
X113817Y105071D01*
X113731Y104909D01*
X113726Y104892D01*
X113718Y104876D01*
X113668Y104699D01*
X113616Y104523D01*
X113615Y104506D01*
X113610Y104488D01*
X113596Y104305D01*
X113580Y104122D01*
X113582Y104105D01*
X113580Y104087D01*
X113603Y103904D01*
X113623Y103722D01*
X113629Y103705D01*
X113631Y103687D01*
X113689Y103513D01*
X113745Y103338D01*
X113753Y103323D01*
X113759Y103306D01*
X113851Y103146D01*
X113857Y103135D01*
X113857Y97150D01*
X113817Y97071D01*
X113731Y96909D01*
X113726Y96892D01*
X113718Y96876D01*
X113668Y96699D01*
X113616Y96523D01*
X113615Y96506D01*
X113610Y96488D01*
X113596Y96305D01*
X113580Y96122D01*
X113582Y96105D01*
X113580Y96087D01*
X113603Y95904D01*
X113623Y95722D01*
X113629Y95705D01*
X113631Y95687D01*
X113689Y95513D01*
X113745Y95338D01*
X113753Y95323D01*
X113759Y95306D01*
X113851Y95146D01*
X113857Y95135D01*
X113857Y89258D01*
X112964Y88365D01*
X110645Y88365D01*
X110636Y88364D01*
X110627Y88365D01*
X110433Y88344D01*
X110244Y88325D01*
X110235Y88323D01*
X110226Y88322D01*
X110042Y88264D01*
X109859Y88207D01*
X109851Y88203D01*
X109843Y88200D01*
X109675Y88108D01*
X109505Y88015D01*
X109498Y88010D01*
X109490Y88005D01*
X109344Y87882D01*
X109196Y87758D01*
X109190Y87751D01*
X109183Y87745D01*
X109064Y87594D01*
X108943Y87444D01*
X108939Y87436D01*
X108934Y87429D01*
X108846Y87256D01*
X108758Y87087D01*
X108755Y87078D01*
X108751Y87070D01*
X108699Y86884D01*
X108646Y86700D01*
X108646Y86691D01*
X108643Y86682D01*
X108629Y86489D01*
X108614Y86298D01*
X108615Y86290D01*
X108614Y86281D01*
X108638Y86088D01*
X108660Y85899D01*
X108663Y85890D01*
X108664Y85881D01*
X108726Y85697D01*
X108785Y85516D01*
X108790Y85508D01*
X108793Y85500D01*
X108889Y85333D01*
X108983Y85165D01*
X108989Y85158D01*
X108994Y85151D01*
X109208Y84898D01*
X116333Y77773D01*
X116333Y73754D01*
X116335Y73736D01*
X116333Y73718D01*
X116354Y73536D01*
X116373Y73353D01*
X116378Y73336D01*
X116380Y73319D01*
X116437Y73144D01*
X116491Y72968D01*
X116499Y72953D01*
X116505Y72936D01*
X116595Y72776D01*
X116683Y72614D01*
X116694Y72601D01*
X116703Y72585D01*
X116823Y72446D01*
X116940Y72305D01*
X116954Y72294D01*
X116966Y72280D01*
X117111Y72168D01*
X117254Y72053D01*
X117270Y72045D01*
X117284Y72034D01*
X117449Y71952D01*
X117611Y71867D01*
X117628Y71862D01*
X117644Y71854D01*
X117823Y71807D01*
X117998Y71756D01*
X118016Y71754D01*
X118033Y71750D01*
X118364Y71723D01*
X119178Y71723D01*
X120081Y70819D01*
X120093Y70721D01*
X120111Y70548D01*
X120118Y70522D01*
X120122Y70496D01*
X120177Y70330D01*
X120229Y70163D01*
X120242Y70139D01*
X120250Y70114D01*
X120337Y69962D01*
X120421Y69809D01*
X120438Y69789D01*
X120451Y69765D01*
X120666Y69512D01*
X125223Y64955D01*
X125223Y47763D01*
X125225Y47736D01*
X125223Y47709D01*
X125245Y47535D01*
X125263Y47362D01*
X125270Y47336D01*
X125274Y47310D01*
X125329Y47144D01*
X125381Y46977D01*
X125394Y46953D01*
X125402Y46928D01*
X125489Y46776D01*
X125573Y46623D01*
X125590Y46603D01*
X125603Y46579D01*
X125818Y46326D01*
X127912Y44232D01*
X127933Y44215D01*
X127950Y44194D01*
X128088Y44087D01*
X128224Y43977D01*
X128247Y43964D01*
X128269Y43948D01*
X128425Y43870D01*
X128579Y43788D01*
X128605Y43780D01*
X128629Y43768D01*
X128798Y43723D01*
X128965Y43673D01*
X128992Y43671D01*
X129018Y43664D01*
X129349Y43637D01*
X136641Y43637D01*
X138576Y41702D01*
X138663Y41614D01*
X138671Y41609D01*
X138676Y41602D01*
X138827Y41481D01*
X138975Y41359D01*
X138983Y41355D01*
X138990Y41349D01*
X139160Y41261D01*
X139331Y41171D01*
X139339Y41168D01*
X139347Y41164D01*
X139531Y41111D01*
X139716Y41056D01*
X139726Y41055D01*
X139734Y41052D01*
X139925Y41037D01*
X140117Y41019D01*
X140127Y41020D01*
X140136Y41020D01*
X140325Y41042D01*
X140518Y41063D01*
X140526Y41065D01*
X140535Y41066D01*
X140717Y41126D01*
X140902Y41184D01*
X140910Y41188D01*
X140918Y41191D01*
X141086Y41286D01*
X141254Y41379D01*
X141261Y41385D01*
X141269Y41389D01*
X141414Y41515D01*
X141561Y41639D01*
X141567Y41646D01*
X141574Y41652D01*
X141691Y41803D01*
X141811Y41955D01*
X141815Y41963D01*
X141820Y41970D01*
X141905Y42142D01*
X141993Y42314D01*
X141996Y42323D01*
X142000Y42331D01*
X142050Y42517D01*
X142101Y42702D01*
X142102Y42711D01*
X142104Y42720D01*
X142131Y43051D01*
X142131Y46922D01*
X143024Y47815D01*
X155348Y47815D01*
X155354Y47810D01*
X155524Y47721D01*
X155695Y47631D01*
X155703Y47628D01*
X155711Y47624D01*
X155897Y47571D01*
X156081Y47516D01*
X156090Y47515D01*
X156098Y47513D01*
X156290Y47497D01*
X156482Y47480D01*
X156491Y47481D01*
X156500Y47480D01*
X156690Y47502D01*
X156882Y47523D01*
X156890Y47526D01*
X156899Y47527D01*
X157082Y47586D01*
X157266Y47645D01*
X157274Y47649D01*
X157282Y47652D01*
X157449Y47746D01*
X157618Y47839D01*
X157625Y47845D01*
X157633Y47850D01*
X157778Y47975D01*
X157925Y48100D01*
X157931Y48107D01*
X157938Y48113D01*
X158055Y48264D01*
X158175Y48416D01*
X158179Y48424D01*
X158184Y48431D01*
X158270Y48603D01*
X158357Y48775D01*
X158360Y48783D01*
X158364Y48791D01*
X158414Y48978D01*
X158465Y49163D01*
X158466Y49171D01*
X158468Y49180D01*
X158495Y49511D01*
X158495Y51888D01*
X158493Y51906D01*
X158495Y51924D01*
X158474Y52106D01*
X158455Y52289D01*
X158450Y52306D01*
X158448Y52323D01*
X158391Y52498D01*
X158337Y52674D01*
X158329Y52689D01*
X158323Y52706D01*
X158233Y52866D01*
X158145Y53028D01*
X158134Y53041D01*
X158125Y53057D01*
X158005Y53196D01*
X157888Y53337D01*
X157874Y53348D01*
X157862Y53362D01*
X157717Y53474D01*
X157574Y53589D01*
X157558Y53597D01*
X157544Y53608D01*
X157379Y53690D01*
X157217Y53775D01*
X157200Y53780D01*
X157184Y53788D01*
X157005Y53835D01*
X156830Y53886D01*
X156812Y53888D01*
X156795Y53892D01*
X156464Y53919D01*
X152736Y53919D01*
X152507Y54149D01*
X152443Y54201D01*
X152386Y54260D01*
X152288Y54328D01*
X152195Y54404D01*
X152123Y54443D01*
X152055Y54489D01*
X151945Y54537D01*
X151839Y54593D01*
X151761Y54616D01*
X151685Y54649D01*
X151568Y54673D01*
X151454Y54707D01*
X151371Y54715D01*
X151291Y54732D01*
X151172Y54733D01*
X151053Y54744D01*
X150971Y54735D01*
X150888Y54736D01*
X150771Y54713D01*
X150652Y54700D01*
X150574Y54676D01*
X150493Y54660D01*
X150382Y54615D01*
X150268Y54579D01*
X150196Y54539D01*
X150120Y54508D01*
X150021Y54442D01*
X149916Y54384D01*
X149853Y54331D01*
X149785Y54285D01*
X149700Y54201D01*
X149609Y54124D01*
X149558Y54059D01*
X149500Y54001D01*
X149459Y53942D01*
X148928Y53411D01*
X148349Y53076D01*
X147703Y52903D01*
X145899Y52903D01*
X145899Y59944D01*
X145899Y66985D01*
X147703Y66985D01*
X148349Y66812D01*
X148928Y66477D01*
X149479Y65926D01*
X149546Y65833D01*
X149606Y65777D01*
X149659Y65714D01*
X149753Y65640D01*
X149841Y65559D01*
X149911Y65516D01*
X149975Y65464D01*
X150082Y65410D01*
X150184Y65348D01*
X150261Y65319D01*
X150334Y65282D01*
X150450Y65250D01*
X150561Y65209D01*
X150643Y65196D01*
X150722Y65174D01*
X150841Y65165D01*
X150959Y65147D01*
X151042Y65151D01*
X151124Y65145D01*
X151242Y65160D01*
X151362Y65165D01*
X151441Y65185D01*
X151523Y65195D01*
X151636Y65233D01*
X151752Y65262D01*
X151827Y65297D01*
X151905Y65323D01*
X152008Y65383D01*
X152116Y65434D01*
X152182Y65483D01*
X152254Y65524D01*
X152370Y65623D01*
X152439Y65675D01*
X152466Y65705D01*
X152507Y65739D01*
X152736Y65969D01*
X156464Y65969D01*
X156482Y65971D01*
X156500Y65969D01*
X156682Y65990D01*
X156865Y66009D01*
X156882Y66014D01*
X156899Y66016D01*
X157074Y66073D01*
X157250Y66127D01*
X157265Y66135D01*
X157282Y66141D01*
X157442Y66231D01*
X157604Y66319D01*
X157617Y66330D01*
X157633Y66339D01*
X157772Y66459D01*
X157913Y66576D01*
X157924Y66590D01*
X157938Y66602D01*
X158050Y66747D01*
X158165Y66890D01*
X158173Y66906D01*
X158184Y66920D01*
X158266Y67085D01*
X158351Y67247D01*
X158356Y67264D01*
X158364Y67280D01*
X158411Y67458D01*
X158462Y67634D01*
X158464Y67652D01*
X158468Y67669D01*
X158495Y68000D01*
X158495Y77663D01*
X158487Y77745D01*
X158489Y77827D01*
X158467Y77945D01*
X158455Y78064D01*
X158431Y78142D01*
X158417Y78223D01*
X158372Y78334D01*
X158337Y78449D01*
X158298Y78521D01*
X158268Y78597D01*
X158202Y78698D01*
X158145Y78803D01*
X158093Y78866D01*
X158048Y78935D01*
X157964Y79020D01*
X157888Y79112D01*
X157824Y79163D01*
X157766Y79222D01*
X157667Y79289D01*
X157574Y79364D01*
X157501Y79402D01*
X157433Y79448D01*
X157323Y79495D01*
X157217Y79550D01*
X157138Y79572D01*
X157062Y79604D01*
X156945Y79628D01*
X156830Y79661D01*
X156748Y79668D01*
X156667Y79684D01*
X156548Y79684D01*
X156428Y79694D01*
X156347Y79685D01*
X156265Y79685D01*
X156115Y79657D01*
X156029Y79647D01*
X155990Y79635D01*
X155938Y79625D01*
X155244Y79439D01*
X151441Y79439D01*
X151441Y84230D01*
X151440Y84247D01*
X151441Y84265D01*
X151420Y84448D01*
X151401Y84630D01*
X151396Y84647D01*
X151394Y84665D01*
X151337Y84840D01*
X151283Y85015D01*
X151275Y85031D01*
X151269Y85048D01*
X151179Y85208D01*
X151092Y85369D01*
X151080Y85383D01*
X151071Y85398D01*
X150951Y85538D01*
X150834Y85678D01*
X150834Y85679D01*
X150833Y85679D01*
X150820Y85690D01*
X150808Y85703D01*
X150808Y85704D01*
X150663Y85816D01*
X150520Y85931D01*
X150504Y85940D01*
X150490Y85950D01*
X150325Y86032D01*
X150162Y86117D01*
X150145Y86122D01*
X150129Y86130D01*
X149951Y86178D01*
X149775Y86228D01*
X149758Y86230D01*
X149740Y86234D01*
X149410Y86261D01*
X141369Y86261D01*
X141369Y86412D01*
X141367Y86430D01*
X141369Y86448D01*
X141348Y86630D01*
X141329Y86813D01*
X141324Y86830D01*
X141322Y86847D01*
X141265Y87022D01*
X141211Y87198D01*
X141203Y87213D01*
X141197Y87230D01*
X141107Y87390D01*
X141019Y87552D01*
X141008Y87565D01*
X140999Y87581D01*
X140879Y87720D01*
X140762Y87861D01*
X140748Y87872D01*
X140736Y87886D01*
X140591Y87998D01*
X140448Y88113D01*
X140432Y88121D01*
X140418Y88132D01*
X140254Y88214D01*
X140091Y88299D01*
X140074Y88304D01*
X140058Y88312D01*
X139879Y88359D01*
X139704Y88410D01*
X139686Y88412D01*
X139669Y88416D01*
X139338Y88443D01*
X134383Y88443D01*
X133648Y89178D01*
X133635Y89189D01*
X133623Y89203D01*
X133479Y89316D01*
X133337Y89433D01*
X133321Y89441D01*
X133307Y89452D01*
X133143Y89535D01*
X132981Y89621D01*
X132964Y89626D01*
X132948Y89634D01*
X132771Y89684D01*
X132595Y89736D01*
X132578Y89738D01*
X132560Y89742D01*
X132377Y89756D01*
X132194Y89772D01*
X132177Y89771D01*
X132159Y89772D01*
X131977Y89749D01*
X131794Y89729D01*
X131777Y89724D01*
X131759Y89721D01*
X131586Y89663D01*
X131410Y89608D01*
X131395Y89599D01*
X131378Y89593D01*
X131219Y89502D01*
X131058Y89413D01*
X131044Y89401D01*
X131029Y89392D01*
X130776Y89178D01*
X129964Y88365D01*
X119700Y88365D01*
X118807Y89258D01*
X118807Y95130D01*
X118847Y95209D01*
X118933Y95371D01*
X118938Y95388D01*
X118946Y95404D01*
X118996Y95581D01*
X119048Y95757D01*
X119049Y95774D01*
X119054Y95792D01*
X119068Y95975D01*
X119084Y96158D01*
X119082Y96175D01*
X119084Y96193D01*
X119061Y96376D01*
X119041Y96558D01*
X119035Y96575D01*
X119033Y96593D01*
X118975Y96767D01*
X118919Y96942D01*
X118911Y96957D01*
X118905Y96974D01*
X118813Y97134D01*
X118807Y97145D01*
X118807Y103130D01*
X118847Y103209D01*
X118933Y103371D01*
X118938Y103388D01*
X118946Y103404D01*
X118996Y103581D01*
X119048Y103757D01*
X119049Y103774D01*
X119054Y103792D01*
X119068Y103975D01*
X119084Y104158D01*
X119082Y104175D01*
X119084Y104193D01*
X119061Y104376D01*
X119041Y104558D01*
X119035Y104575D01*
X119033Y104593D01*
X118975Y104766D01*
X118919Y104942D01*
X118911Y104957D01*
X118905Y104974D01*
X118813Y105134D01*
X118807Y105145D01*
X118807Y111130D01*
X118847Y111208D01*
X118933Y111371D01*
X118938Y111388D01*
X118946Y111404D01*
X118996Y111581D01*
X119048Y111757D01*
X119049Y111774D01*
X119054Y111792D01*
X119068Y111975D01*
X119084Y112158D01*
X119082Y112175D01*
X119084Y112193D01*
X119061Y112376D01*
X119041Y112558D01*
X119035Y112575D01*
X119033Y112593D01*
X118975Y112767D01*
X118919Y112942D01*
X118911Y112957D01*
X118905Y112974D01*
X118813Y113134D01*
X118807Y113145D01*
X118807Y119022D01*
X119700Y119915D01*
X120514Y119915D01*
X120532Y119917D01*
X120550Y119915D01*
X120732Y119936D01*
X120915Y119955D01*
X120932Y119960D01*
X120949Y119962D01*
X121124Y120019D01*
X121300Y120073D01*
X121315Y120081D01*
X121332Y120087D01*
X121492Y120177D01*
X121654Y120265D01*
X121667Y120276D01*
X121683Y120285D01*
X121822Y120405D01*
X121963Y120522D01*
X121974Y120536D01*
X121988Y120548D01*
X122100Y120693D01*
X122215Y120836D01*
X122223Y120852D01*
X122234Y120866D01*
X122316Y121031D01*
X122401Y121193D01*
X122406Y121210D01*
X122414Y121226D01*
X122461Y121405D01*
X122512Y121580D01*
X122514Y121598D01*
X122518Y121615D01*
X122545Y121946D01*
X122545Y151179D01*
X130573Y159207D01*
X135518Y159207D01*
X135527Y159208D01*
X135536Y159207D01*
X135729Y159228D01*
X135918Y159247D01*
X135927Y159249D01*
X135936Y159250D01*
X136119Y159308D01*
X136303Y159365D01*
X136311Y159369D01*
X136320Y159372D01*
X136487Y159464D01*
X136657Y159557D01*
X136664Y159562D01*
X136672Y159567D01*
X136819Y159691D01*
X136967Y159814D01*
X136972Y159821D01*
X136979Y159827D01*
X137099Y159979D01*
X137219Y160128D01*
X137223Y160136D01*
X137229Y160143D01*
X137316Y160316D01*
X137405Y160485D01*
X137407Y160494D01*
X137411Y160502D01*
X137463Y160688D01*
X137516Y160872D01*
X137517Y160881D01*
X137519Y160890D01*
X137533Y161083D01*
X137549Y161274D01*
X137548Y161282D01*
X137548Y161291D01*
X137524Y161484D01*
X137502Y161673D01*
X137499Y161682D01*
X137498Y161691D01*
X137437Y161874D01*
X137377Y162056D01*
X137373Y162064D01*
X137370Y162072D01*
X137274Y162239D01*
X137179Y162407D01*
X137173Y162414D01*
X137169Y162421D01*
X136954Y162674D01*
X126341Y173287D01*
X126341Y174931D01*
X126339Y174958D01*
X126341Y174984D01*
X126319Y175158D01*
X126301Y175332D01*
X126294Y175357D01*
X126290Y175384D01*
X126235Y175549D01*
X126183Y175717D01*
X126170Y175740D01*
X126162Y175765D01*
X126075Y175917D01*
X125991Y176071D01*
X125974Y176091D01*
X125961Y176114D01*
X125746Y176367D01*
X124365Y177748D01*
X124365Y188012D01*
X125258Y188905D01*
X133522Y188905D01*
X133751Y188675D01*
X133815Y188623D01*
X133872Y188563D01*
X133971Y188495D01*
X134063Y188420D01*
X134136Y188381D01*
X134204Y188334D01*
X134313Y188287D01*
X134418Y188231D01*
X134498Y188208D01*
X134573Y188175D01*
X134690Y188150D01*
X134804Y188116D01*
X134887Y188109D01*
X134967Y188092D01*
X135087Y188091D01*
X135205Y188080D01*
X135287Y188089D01*
X135370Y188088D01*
X135487Y188111D01*
X135606Y188123D01*
X135684Y188148D01*
X135765Y188164D01*
X135876Y188209D01*
X135989Y188245D01*
X136062Y188285D01*
X136138Y188316D01*
X136237Y188382D01*
X136342Y188440D01*
X136405Y188493D01*
X136473Y188539D01*
X136558Y188623D01*
X136649Y188700D01*
X136700Y188765D01*
X136758Y188823D01*
X136799Y188882D01*
X137330Y189413D01*
X137909Y189748D01*
X138135Y189808D01*
X138263Y189856D01*
X138395Y189897D01*
X138451Y189927D01*
X138511Y189950D01*
X138628Y190023D01*
X138749Y190089D01*
X138798Y190130D01*
X138853Y190164D01*
X138952Y190258D01*
X139058Y190346D01*
X139098Y190396D01*
X139145Y190441D01*
X139224Y190553D01*
X139310Y190660D01*
X139340Y190717D01*
X139377Y190770D01*
X139433Y190896D01*
X139496Y191017D01*
X139513Y191079D01*
X139539Y191138D01*
X139569Y191272D01*
X139607Y191404D01*
X139612Y191468D01*
X139626Y191531D01*
X139629Y191668D01*
X139640Y191806D01*
X139632Y191870D01*
X139634Y191934D01*
X139609Y192069D01*
X139593Y192205D01*
X139573Y192267D01*
X139562Y192330D01*
X139511Y192457D01*
X139468Y192588D01*
X139437Y192644D01*
X139413Y192704D01*
X139338Y192819D01*
X139270Y192939D01*
X139228Y192987D01*
X139193Y193041D01*
X139097Y193140D01*
X139007Y193244D01*
X138956Y193283D01*
X138911Y193329D01*
X138797Y193406D01*
X138689Y193490D01*
X138631Y193519D01*
X138578Y193555D01*
X138452Y193608D01*
X138329Y193670D01*
X138266Y193686D01*
X138207Y193711D01*
X138073Y193738D01*
X137940Y193774D01*
X137866Y193780D01*
X137813Y193791D01*
X137733Y193791D01*
X137609Y193801D01*
X82114Y193801D01*
X82088Y193799D01*
X82061Y193801D01*
X81887Y193779D01*
X81714Y193761D01*
X81688Y193754D01*
X81661Y193750D01*
X81496Y193695D01*
X81329Y193643D01*
X81305Y193630D01*
X81280Y193622D01*
X81128Y193535D01*
X80975Y193451D01*
X80954Y193434D01*
X80931Y193421D01*
X80678Y193206D01*
X62290Y174818D01*
X62273Y174797D01*
X62252Y174780D01*
X62145Y174642D01*
X62035Y174507D01*
X62022Y174483D01*
X62006Y174462D01*
X61928Y174305D01*
X61846Y174151D01*
X61838Y174125D01*
X61826Y174101D01*
X61781Y173932D01*
X61731Y173765D01*
X61729Y173738D01*
X61722Y173713D01*
X61695Y173382D01*
X61695Y173086D01*
X61003Y171416D01*
X59724Y170137D01*
X58054Y169445D01*
X56246Y169445D01*
X54576Y170137D01*
X53297Y171416D01*
X52605Y173086D01*
X52605Y174894D01*
X53297Y176564D01*
X54576Y177843D01*
X56246Y178535D01*
X56542Y178535D01*
X56568Y178537D01*
X56595Y178535D01*
X56769Y178557D01*
X56942Y178575D01*
X56968Y178582D01*
X56995Y178586D01*
X57160Y178641D01*
X57327Y178693D01*
X57351Y178706D01*
X57376Y178714D01*
X57528Y178801D01*
X57681Y178885D01*
X57702Y178902D01*
X57725Y178915D01*
X57978Y179130D01*
X78747Y199899D01*
X185785Y199899D01*
X187735Y197948D01*
X187737Y197945D01*
X187743Y197928D01*
X187833Y197768D01*
X187921Y197606D01*
X187932Y197593D01*
X187941Y197577D01*
X188061Y197438D01*
X188178Y197297D01*
X188192Y197286D01*
X188204Y197272D01*
X188349Y197160D01*
X188492Y197045D01*
X188508Y197037D01*
X188522Y197026D01*
X188687Y196944D01*
X188849Y196859D01*
X188866Y196854D01*
X188882Y196846D01*
X189061Y196799D01*
X189236Y196748D01*
X189254Y196746D01*
X189271Y196742D01*
X189602Y196715D01*
X199872Y196715D01*
X199890Y196717D01*
X199908Y196715D01*
X200090Y196736D01*
X200273Y196755D01*
X200290Y196760D01*
X200307Y196762D01*
X200482Y196819D01*
X200658Y196873D01*
X200673Y196881D01*
X200690Y196887D01*
X200850Y196977D01*
X201012Y197065D01*
X201025Y197076D01*
X201041Y197085D01*
X201180Y197205D01*
X201321Y197322D01*
X201332Y197336D01*
X201346Y197348D01*
X201458Y197493D01*
X201573Y197636D01*
X201581Y197652D01*
X201592Y197666D01*
X201674Y197831D01*
X201759Y197993D01*
X201764Y198010D01*
X201772Y198026D01*
X201819Y198205D01*
X201870Y198380D01*
X201872Y198398D01*
X201876Y198415D01*
X201903Y198746D01*
X201903Y198798D01*
X202796Y199691D01*
X208668Y199691D01*
X208747Y199651D01*
X208909Y199565D01*
X208926Y199560D01*
X208942Y199552D01*
X209119Y199503D01*
X209295Y199450D01*
X209313Y199449D01*
X209330Y199444D01*
X209513Y199430D01*
X209696Y199414D01*
X209714Y199416D01*
X209731Y199414D01*
X209913Y199437D01*
X210096Y199457D01*
X210113Y199463D01*
X210131Y199465D01*
X210305Y199523D01*
X210480Y199579D01*
X210496Y199587D01*
X210513Y199593D01*
X210672Y199685D01*
X210683Y199691D01*
X216668Y199691D01*
X216747Y199651D01*
X216909Y199565D01*
X216926Y199560D01*
X216942Y199552D01*
X217119Y199503D01*
X217295Y199450D01*
X217313Y199449D01*
X217330Y199444D01*
X217513Y199430D01*
X217696Y199414D01*
X217714Y199416D01*
X217731Y199414D01*
X217913Y199437D01*
X218096Y199457D01*
X218113Y199463D01*
X218131Y199465D01*
X218305Y199523D01*
X218480Y199579D01*
X218496Y199587D01*
X218513Y199593D01*
X218672Y199685D01*
X218683Y199691D01*
X224668Y199691D01*
X224747Y199651D01*
X224909Y199565D01*
X224926Y199560D01*
X224942Y199552D01*
X225119Y199503D01*
X225295Y199450D01*
X225313Y199449D01*
X225330Y199444D01*
X225513Y199430D01*
X225696Y199414D01*
X225714Y199416D01*
X225731Y199414D01*
X225913Y199437D01*
X226096Y199457D01*
X226113Y199463D01*
X226131Y199465D01*
X226305Y199523D01*
X226480Y199579D01*
X226496Y199587D01*
X226513Y199593D01*
X226672Y199685D01*
X226683Y199691D01*
X232560Y199691D01*
X233453Y198798D01*
X233453Y198746D01*
X233455Y198728D01*
X233453Y198710D01*
X233474Y198528D01*
X233493Y198345D01*
X233498Y198328D01*
X233500Y198311D01*
X233557Y198136D01*
X233611Y197960D01*
X233619Y197945D01*
X233625Y197928D01*
X233715Y197768D01*
X233803Y197606D01*
X233814Y197593D01*
X233823Y197577D01*
X233943Y197438D01*
X234060Y197297D01*
X234074Y197286D01*
X234086Y197272D01*
X234231Y197160D01*
X234374Y197045D01*
X234390Y197037D01*
X234404Y197026D01*
X234569Y196944D01*
X234731Y196859D01*
X234748Y196854D01*
X234764Y196846D01*
X234943Y196799D01*
X235118Y196748D01*
X235136Y196746D01*
X235153Y196742D01*
X235484Y196715D01*
X254637Y196715D01*
X310897Y140455D01*
X310897Y118879D01*
X305809Y113791D01*
X296818Y113791D01*
X296800Y113789D01*
X296782Y113791D01*
X296600Y113770D01*
X296417Y113751D01*
X296400Y113746D01*
X296383Y113744D01*
X296208Y113687D01*
X296032Y113633D01*
X296017Y113625D01*
X296000Y113619D01*
X295840Y113529D01*
X295678Y113441D01*
X295665Y113430D01*
X295649Y113421D01*
X295510Y113301D01*
X295369Y113184D01*
X295358Y113170D01*
X295344Y113158D01*
X295232Y113013D01*
X295117Y112870D01*
X295109Y112854D01*
X295098Y112840D01*
X295016Y112675D01*
X294931Y112513D01*
X294926Y112496D01*
X294918Y112480D01*
X294871Y112301D01*
X294820Y112126D01*
X294818Y112108D01*
X294814Y112091D01*
X294787Y111760D01*
X294787Y109458D01*
X293894Y108565D01*
X279130Y108565D01*
X278237Y109458D01*
X278237Y124222D01*
X279130Y125115D01*
X293894Y125115D01*
X294787Y124222D01*
X294787Y121920D01*
X294789Y121902D01*
X294787Y121884D01*
X294808Y121702D01*
X294827Y121519D01*
X294832Y121502D01*
X294834Y121485D01*
X294891Y121309D01*
X294945Y121134D01*
X294953Y121119D01*
X294959Y121102D01*
X295049Y120942D01*
X295137Y120780D01*
X295148Y120767D01*
X295157Y120751D01*
X295278Y120611D01*
X295394Y120471D01*
X295408Y120460D01*
X295420Y120446D01*
X295565Y120334D01*
X295708Y120219D01*
X295724Y120211D01*
X295738Y120200D01*
X295903Y120118D01*
X296065Y120033D01*
X296082Y120028D01*
X296098Y120020D01*
X296277Y119973D01*
X296452Y119922D01*
X296470Y119920D01*
X296487Y119916D01*
X296818Y119889D01*
X302442Y119889D01*
X302468Y119891D01*
X302495Y119889D01*
X302669Y119911D01*
X302842Y119929D01*
X302868Y119936D01*
X302895Y119940D01*
X303060Y119995D01*
X303227Y120047D01*
X303251Y120060D01*
X303276Y120068D01*
X303428Y120155D01*
X303581Y120239D01*
X303602Y120256D01*
X303625Y120269D01*
X303878Y120484D01*
X304204Y120810D01*
X304221Y120831D01*
X304242Y120848D01*
X304349Y120986D01*
X304459Y121121D01*
X304472Y121145D01*
X304488Y121166D01*
X304566Y121323D01*
X304648Y121477D01*
X304656Y121503D01*
X304668Y121527D01*
X304713Y121696D01*
X304763Y121863D01*
X304765Y121890D01*
X304772Y121915D01*
X304799Y122246D01*
X304799Y137088D01*
X304797Y137114D01*
X304799Y137141D01*
X304777Y137315D01*
X304759Y137488D01*
X304752Y137514D01*
X304748Y137541D01*
X304693Y137706D01*
X304641Y137873D01*
X304628Y137897D01*
X304620Y137922D01*
X304533Y138074D01*
X304449Y138227D01*
X304432Y138248D01*
X304419Y138271D01*
X304204Y138524D01*
X252706Y190022D01*
X252685Y190039D01*
X252668Y190060D01*
X252530Y190167D01*
X252395Y190277D01*
X252371Y190290D01*
X252350Y190306D01*
X252193Y190384D01*
X252039Y190466D01*
X252013Y190474D01*
X251989Y190486D01*
X251820Y190531D01*
X251653Y190581D01*
X251626Y190583D01*
X251601Y190590D01*
X251270Y190617D01*
X235484Y190617D01*
X235466Y190615D01*
X235448Y190617D01*
X235266Y190596D01*
X235083Y190577D01*
X235066Y190572D01*
X235049Y190570D01*
X234874Y190513D01*
X234698Y190459D01*
X234683Y190451D01*
X234666Y190445D01*
X234506Y190355D01*
X234344Y190267D01*
X234331Y190256D01*
X234315Y190247D01*
X234176Y190127D01*
X234035Y190010D01*
X234024Y189996D01*
X234010Y189984D01*
X233898Y189839D01*
X233783Y189696D01*
X233775Y189680D01*
X233764Y189666D01*
X233682Y189501D01*
X233597Y189339D01*
X233592Y189322D01*
X233584Y189306D01*
X233537Y189127D01*
X233486Y188952D01*
X233484Y188934D01*
X233480Y188917D01*
X233453Y188586D01*
X233453Y188534D01*
X232560Y187641D01*
X226688Y187641D01*
X226609Y187681D01*
X226447Y187767D01*
X226430Y187772D01*
X226414Y187780D01*
X226237Y187830D01*
X226061Y187882D01*
X226044Y187883D01*
X226026Y187888D01*
X225843Y187902D01*
X225660Y187918D01*
X225643Y187916D01*
X225625Y187918D01*
X225442Y187895D01*
X225260Y187875D01*
X225243Y187869D01*
X225225Y187867D01*
X225051Y187809D01*
X224876Y187753D01*
X224861Y187745D01*
X224844Y187739D01*
X224684Y187647D01*
X224673Y187641D01*
X218688Y187641D01*
X218609Y187681D01*
X218447Y187767D01*
X218430Y187772D01*
X218414Y187780D01*
X218237Y187830D01*
X218061Y187882D01*
X218044Y187883D01*
X218026Y187888D01*
X217843Y187902D01*
X217660Y187918D01*
X217643Y187916D01*
X217625Y187918D01*
X217442Y187895D01*
X217260Y187875D01*
X217243Y187869D01*
X217225Y187867D01*
X217051Y187809D01*
X216876Y187753D01*
X216861Y187745D01*
X216844Y187739D01*
X216684Y187647D01*
X216673Y187641D01*
X210688Y187641D01*
X210609Y187681D01*
X210447Y187767D01*
X210430Y187772D01*
X210414Y187780D01*
X210237Y187830D01*
X210061Y187882D01*
X210044Y187883D01*
X210026Y187888D01*
X209843Y187902D01*
X209660Y187918D01*
X209643Y187916D01*
X209625Y187918D01*
X209442Y187895D01*
X209260Y187875D01*
X209243Y187869D01*
X209225Y187867D01*
X209051Y187809D01*
X208876Y187753D01*
X208861Y187745D01*
X208844Y187739D01*
X208684Y187647D01*
X208673Y187641D01*
X202796Y187641D01*
X201903Y188534D01*
X201903Y188586D01*
X201901Y188604D01*
X201903Y188622D01*
X201882Y188804D01*
X201863Y188987D01*
X201858Y189004D01*
X201856Y189021D01*
X201799Y189196D01*
X201745Y189372D01*
X201737Y189387D01*
X201731Y189404D01*
X201641Y189564D01*
X201553Y189726D01*
X201542Y189739D01*
X201533Y189755D01*
X201413Y189894D01*
X201296Y190035D01*
X201282Y190046D01*
X201270Y190060D01*
X201125Y190172D01*
X200982Y190287D01*
X200966Y190295D01*
X200952Y190306D01*
X200787Y190388D01*
X200625Y190473D01*
X200608Y190478D01*
X200592Y190486D01*
X200413Y190533D01*
X200238Y190584D01*
X200220Y190586D01*
X200203Y190590D01*
X199872Y190617D01*
X190353Y190617D01*
X190344Y190616D01*
X190335Y190617D01*
X190143Y190596D01*
X189952Y190577D01*
X189944Y190575D01*
X189935Y190574D01*
X189753Y190516D01*
X189567Y190459D01*
X189559Y190455D01*
X189551Y190452D01*
X189383Y190359D01*
X189213Y190267D01*
X189207Y190262D01*
X189199Y190257D01*
X189051Y190132D01*
X188904Y190010D01*
X188899Y190003D01*
X188892Y189997D01*
X188772Y189845D01*
X188652Y189696D01*
X188648Y189688D01*
X188642Y189681D01*
X188554Y189508D01*
X188466Y189339D01*
X188464Y189330D01*
X188460Y189322D01*
X188408Y189137D01*
X188355Y188952D01*
X188354Y188943D01*
X188352Y188934D01*
X188338Y188742D01*
X188322Y188550D01*
X188323Y188542D01*
X188322Y188533D01*
X188346Y188342D01*
X188369Y188151D01*
X188372Y188142D01*
X188373Y188133D01*
X188434Y187952D01*
X188494Y187768D01*
X188498Y187760D01*
X188501Y187752D01*
X188597Y187584D01*
X188692Y187417D01*
X188697Y187410D01*
X188702Y187403D01*
X188917Y187150D01*
X189325Y186742D01*
X189325Y176478D01*
X188432Y175585D01*
X184920Y175585D01*
X184894Y175583D01*
X184867Y175585D01*
X184693Y175563D01*
X184520Y175545D01*
X184494Y175538D01*
X184467Y175534D01*
X184302Y175479D01*
X184135Y175427D01*
X184111Y175414D01*
X184086Y175406D01*
X183934Y175319D01*
X183781Y175235D01*
X183760Y175218D01*
X183737Y175205D01*
X183484Y174990D01*
X179666Y171172D01*
X179649Y171151D01*
X179628Y171134D01*
X179521Y170996D01*
X179411Y170861D01*
X179398Y170837D01*
X179382Y170816D01*
X179304Y170659D01*
X179222Y170505D01*
X179214Y170479D01*
X179202Y170455D01*
X179157Y170286D01*
X179107Y170119D01*
X179105Y170092D01*
X179098Y170067D01*
X179071Y169736D01*
X179071Y169226D01*
X179073Y169208D01*
X179071Y169190D01*
X179093Y169007D01*
X179111Y168825D01*
X179116Y168808D01*
X179118Y168791D01*
X179175Y168616D01*
X179229Y168440D01*
X179237Y168425D01*
X179243Y168408D01*
X179333Y168248D01*
X179421Y168086D01*
X179432Y168073D01*
X179441Y168057D01*
X179561Y167918D01*
X179678Y167777D01*
X179692Y167766D01*
X179704Y167752D01*
X179849Y167640D01*
X179992Y167525D01*
X180008Y167517D01*
X180022Y167506D01*
X180187Y167424D01*
X180349Y167339D01*
X180366Y167334D01*
X180382Y167326D01*
X180561Y167279D01*
X180736Y167228D01*
X180754Y167226D01*
X180771Y167222D01*
X181102Y167195D01*
X193272Y167195D01*
X194165Y166302D01*
X194165Y161238D01*
X194167Y161220D01*
X194165Y161202D01*
X194186Y161020D01*
X194205Y160837D01*
X194210Y160820D01*
X194212Y160803D01*
X194269Y160628D01*
X194323Y160452D01*
X194331Y160437D01*
X194337Y160420D01*
X194427Y160260D01*
X194515Y160098D01*
X194526Y160085D01*
X194535Y160069D01*
X194655Y159930D01*
X194772Y159789D01*
X194786Y159778D01*
X194798Y159764D01*
X194943Y159652D01*
X195086Y159537D01*
X195102Y159529D01*
X195116Y159518D01*
X195281Y159436D01*
X195443Y159351D01*
X195460Y159346D01*
X195476Y159338D01*
X195655Y159291D01*
X195830Y159240D01*
X195848Y159238D01*
X195865Y159234D01*
X196196Y159207D01*
X200055Y159207D01*
X200068Y159208D01*
X200082Y159207D01*
X200268Y159228D01*
X200456Y159247D01*
X200469Y159251D01*
X200482Y159252D01*
X200660Y159309D01*
X200841Y159365D01*
X200852Y159371D01*
X200865Y159375D01*
X201029Y159467D01*
X201195Y159557D01*
X201205Y159565D01*
X201217Y159572D01*
X201360Y159694D01*
X201504Y159814D01*
X201512Y159825D01*
X201522Y159833D01*
X201638Y159982D01*
X201756Y160128D01*
X201762Y160140D01*
X201771Y160150D01*
X201856Y160320D01*
X201942Y160485D01*
X201945Y160498D01*
X201951Y160510D01*
X202001Y160692D01*
X202053Y160872D01*
X202054Y160886D01*
X202058Y160899D01*
X202071Y161086D01*
X202086Y161274D01*
X202084Y161287D01*
X202085Y161300D01*
X202061Y161488D01*
X202039Y161673D01*
X202035Y161686D01*
X202033Y161699D01*
X201932Y162015D01*
X201449Y163180D01*
X201449Y164988D01*
X202141Y166658D01*
X203024Y167541D01*
X203035Y167555D01*
X203049Y167567D01*
X203163Y167711D01*
X203279Y167853D01*
X203287Y167868D01*
X203298Y167882D01*
X203382Y168047D01*
X203468Y168208D01*
X203473Y168225D01*
X203481Y168241D01*
X203530Y168419D01*
X203582Y168594D01*
X203584Y168612D01*
X203589Y168629D01*
X203602Y168812D01*
X203619Y168995D01*
X203617Y169013D01*
X203618Y169031D01*
X203595Y169213D01*
X203575Y169396D01*
X203570Y169413D01*
X203568Y169430D01*
X203509Y169604D01*
X203454Y169779D01*
X203445Y169795D01*
X203440Y169812D01*
X203348Y169971D01*
X203259Y170132D01*
X203247Y170145D01*
X203239Y170161D01*
X203024Y170414D01*
X201903Y171534D01*
X201903Y181798D01*
X202796Y182691D01*
X208668Y182691D01*
X208747Y182651D01*
X208909Y182565D01*
X208926Y182560D01*
X208942Y182552D01*
X209119Y182502D01*
X209295Y182450D01*
X209312Y182449D01*
X209330Y182444D01*
X209513Y182430D01*
X209696Y182414D01*
X209713Y182416D01*
X209731Y182414D01*
X209914Y182437D01*
X210096Y182457D01*
X210113Y182463D01*
X210131Y182465D01*
X210305Y182523D01*
X210480Y182579D01*
X210495Y182587D01*
X210512Y182593D01*
X210672Y182685D01*
X210683Y182691D01*
X216668Y182691D01*
X216747Y182651D01*
X216909Y182565D01*
X216926Y182560D01*
X216942Y182552D01*
X217119Y182502D01*
X217295Y182450D01*
X217312Y182449D01*
X217330Y182444D01*
X217513Y182430D01*
X217696Y182414D01*
X217713Y182416D01*
X217731Y182414D01*
X217914Y182437D01*
X218096Y182457D01*
X218113Y182463D01*
X218131Y182465D01*
X218305Y182523D01*
X218480Y182579D01*
X218495Y182587D01*
X218512Y182593D01*
X218672Y182685D01*
X218683Y182691D01*
X224668Y182691D01*
X224747Y182651D01*
X224909Y182565D01*
X224926Y182560D01*
X224942Y182552D01*
X225119Y182502D01*
X225295Y182450D01*
X225312Y182449D01*
X225330Y182444D01*
X225513Y182430D01*
X225696Y182414D01*
X225713Y182416D01*
X225731Y182414D01*
X225914Y182437D01*
X226096Y182457D01*
X226113Y182463D01*
X226131Y182465D01*
X226305Y182523D01*
X226480Y182579D01*
X226495Y182587D01*
X226512Y182593D01*
X226672Y182685D01*
X226683Y182691D01*
X232560Y182691D01*
X233453Y181798D01*
X233453Y170984D01*
X233427Y170667D01*
X233427Y161700D01*
X233429Y161673D01*
X233427Y161647D01*
X233449Y161473D01*
X233467Y161299D01*
X233474Y161274D01*
X233478Y161247D01*
X233533Y161081D01*
X233585Y160914D01*
X233598Y160891D01*
X233606Y160865D01*
X233693Y160714D01*
X233777Y160560D01*
X233794Y160540D01*
X233807Y160517D01*
X234022Y160264D01*
X234993Y159292D01*
X235685Y157622D01*
X235685Y155814D01*
X234993Y154144D01*
X233714Y152865D01*
X232044Y152173D01*
X230671Y152173D01*
X230644Y152171D01*
X230617Y152173D01*
X230443Y152151D01*
X230270Y152133D01*
X230244Y152126D01*
X230218Y152122D01*
X230052Y152067D01*
X229885Y152015D01*
X229861Y152002D01*
X229836Y151994D01*
X229684Y151907D01*
X229531Y151823D01*
X229511Y151806D01*
X229487Y151793D01*
X229234Y151578D01*
X227211Y149555D01*
X227203Y149545D01*
X227193Y149536D01*
X227075Y149389D01*
X226956Y149244D01*
X226950Y149232D01*
X226942Y149221D01*
X226855Y149053D01*
X226768Y148888D01*
X226764Y148875D01*
X226758Y148863D01*
X226706Y148682D01*
X226653Y148502D01*
X226652Y148489D01*
X226648Y148476D01*
X226634Y148290D01*
X226616Y148101D01*
X226618Y148088D01*
X226617Y148075D01*
X226639Y147890D01*
X226660Y147701D01*
X226664Y147688D01*
X226666Y147675D01*
X226724Y147498D01*
X226781Y147317D01*
X226788Y147305D01*
X226792Y147293D01*
X226885Y147129D01*
X226976Y146965D01*
X226985Y146955D01*
X226992Y146943D01*
X227116Y146800D01*
X227237Y146658D01*
X227247Y146650D01*
X227256Y146639D01*
X227405Y146525D01*
X227553Y146408D01*
X227561Y146404D01*
X228590Y145376D01*
X228610Y145359D01*
X228628Y145338D01*
X228766Y145231D01*
X228901Y145121D01*
X228925Y145108D01*
X228946Y145092D01*
X229103Y145014D01*
X229257Y144932D01*
X229282Y144924D01*
X229306Y144912D01*
X229476Y144867D01*
X229643Y144817D01*
X229669Y144815D01*
X229695Y144808D01*
X230026Y144781D01*
X232145Y144781D01*
X232172Y144783D01*
X232199Y144781D01*
X232373Y144803D01*
X232546Y144821D01*
X232572Y144828D01*
X232598Y144832D01*
X232764Y144887D01*
X232931Y144939D01*
X232955Y144952D01*
X232980Y144960D01*
X233132Y145047D01*
X233285Y145131D01*
X233305Y145148D01*
X233329Y145161D01*
X233582Y145376D01*
X241115Y152909D01*
X271965Y152909D01*
X279588Y145286D01*
X279605Y145272D01*
X279620Y145255D01*
X279761Y145144D01*
X279900Y145031D01*
X279919Y145020D01*
X279937Y145006D01*
X280097Y144926D01*
X280255Y144842D01*
X280277Y144836D01*
X280297Y144826D01*
X280470Y144778D01*
X280641Y144727D01*
X280664Y144725D01*
X280685Y144719D01*
X280864Y144707D01*
X281042Y144691D01*
X281064Y144693D01*
X281087Y144692D01*
X281264Y144715D01*
X281442Y144734D01*
X281464Y144741D01*
X281486Y144744D01*
X281802Y144845D01*
X284866Y146115D01*
X288158Y146115D01*
X291199Y144855D01*
X293527Y142527D01*
X294787Y139486D01*
X294787Y136194D01*
X293527Y133153D01*
X291199Y130825D01*
X288158Y129565D01*
X284866Y129565D01*
X281825Y130825D01*
X279497Y133153D01*
X278237Y136194D01*
X278237Y139327D01*
X278235Y139354D01*
X278237Y139381D01*
X278215Y139555D01*
X278197Y139728D01*
X278190Y139754D01*
X278186Y139780D01*
X278130Y139946D01*
X278079Y140113D01*
X278066Y140137D01*
X278058Y140162D01*
X277971Y140314D01*
X277887Y140467D01*
X277870Y140487D01*
X277857Y140511D01*
X277642Y140764D01*
X270666Y147740D01*
X270645Y147757D01*
X270628Y147778D01*
X270490Y147885D01*
X270354Y147995D01*
X270331Y148008D01*
X270309Y148024D01*
X270153Y148102D01*
X269999Y148184D01*
X269973Y148192D01*
X269949Y148204D01*
X269780Y148249D01*
X269613Y148299D01*
X269586Y148301D01*
X269560Y148308D01*
X269229Y148335D01*
X267623Y148335D01*
X267614Y148334D01*
X267605Y148335D01*
X267413Y148314D01*
X267222Y148295D01*
X267214Y148293D01*
X267205Y148292D01*
X267022Y148234D01*
X266837Y148177D01*
X266829Y148173D01*
X266821Y148170D01*
X266653Y148077D01*
X266483Y147985D01*
X266476Y147980D01*
X266469Y147975D01*
X266322Y147851D01*
X266174Y147728D01*
X266168Y147721D01*
X266162Y147715D01*
X266043Y147564D01*
X265922Y147414D01*
X265918Y147406D01*
X265912Y147399D01*
X265823Y147225D01*
X265736Y147057D01*
X265734Y147048D01*
X265730Y147040D01*
X265678Y146854D01*
X265625Y146670D01*
X265624Y146661D01*
X265622Y146652D01*
X265608Y146459D01*
X265592Y146268D01*
X265593Y146260D01*
X265592Y146251D01*
X265617Y146058D01*
X265639Y145869D01*
X265642Y145860D01*
X265643Y145851D01*
X265704Y145668D01*
X265764Y145486D01*
X265768Y145478D01*
X265771Y145470D01*
X265866Y145304D01*
X265962Y145135D01*
X265967Y145128D01*
X265972Y145121D01*
X266187Y144868D01*
X268527Y142527D01*
X269787Y139486D01*
X269787Y136194D01*
X268527Y133153D01*
X266199Y130825D01*
X263158Y129565D01*
X259866Y129565D01*
X256825Y130825D01*
X254497Y133153D01*
X253237Y136194D01*
X253237Y139486D01*
X254497Y142527D01*
X256837Y144868D01*
X256843Y144875D01*
X256850Y144880D01*
X256970Y145030D01*
X257093Y145179D01*
X257097Y145187D01*
X257102Y145194D01*
X257191Y145364D01*
X257281Y145535D01*
X257284Y145544D01*
X257288Y145551D01*
X257341Y145736D01*
X257396Y145921D01*
X257397Y145930D01*
X257399Y145938D01*
X257415Y146129D01*
X257432Y146322D01*
X257431Y146331D01*
X257432Y146340D01*
X257410Y146529D01*
X257389Y146722D01*
X257386Y146731D01*
X257385Y146739D01*
X257326Y146921D01*
X257267Y147106D01*
X257263Y147114D01*
X257260Y147122D01*
X257165Y147291D01*
X257073Y147458D01*
X257067Y147465D01*
X257062Y147473D01*
X256936Y147619D01*
X256812Y147765D01*
X256805Y147771D01*
X256799Y147778D01*
X256648Y147895D01*
X256496Y148015D01*
X256488Y148019D01*
X256481Y148024D01*
X256309Y148110D01*
X256137Y148197D01*
X256129Y148200D01*
X256121Y148204D01*
X255935Y148254D01*
X255749Y148305D01*
X255740Y148306D01*
X255732Y148308D01*
X255401Y148335D01*
X243851Y148335D01*
X243824Y148333D01*
X243797Y148335D01*
X243623Y148313D01*
X243450Y148295D01*
X243424Y148288D01*
X243398Y148284D01*
X243232Y148229D01*
X243065Y148177D01*
X243041Y148164D01*
X243016Y148156D01*
X242864Y148069D01*
X242711Y147985D01*
X242691Y147968D01*
X242667Y147955D01*
X242414Y147740D01*
X234881Y140207D01*
X230026Y140207D01*
X229999Y140205D01*
X229973Y140207D01*
X229799Y140185D01*
X229625Y140167D01*
X229600Y140160D01*
X229573Y140156D01*
X229407Y140101D01*
X229240Y140049D01*
X229217Y140036D01*
X229191Y140028D01*
X229040Y139941D01*
X228886Y139857D01*
X228866Y139840D01*
X228843Y139827D01*
X228590Y139612D01*
X227618Y138641D01*
X225948Y137949D01*
X224140Y137949D01*
X222470Y138641D01*
X221192Y139918D01*
X221172Y139935D01*
X221154Y139956D01*
X221016Y140062D01*
X220881Y140173D01*
X220857Y140186D01*
X220836Y140202D01*
X220679Y140280D01*
X220525Y140362D01*
X220500Y140370D01*
X220476Y140382D01*
X220306Y140427D01*
X220139Y140477D01*
X220113Y140479D01*
X220087Y140486D01*
X219756Y140513D01*
X203973Y140513D01*
X198648Y145838D01*
X198641Y145843D01*
X198636Y145850D01*
X198486Y145971D01*
X198337Y146093D01*
X198329Y146097D01*
X198322Y146103D01*
X198152Y146191D01*
X197981Y146281D01*
X197972Y146284D01*
X197965Y146288D01*
X197780Y146341D01*
X197595Y146396D01*
X197586Y146397D01*
X197578Y146400D01*
X197386Y146415D01*
X197194Y146433D01*
X197185Y146432D01*
X197176Y146432D01*
X196987Y146410D01*
X196794Y146389D01*
X196785Y146387D01*
X196777Y146386D01*
X196595Y146326D01*
X196410Y146268D01*
X196402Y146263D01*
X196394Y146261D01*
X196225Y146166D01*
X196058Y146073D01*
X196051Y146067D01*
X196043Y146063D01*
X195914Y145951D01*
X187140Y145951D01*
X187123Y145950D01*
X187105Y145951D01*
X186922Y145930D01*
X186740Y145911D01*
X186723Y145906D01*
X186705Y145904D01*
X186530Y145847D01*
X186355Y145793D01*
X186339Y145785D01*
X186322Y145779D01*
X186162Y145689D01*
X186001Y145602D01*
X185987Y145590D01*
X185972Y145581D01*
X185832Y145461D01*
X185692Y145344D01*
X185691Y145344D01*
X185691Y145343D01*
X185680Y145330D01*
X185667Y145318D01*
X185666Y145318D01*
X185554Y145173D01*
X185439Y145030D01*
X185430Y145014D01*
X185420Y145000D01*
X185338Y144835D01*
X185253Y144672D01*
X185248Y144655D01*
X185240Y144639D01*
X185192Y144461D01*
X185142Y144285D01*
X185140Y144268D01*
X185136Y144250D01*
X185109Y143920D01*
X185109Y139129D01*
X181102Y139129D01*
X181084Y139127D01*
X181066Y139129D01*
X180884Y139108D01*
X180701Y139089D01*
X180684Y139084D01*
X180667Y139082D01*
X180492Y139025D01*
X180316Y138971D01*
X180301Y138963D01*
X180284Y138957D01*
X180124Y138867D01*
X179962Y138779D01*
X179949Y138768D01*
X179933Y138759D01*
X179794Y138639D01*
X179653Y138522D01*
X179642Y138508D01*
X179628Y138496D01*
X179516Y138351D01*
X179401Y138208D01*
X179393Y138192D01*
X179382Y138178D01*
X179300Y138013D01*
X179215Y137851D01*
X179210Y137834D01*
X179202Y137818D01*
X179154Y137638D01*
X179104Y137464D01*
X179102Y137446D01*
X179098Y137429D01*
X179071Y137098D01*
X179071Y127436D01*
X179073Y127418D01*
X179071Y127400D01*
X179092Y127218D01*
X179111Y127035D01*
X179116Y127018D01*
X179118Y127001D01*
X179175Y126826D01*
X179229Y126650D01*
X179237Y126635D01*
X179243Y126618D01*
X179333Y126458D01*
X179421Y126296D01*
X179432Y126283D01*
X179441Y126267D01*
X179561Y126128D01*
X179678Y125987D01*
X179692Y125976D01*
X179704Y125962D01*
X179849Y125850D01*
X179992Y125735D01*
X180008Y125727D01*
X180022Y125716D01*
X180187Y125634D01*
X180349Y125549D01*
X180366Y125544D01*
X180382Y125536D01*
X180561Y125489D01*
X180736Y125438D01*
X180754Y125436D01*
X180771Y125432D01*
X181102Y125405D01*
X183052Y125405D01*
X183281Y125175D01*
X183345Y125123D01*
X183402Y125063D01*
X183501Y124995D01*
X183593Y124920D01*
X183666Y124881D01*
X183734Y124834D01*
X183843Y124787D01*
X183948Y124731D01*
X184028Y124708D01*
X184103Y124675D01*
X184220Y124650D01*
X184334Y124616D01*
X184417Y124609D01*
X184497Y124592D01*
X184617Y124591D01*
X184735Y124580D01*
X184817Y124589D01*
X184900Y124588D01*
X185017Y124611D01*
X185136Y124623D01*
X185214Y124648D01*
X185295Y124664D01*
X185406Y124709D01*
X185519Y124745D01*
X185592Y124785D01*
X185668Y124816D01*
X185767Y124882D01*
X185872Y124940D01*
X185935Y124993D01*
X186003Y125039D01*
X186088Y125123D01*
X186179Y125200D01*
X186230Y125265D01*
X186288Y125323D01*
X186329Y125382D01*
X186860Y125913D01*
X187439Y126248D01*
X188085Y126421D01*
X189889Y126421D01*
X189889Y119380D01*
X189889Y112339D01*
X188085Y112339D01*
X187439Y112512D01*
X186860Y112847D01*
X186309Y113397D01*
X186242Y113491D01*
X186182Y113547D01*
X186129Y113610D01*
X186035Y113684D01*
X185948Y113765D01*
X185877Y113808D01*
X185813Y113860D01*
X185706Y113914D01*
X185605Y113976D01*
X185527Y114005D01*
X185454Y114042D01*
X185339Y114074D01*
X185227Y114115D01*
X185145Y114128D01*
X185066Y114150D01*
X184947Y114159D01*
X184829Y114177D01*
X184747Y114173D01*
X184664Y114179D01*
X184546Y114164D01*
X184427Y114159D01*
X184347Y114139D01*
X184265Y114129D01*
X184152Y114091D01*
X184036Y114062D01*
X183961Y114027D01*
X183883Y114001D01*
X183780Y113941D01*
X183672Y113890D01*
X183606Y113841D01*
X183534Y113800D01*
X183418Y113701D01*
X183349Y113650D01*
X183322Y113619D01*
X183281Y113585D01*
X183052Y113355D01*
X181102Y113355D01*
X181084Y113353D01*
X181066Y113355D01*
X180884Y113334D01*
X180701Y113315D01*
X180684Y113310D01*
X180667Y113308D01*
X180492Y113251D01*
X180316Y113197D01*
X180301Y113189D01*
X180284Y113183D01*
X180124Y113093D01*
X179962Y113005D01*
X179949Y112994D01*
X179933Y112985D01*
X179794Y112865D01*
X179653Y112748D01*
X179642Y112734D01*
X179628Y112722D01*
X179516Y112577D01*
X179401Y112434D01*
X179393Y112418D01*
X179382Y112404D01*
X179300Y112239D01*
X179215Y112077D01*
X179210Y112060D01*
X179202Y112044D01*
X179155Y111865D01*
X179104Y111690D01*
X179102Y111672D01*
X179098Y111655D01*
X179071Y111324D01*
X179071Y109220D01*
X179073Y109202D01*
X179071Y109184D01*
X179092Y109002D01*
X179111Y108819D01*
X179116Y108802D01*
X179118Y108785D01*
X179175Y108610D01*
X179229Y108434D01*
X179237Y108419D01*
X179243Y108402D01*
X179333Y108242D01*
X179421Y108080D01*
X179432Y108067D01*
X179441Y108051D01*
X179561Y107912D01*
X179678Y107771D01*
X179692Y107760D01*
X179704Y107746D01*
X179849Y107634D01*
X179992Y107519D01*
X180008Y107511D01*
X180022Y107500D01*
X180187Y107418D01*
X180349Y107333D01*
X180366Y107328D01*
X180382Y107320D01*
X180561Y107273D01*
X180736Y107222D01*
X180754Y107220D01*
X180771Y107216D01*
X181102Y107189D01*
X181121Y107189D01*
X181130Y107190D01*
X181138Y107189D01*
X181154Y107191D01*
X181174Y107189D01*
X181348Y107211D01*
X181522Y107229D01*
X181547Y107236D01*
X181574Y107240D01*
X181740Y107296D01*
X181907Y107347D01*
X181930Y107360D01*
X181956Y107368D01*
X182107Y107455D01*
X182198Y107505D01*
X194542Y107505D01*
X195435Y106612D01*
X195435Y101092D01*
X195437Y101074D01*
X195435Y101056D01*
X195456Y100874D01*
X195475Y100691D01*
X195480Y100674D01*
X195482Y100657D01*
X195539Y100482D01*
X195593Y100306D01*
X195601Y100291D01*
X195607Y100274D01*
X195697Y100114D01*
X195785Y99952D01*
X195796Y99939D01*
X195805Y99923D01*
X195926Y99783D01*
X196042Y99643D01*
X196056Y99632D01*
X196068Y99618D01*
X196213Y99506D01*
X196356Y99391D01*
X196372Y99383D01*
X196386Y99372D01*
X196551Y99290D01*
X196713Y99205D01*
X196730Y99200D01*
X196746Y99192D01*
X196925Y99145D01*
X197100Y99094D01*
X197118Y99092D01*
X197135Y99088D01*
X197466Y99061D01*
X210664Y99061D01*
X210691Y99063D01*
X210717Y99061D01*
X210891Y99083D01*
X211065Y99101D01*
X211090Y99108D01*
X211117Y99112D01*
X211283Y99167D01*
X211450Y99219D01*
X211473Y99232D01*
X211499Y99240D01*
X211650Y99327D01*
X211804Y99411D01*
X211824Y99428D01*
X211847Y99441D01*
X212100Y99656D01*
X213100Y100655D01*
X213151Y100685D01*
X213301Y100765D01*
X213325Y100785D01*
X213352Y100801D01*
X213605Y101015D01*
X231717Y119127D01*
X252145Y119127D01*
X252168Y119129D01*
X252190Y119127D01*
X252367Y119149D01*
X252546Y119167D01*
X252567Y119173D01*
X252590Y119176D01*
X252759Y119232D01*
X252931Y119285D01*
X252951Y119295D01*
X252972Y119302D01*
X253128Y119391D01*
X253285Y119477D01*
X253302Y119491D01*
X253322Y119502D01*
X253457Y119620D01*
X253594Y119734D01*
X253608Y119752D01*
X253625Y119766D01*
X253734Y119908D01*
X253847Y120048D01*
X253857Y120068D01*
X253870Y120086D01*
X254022Y120381D01*
X254497Y121527D01*
X256825Y123855D01*
X259866Y125115D01*
X263158Y125115D01*
X266199Y123855D01*
X268527Y121527D01*
X269787Y118486D01*
X269787Y115194D01*
X268527Y112153D01*
X266199Y109825D01*
X263158Y108565D01*
X259866Y108565D01*
X256825Y109825D01*
X254497Y112153D01*
X254022Y113299D01*
X254012Y113319D01*
X254005Y113340D01*
X253916Y113497D01*
X253832Y113654D01*
X253818Y113671D01*
X253807Y113691D01*
X253689Y113827D01*
X253575Y113965D01*
X253558Y113979D01*
X253544Y113996D01*
X253402Y114105D01*
X253263Y114218D01*
X253243Y114229D01*
X253225Y114242D01*
X253065Y114322D01*
X252906Y114405D01*
X252885Y114412D01*
X252865Y114422D01*
X252691Y114468D01*
X252520Y114518D01*
X252498Y114520D01*
X252476Y114526D01*
X252145Y114553D01*
X234453Y114553D01*
X234426Y114551D01*
X234399Y114553D01*
X234225Y114531D01*
X234052Y114513D01*
X234026Y114506D01*
X234000Y114502D01*
X233834Y114447D01*
X233667Y114395D01*
X233643Y114382D01*
X233618Y114374D01*
X233466Y114287D01*
X233313Y114203D01*
X233293Y114186D01*
X233269Y114173D01*
X233016Y113958D01*
X220139Y101081D01*
X220124Y101063D01*
X220107Y101049D01*
X219997Y100908D01*
X219883Y100769D01*
X219873Y100749D01*
X219859Y100732D01*
X219779Y100572D01*
X219695Y100413D01*
X219688Y100392D01*
X219678Y100372D01*
X219631Y100199D01*
X219580Y100028D01*
X219578Y100005D01*
X219572Y99984D01*
X219560Y99805D01*
X219544Y99627D01*
X219546Y99604D01*
X219545Y99582D01*
X219568Y99404D01*
X219587Y99226D01*
X219594Y99205D01*
X219597Y99183D01*
X219698Y98867D01*
X220191Y97678D01*
X220191Y96140D01*
X220192Y96131D01*
X220191Y96122D01*
X220211Y95932D01*
X220231Y95739D01*
X220233Y95731D01*
X220234Y95722D01*
X220292Y95538D01*
X220349Y95354D01*
X220353Y95346D01*
X220356Y95338D01*
X220449Y95169D01*
X220541Y95000D01*
X220546Y94993D01*
X220551Y94986D01*
X220675Y94839D01*
X220798Y94691D01*
X220805Y94685D01*
X220811Y94679D01*
X220962Y94559D01*
X221112Y94439D01*
X221120Y94435D01*
X221127Y94429D01*
X221299Y94342D01*
X221469Y94253D01*
X221478Y94251D01*
X221486Y94247D01*
X221671Y94195D01*
X221856Y94142D01*
X221865Y94141D01*
X221874Y94139D01*
X222066Y94125D01*
X222258Y94109D01*
X222266Y94110D01*
X222275Y94109D01*
X222467Y94133D01*
X222657Y94156D01*
X222666Y94159D01*
X222675Y94160D01*
X222857Y94221D01*
X223040Y94281D01*
X223048Y94285D01*
X223056Y94288D01*
X223224Y94384D01*
X223391Y94479D01*
X223398Y94484D01*
X223405Y94489D01*
X223658Y94704D01*
X223994Y95039D01*
X224805Y95375D01*
X225664Y95731D01*
X227037Y95731D01*
X227064Y95733D01*
X227091Y95731D01*
X227265Y95753D01*
X227438Y95771D01*
X227464Y95778D01*
X227490Y95782D01*
X227656Y95837D01*
X227823Y95889D01*
X227847Y95902D01*
X227872Y95910D01*
X228024Y95997D01*
X228177Y96081D01*
X228197Y96098D01*
X228221Y96111D01*
X228474Y96326D01*
X229275Y97127D01*
X252145Y97127D01*
X252168Y97129D01*
X252190Y97127D01*
X252367Y97149D01*
X252546Y97167D01*
X252567Y97173D01*
X252590Y97176D01*
X252759Y97232D01*
X252931Y97285D01*
X252951Y97295D01*
X252972Y97302D01*
X253128Y97391D01*
X253285Y97477D01*
X253302Y97491D01*
X253322Y97502D01*
X253457Y97620D01*
X253594Y97734D01*
X253608Y97752D01*
X253625Y97766D01*
X253734Y97908D01*
X253847Y98048D01*
X253857Y98068D01*
X253870Y98086D01*
X254022Y98381D01*
X254497Y99527D01*
X256825Y101855D01*
X259866Y103115D01*
X263158Y103115D01*
X266199Y101855D01*
X268527Y99527D01*
X269787Y96486D01*
X269787Y93194D01*
X268527Y90153D01*
X266171Y87796D01*
X266165Y87789D01*
X266158Y87784D01*
X266038Y87634D01*
X265915Y87485D01*
X265911Y87477D01*
X265906Y87470D01*
X265817Y87300D01*
X265727Y87129D01*
X265724Y87120D01*
X265720Y87113D01*
X265667Y86928D01*
X265612Y86743D01*
X265611Y86734D01*
X265609Y86726D01*
X265593Y86534D01*
X265576Y86342D01*
X265577Y86333D01*
X265576Y86324D01*
X265598Y86133D01*
X265619Y85942D01*
X265622Y85933D01*
X265623Y85925D01*
X265682Y85742D01*
X265741Y85558D01*
X265745Y85550D01*
X265748Y85542D01*
X265844Y85372D01*
X265935Y85206D01*
X265941Y85199D01*
X265946Y85191D01*
X266072Y85045D01*
X266196Y84899D01*
X266203Y84893D01*
X266209Y84886D01*
X266360Y84769D01*
X266512Y84649D01*
X266520Y84645D01*
X266527Y84640D01*
X266699Y84554D01*
X266871Y84467D01*
X266879Y84464D01*
X266887Y84460D01*
X267073Y84410D01*
X267259Y84359D01*
X267268Y84358D01*
X267276Y84356D01*
X267607Y84329D01*
X275257Y84329D01*
X277192Y82394D01*
X281506Y78080D01*
X281523Y78066D01*
X281538Y78049D01*
X281679Y77938D01*
X281817Y77825D01*
X281837Y77815D01*
X281855Y77801D01*
X282015Y77720D01*
X282173Y77636D01*
X282194Y77630D01*
X282214Y77620D01*
X282387Y77573D01*
X282559Y77522D01*
X282581Y77520D01*
X282603Y77514D01*
X282781Y77501D01*
X282960Y77485D01*
X282982Y77488D01*
X283004Y77486D01*
X283182Y77509D01*
X283360Y77529D01*
X283381Y77535D01*
X283404Y77538D01*
X283719Y77640D01*
X284866Y78115D01*
X288158Y78115D01*
X291199Y76855D01*
X293527Y74527D01*
X294787Y71486D01*
X294787Y68194D01*
X293527Y65153D01*
X291199Y62825D01*
X288158Y61565D01*
X284866Y61565D01*
X281825Y62825D01*
X279497Y65153D01*
X278237Y68194D01*
X278237Y71486D01*
X278712Y72633D01*
X278719Y72654D01*
X278729Y72674D01*
X278777Y72846D01*
X278829Y73018D01*
X278831Y73040D01*
X278837Y73062D01*
X278850Y73241D01*
X278867Y73419D01*
X278865Y73441D01*
X278866Y73463D01*
X278844Y73641D01*
X278825Y73819D01*
X278819Y73841D01*
X278816Y73863D01*
X278759Y74033D01*
X278705Y74204D01*
X278695Y74223D01*
X278688Y74244D01*
X278598Y74399D01*
X278512Y74557D01*
X278498Y74574D01*
X278487Y74593D01*
X278272Y74846D01*
X273958Y79160D01*
X273937Y79177D01*
X273920Y79198D01*
X273782Y79304D01*
X273646Y79415D01*
X273622Y79428D01*
X273601Y79444D01*
X273445Y79522D01*
X273291Y79604D01*
X273265Y79612D01*
X273241Y79624D01*
X273072Y79669D01*
X272905Y79719D01*
X272878Y79721D01*
X272852Y79728D01*
X272521Y79755D01*
X269640Y79755D01*
X269631Y79754D01*
X269622Y79755D01*
X269431Y79735D01*
X269239Y79715D01*
X269230Y79713D01*
X269222Y79712D01*
X269038Y79654D01*
X268854Y79597D01*
X268846Y79593D01*
X268838Y79590D01*
X268669Y79497D01*
X268500Y79405D01*
X268493Y79400D01*
X268485Y79395D01*
X268338Y79270D01*
X268191Y79148D01*
X268185Y79141D01*
X268178Y79135D01*
X268059Y78984D01*
X267939Y78834D01*
X267934Y78826D01*
X267929Y78819D01*
X267841Y78646D01*
X267753Y78477D01*
X267751Y78468D01*
X267746Y78460D01*
X267695Y78274D01*
X267642Y78090D01*
X267641Y78081D01*
X267638Y78072D01*
X267624Y77880D01*
X267609Y77688D01*
X267610Y77680D01*
X267609Y77671D01*
X267633Y77479D01*
X267656Y77289D01*
X267658Y77280D01*
X267660Y77271D01*
X267721Y77089D01*
X267780Y76906D01*
X267785Y76898D01*
X267788Y76890D01*
X267884Y76722D01*
X267978Y76555D01*
X267984Y76548D01*
X267989Y76541D01*
X268203Y76288D01*
X268599Y75892D01*
X269458Y74709D01*
X270122Y73407D01*
X270550Y72089D01*
X261730Y72089D01*
X261712Y72087D01*
X261695Y72089D01*
X261531Y72070D01*
X261294Y72089D01*
X252474Y72089D01*
X252902Y73407D01*
X253566Y74709D01*
X254425Y75892D01*
X254821Y76288D01*
X254826Y76295D01*
X254833Y76300D01*
X254953Y76449D01*
X255076Y76599D01*
X255080Y76607D01*
X255085Y76614D01*
X255174Y76784D01*
X255264Y76955D01*
X255267Y76964D01*
X255271Y76971D01*
X255323Y77154D01*
X255379Y77341D01*
X255380Y77350D01*
X255382Y77358D01*
X255398Y77549D01*
X255416Y77742D01*
X255415Y77751D01*
X255415Y77760D01*
X255393Y77949D01*
X255372Y78142D01*
X255369Y78151D01*
X255368Y78159D01*
X255309Y78343D01*
X255251Y78526D01*
X255246Y78534D01*
X255244Y78542D01*
X255149Y78710D01*
X255056Y78878D01*
X255050Y78885D01*
X255046Y78893D01*
X254920Y79038D01*
X254795Y79185D01*
X254788Y79191D01*
X254782Y79198D01*
X254631Y79315D01*
X254479Y79435D01*
X254471Y79439D01*
X254464Y79444D01*
X254292Y79530D01*
X254120Y79617D01*
X254112Y79620D01*
X254104Y79624D01*
X253916Y79674D01*
X253733Y79725D01*
X253724Y79726D01*
X253715Y79728D01*
X253384Y79755D01*
X214532Y79755D01*
X214505Y79753D01*
X214479Y79755D01*
X214305Y79733D01*
X214131Y79715D01*
X214106Y79708D01*
X214079Y79704D01*
X213913Y79649D01*
X213746Y79597D01*
X213723Y79584D01*
X213697Y79576D01*
X213546Y79489D01*
X213392Y79405D01*
X213372Y79388D01*
X213349Y79375D01*
X213096Y79160D01*
X212124Y78189D01*
X210454Y77497D01*
X208646Y77497D01*
X206976Y78189D01*
X205697Y79468D01*
X205005Y81138D01*
X205005Y82511D01*
X205003Y82538D01*
X205005Y82565D01*
X204983Y82739D01*
X204965Y82912D01*
X204958Y82937D01*
X204954Y82964D01*
X204899Y83130D01*
X204847Y83297D01*
X204834Y83321D01*
X204826Y83346D01*
X204739Y83498D01*
X204655Y83651D01*
X204638Y83671D01*
X204625Y83695D01*
X204410Y83948D01*
X200510Y87848D01*
X200489Y87865D01*
X200472Y87886D01*
X200334Y87993D01*
X200198Y88103D01*
X200175Y88116D01*
X200153Y88132D01*
X199997Y88210D01*
X199843Y88292D01*
X199817Y88300D01*
X199793Y88312D01*
X199624Y88357D01*
X199457Y88407D01*
X199430Y88409D01*
X199404Y88416D01*
X199073Y88443D01*
X198482Y88443D01*
X198464Y88441D01*
X198446Y88443D01*
X198264Y88422D01*
X198081Y88403D01*
X198064Y88398D01*
X198047Y88396D01*
X197872Y88339D01*
X197696Y88285D01*
X197681Y88277D01*
X197664Y88271D01*
X197504Y88181D01*
X197342Y88093D01*
X197329Y88082D01*
X197313Y88073D01*
X197174Y87953D01*
X197033Y87836D01*
X197022Y87822D01*
X197008Y87810D01*
X196896Y87665D01*
X196781Y87522D01*
X196773Y87506D01*
X196762Y87492D01*
X196680Y87327D01*
X196595Y87165D01*
X196590Y87148D01*
X196582Y87132D01*
X196535Y86953D01*
X196484Y86778D01*
X196482Y86760D01*
X196478Y86743D01*
X196451Y86412D01*
X196451Y86261D01*
X188410Y86261D01*
X188393Y86260D01*
X188375Y86261D01*
X188192Y86240D01*
X188010Y86221D01*
X187993Y86216D01*
X187975Y86214D01*
X187800Y86157D01*
X187625Y86103D01*
X187609Y86095D01*
X187592Y86089D01*
X187432Y85999D01*
X187271Y85912D01*
X187257Y85900D01*
X187242Y85891D01*
X187102Y85771D01*
X186962Y85654D01*
X186961Y85654D01*
X186961Y85653D01*
X186950Y85640D01*
X186937Y85628D01*
X186936Y85628D01*
X186824Y85483D01*
X186709Y85340D01*
X186700Y85324D01*
X186690Y85310D01*
X186607Y85144D01*
X186523Y84982D01*
X186518Y84965D01*
X186510Y84949D01*
X186462Y84771D01*
X186412Y84595D01*
X186410Y84578D01*
X186406Y84560D01*
X186379Y84230D01*
X186379Y79439D01*
X182575Y79439D01*
X181801Y79647D01*
X181751Y79669D01*
X181608Y79702D01*
X181468Y79743D01*
X181413Y79747D01*
X181359Y79760D01*
X181212Y79764D01*
X181066Y79776D01*
X181011Y79769D01*
X180956Y79771D01*
X180812Y79746D01*
X180667Y79729D01*
X180614Y79711D01*
X180560Y79702D01*
X180423Y79649D01*
X180284Y79604D01*
X180236Y79577D01*
X180184Y79557D01*
X180061Y79478D01*
X179933Y79406D01*
X179891Y79370D01*
X179845Y79340D01*
X179739Y79238D01*
X179628Y79143D01*
X179595Y79099D01*
X179555Y79061D01*
X179471Y78940D01*
X179382Y78825D01*
X179357Y78775D01*
X179326Y78730D01*
X179268Y78595D01*
X179202Y78464D01*
X179188Y78411D01*
X179166Y78360D01*
X179136Y78217D01*
X179098Y78075D01*
X179093Y78013D01*
X179083Y77966D01*
X179082Y77882D01*
X179071Y77745D01*
X179071Y68000D01*
X179073Y67982D01*
X179071Y67964D01*
X179092Y67782D01*
X179111Y67599D01*
X179116Y67582D01*
X179118Y67565D01*
X179175Y67390D01*
X179229Y67214D01*
X179237Y67199D01*
X179243Y67182D01*
X179333Y67022D01*
X179421Y66860D01*
X179432Y66847D01*
X179441Y66831D01*
X179561Y66692D01*
X179678Y66551D01*
X179692Y66540D01*
X179704Y66526D01*
X179849Y66414D01*
X179992Y66299D01*
X180008Y66291D01*
X180022Y66280D01*
X180187Y66198D01*
X180349Y66113D01*
X180366Y66108D01*
X180382Y66100D01*
X180561Y66053D01*
X180736Y66002D01*
X180754Y66000D01*
X180771Y65996D01*
X181102Y65969D01*
X183814Y65969D01*
X184043Y65739D01*
X184107Y65687D01*
X184164Y65627D01*
X184263Y65559D01*
X184355Y65484D01*
X184428Y65445D01*
X184496Y65398D01*
X184605Y65351D01*
X184710Y65295D01*
X184790Y65272D01*
X184865Y65239D01*
X184982Y65214D01*
X185096Y65180D01*
X185179Y65173D01*
X185259Y65156D01*
X185379Y65155D01*
X185497Y65144D01*
X185579Y65153D01*
X185662Y65152D01*
X185779Y65175D01*
X185898Y65187D01*
X185976Y65212D01*
X186057Y65228D01*
X186168Y65273D01*
X186281Y65309D01*
X186354Y65349D01*
X186430Y65380D01*
X186529Y65446D01*
X186634Y65504D01*
X186697Y65557D01*
X186765Y65603D01*
X186850Y65687D01*
X186941Y65764D01*
X186992Y65829D01*
X187050Y65887D01*
X187091Y65946D01*
X187622Y66477D01*
X188201Y66812D01*
X188847Y66985D01*
X190651Y66985D01*
X190651Y59944D01*
X190651Y52903D01*
X188753Y52903D01*
X188737Y52905D01*
X188610Y52926D01*
X188537Y52923D01*
X188464Y52930D01*
X188336Y52916D01*
X188208Y52911D01*
X188137Y52894D01*
X188064Y52886D01*
X187942Y52847D01*
X187816Y52818D01*
X187750Y52787D01*
X187680Y52765D01*
X187568Y52702D01*
X187451Y52649D01*
X187392Y52605D01*
X187328Y52570D01*
X187230Y52487D01*
X187126Y52411D01*
X187077Y52357D01*
X187021Y52309D01*
X186941Y52209D01*
X186854Y52114D01*
X186816Y52051D01*
X186771Y51993D01*
X186713Y51879D01*
X186647Y51769D01*
X186622Y51700D01*
X186589Y51634D01*
X186554Y51511D01*
X186511Y51390D01*
X186500Y51317D01*
X186481Y51247D01*
X186471Y51119D01*
X186453Y50991D01*
X186457Y50918D01*
X186451Y50845D01*
X186467Y50718D01*
X186474Y50589D01*
X186492Y50518D01*
X186502Y50446D01*
X186542Y50324D01*
X186575Y50200D01*
X186607Y50133D01*
X186630Y50064D01*
X186694Y49953D01*
X186750Y49837D01*
X186794Y49779D01*
X186831Y49715D01*
X186941Y49586D01*
X186993Y49516D01*
X187018Y49494D01*
X187046Y49462D01*
X188098Y48410D01*
X188119Y48393D01*
X188136Y48372D01*
X188274Y48266D01*
X188409Y48155D01*
X188433Y48142D01*
X188454Y48126D01*
X188610Y48048D01*
X188765Y47966D01*
X188791Y47958D01*
X188815Y47946D01*
X188984Y47901D01*
X189151Y47851D01*
X189178Y47849D01*
X189203Y47842D01*
X189534Y47815D01*
X194288Y47815D01*
X195181Y46922D01*
X195181Y46601D01*
X195182Y46592D01*
X195181Y46583D01*
X195202Y46386D01*
X195221Y46200D01*
X195223Y46191D01*
X195224Y46182D01*
X195283Y45998D01*
X195339Y45815D01*
X195343Y45807D01*
X195346Y45799D01*
X195438Y45631D01*
X195531Y45461D01*
X195536Y45454D01*
X195541Y45446D01*
X195664Y45300D01*
X195788Y45152D01*
X195795Y45146D01*
X195801Y45139D01*
X195952Y45020D01*
X196102Y44899D01*
X196110Y44895D01*
X196117Y44890D01*
X196290Y44802D01*
X196459Y44714D01*
X196468Y44711D01*
X196476Y44707D01*
X196662Y44655D01*
X196846Y44602D01*
X196855Y44602D01*
X196864Y44599D01*
X197057Y44585D01*
X197248Y44570D01*
X197256Y44571D01*
X197265Y44570D01*
X197458Y44594D01*
X197647Y44616D01*
X197656Y44619D01*
X197665Y44620D01*
X197848Y44682D01*
X198030Y44741D01*
X198038Y44746D01*
X198046Y44749D01*
X198213Y44845D01*
X198381Y44939D01*
X198388Y44945D01*
X198395Y44950D01*
X198648Y45164D01*
X206389Y52905D01*
X206403Y52922D01*
X206420Y52937D01*
X206531Y53078D01*
X206644Y53217D01*
X206655Y53236D01*
X206668Y53254D01*
X206749Y53414D01*
X206833Y53572D01*
X206839Y53594D01*
X206849Y53614D01*
X206897Y53787D01*
X206948Y53958D01*
X206950Y53980D01*
X206955Y54002D01*
X206968Y54180D01*
X206984Y54359D01*
X206982Y54381D01*
X206983Y54404D01*
X206960Y54580D01*
X206941Y54759D01*
X206934Y54781D01*
X206931Y54803D01*
X206829Y55119D01*
X206783Y55230D01*
X206783Y57038D01*
X207475Y58708D01*
X208754Y59987D01*
X210424Y60679D01*
X212232Y60679D01*
X213902Y59987D01*
X215181Y58708D01*
X215873Y57038D01*
X215873Y55230D01*
X215181Y53560D01*
X213902Y52281D01*
X212187Y51571D01*
X212155Y51567D01*
X211982Y51549D01*
X211956Y51542D01*
X211930Y51538D01*
X211764Y51483D01*
X211597Y51431D01*
X211573Y51418D01*
X211548Y51410D01*
X211397Y51323D01*
X211243Y51239D01*
X211223Y51222D01*
X211199Y51209D01*
X210946Y50994D01*
X205244Y45292D01*
X205236Y45282D01*
X205225Y45273D01*
X205108Y45126D01*
X204989Y44981D01*
X204983Y44969D01*
X204974Y44958D01*
X204888Y44789D01*
X204800Y44625D01*
X204797Y44612D01*
X204790Y44600D01*
X204739Y44420D01*
X204686Y44239D01*
X204684Y44226D01*
X204681Y44213D01*
X204666Y44027D01*
X204649Y43838D01*
X204651Y43825D01*
X204650Y43811D01*
X204672Y43627D01*
X204693Y43438D01*
X204697Y43425D01*
X204698Y43412D01*
X204757Y43234D01*
X204814Y43054D01*
X204821Y43042D01*
X204825Y43030D01*
X204918Y42866D01*
X205009Y42702D01*
X205018Y42691D01*
X205024Y42680D01*
X205148Y42538D01*
X205269Y42395D01*
X205280Y42386D01*
X205289Y42376D01*
X205438Y42262D01*
X205585Y42145D01*
X205597Y42139D01*
X205608Y42131D01*
X205903Y41979D01*
X207806Y41191D01*
X209085Y39912D01*
X209777Y38242D01*
X209777Y36434D01*
X209085Y34764D01*
X207806Y33485D01*
X206136Y32793D01*
X204763Y32793D01*
X204736Y32791D01*
X204709Y32793D01*
X204535Y32771D01*
X204362Y32753D01*
X204336Y32746D01*
X204310Y32742D01*
X204144Y32687D01*
X203977Y32635D01*
X203953Y32622D01*
X203928Y32614D01*
X203776Y32527D01*
X203623Y32443D01*
X203603Y32426D01*
X203579Y32413D01*
X203326Y32198D01*
X199881Y28753D01*
X197212Y28753D01*
X197194Y28751D01*
X197176Y28753D01*
X196994Y28732D01*
X196811Y28713D01*
X196794Y28708D01*
X196777Y28706D01*
X196602Y28649D01*
X196426Y28595D01*
X196411Y28587D01*
X196394Y28581D01*
X196234Y28491D01*
X196072Y28403D01*
X196059Y28392D01*
X196043Y28383D01*
X195904Y28263D01*
X195763Y28146D01*
X195752Y28132D01*
X195738Y28120D01*
X195626Y27975D01*
X195511Y27832D01*
X195503Y27816D01*
X195492Y27802D01*
X195409Y27636D01*
X195325Y27475D01*
X195320Y27458D01*
X195312Y27442D01*
X195265Y27263D01*
X195214Y27088D01*
X195212Y27070D01*
X195208Y27053D01*
X195181Y26722D01*
X195181Y21658D01*
X194288Y20765D01*
X182024Y20765D01*
X181893Y20896D01*
X181873Y20913D01*
X181855Y20934D01*
X181718Y21040D01*
X181582Y21151D01*
X181558Y21164D01*
X181537Y21180D01*
X181381Y21258D01*
X181226Y21340D01*
X181201Y21348D01*
X181177Y21360D01*
X181008Y21405D01*
X180840Y21455D01*
X180814Y21457D01*
X180788Y21464D01*
X180457Y21491D01*
X166370Y21491D01*
X166352Y21489D01*
X166334Y21491D01*
X166152Y21470D01*
X165969Y21451D01*
X165952Y21446D01*
X165935Y21444D01*
X165760Y21387D01*
X165584Y21333D01*
X165569Y21325D01*
X165552Y21319D01*
X165392Y21229D01*
X165230Y21141D01*
X165217Y21130D01*
X165201Y21121D01*
X165062Y21001D01*
X164921Y20884D01*
X164910Y20870D01*
X164896Y20858D01*
X164784Y20713D01*
X164669Y20570D01*
X164661Y20554D01*
X164650Y20540D01*
X164568Y20375D01*
X164483Y20213D01*
X164478Y20196D01*
X164470Y20180D01*
X164423Y20001D01*
X164372Y19826D01*
X164370Y19808D01*
X164366Y19791D01*
X164339Y19460D01*
X164339Y14739D01*
X162553Y12953D01*
X133489Y12953D01*
X133438Y12948D01*
X133370Y12950D01*
X132152Y12879D01*
X131289Y13741D01*
X131250Y13773D01*
X131203Y13823D01*
X119126Y24565D01*
X119004Y24654D01*
X118886Y24748D01*
X118841Y24772D01*
X118800Y24801D01*
X118663Y24864D01*
X118529Y24934D01*
X118480Y24948D01*
X118434Y24969D01*
X118287Y25003D01*
X118142Y25045D01*
X118091Y25049D01*
X118042Y25061D01*
X117891Y25066D01*
X117740Y25078D01*
X117690Y25072D01*
X117640Y25074D01*
X117491Y25049D01*
X117341Y25031D01*
X117293Y25015D01*
X117243Y25007D01*
X117101Y24953D01*
X116958Y24906D01*
X116914Y24881D01*
X116866Y24863D01*
X116739Y24783D01*
X116607Y24708D01*
X116569Y24675D01*
X116526Y24648D01*
X116417Y24544D01*
X116302Y24445D01*
X116271Y24405D01*
X116235Y24370D01*
X116148Y24246D01*
X116056Y24127D01*
X116033Y24082D01*
X116004Y24040D01*
X115944Y23902D01*
X115876Y23767D01*
X115863Y23718D01*
X115843Y23671D01*
X115811Y23524D01*
X115772Y23378D01*
X115767Y23321D01*
X115758Y23278D01*
X115757Y23192D01*
X115745Y23047D01*
X115745Y22434D01*
X115515Y22205D01*
X115463Y22141D01*
X115404Y22084D01*
X115336Y21986D01*
X115260Y21893D01*
X115221Y21821D01*
X115175Y21753D01*
X115127Y21643D01*
X115071Y21537D01*
X115048Y21459D01*
X115015Y21383D01*
X114991Y21266D01*
X114957Y21152D01*
X114949Y21069D01*
X114932Y20989D01*
X114931Y20870D01*
X114920Y20751D01*
X114929Y20669D01*
X114928Y20586D01*
X114951Y20469D01*
X114964Y20350D01*
X114988Y20272D01*
X115004Y20191D01*
X115049Y20080D01*
X115085Y19966D01*
X115125Y19894D01*
X115156Y19818D01*
X115222Y19719D01*
X115280Y19614D01*
X115333Y19551D01*
X115379Y19483D01*
X115463Y19398D01*
X115540Y19307D01*
X115605Y19256D01*
X115663Y19198D01*
X115722Y19157D01*
X116253Y18626D01*
X116588Y18047D01*
X116761Y17401D01*
X116761Y14065D01*
X109688Y14065D01*
X109670Y14063D01*
X109653Y14065D01*
X109470Y14044D01*
X109288Y14025D01*
X109271Y14020D01*
X109253Y14018D01*
X109078Y13961D01*
X108903Y13907D01*
X108887Y13899D01*
X108870Y13893D01*
X108710Y13803D01*
X108549Y13715D01*
X108535Y13704D01*
X108519Y13695D01*
X108380Y13575D01*
X108239Y13458D01*
X108228Y13444D01*
X108215Y13432D01*
X108102Y13287D01*
X107987Y13144D01*
X107979Y13128D01*
X107968Y13114D01*
X107886Y12949D01*
X107802Y12787D01*
X107797Y12770D01*
X107789Y12754D01*
X107741Y12575D01*
X107690Y12400D01*
X107689Y12382D01*
X107684Y12365D01*
X107657Y12034D01*
X107657Y11098D01*
X107659Y11080D01*
X107657Y11062D01*
X107679Y10880D01*
X107697Y10697D01*
X107702Y10680D01*
X107704Y10663D01*
X107761Y10488D01*
X107815Y10312D01*
X107823Y10297D01*
X107829Y10280D01*
X107919Y10120D01*
X108007Y9958D01*
X108018Y9945D01*
X108027Y9929D01*
X108147Y9790D01*
X108265Y9649D01*
X108278Y9638D01*
X108290Y9624D01*
X108435Y9512D01*
X108578Y9397D01*
X108594Y9389D01*
X108608Y9378D01*
X108773Y9296D01*
X108936Y9211D01*
X108953Y9206D01*
X108969Y9198D01*
X109147Y9150D01*
X109322Y9100D01*
X109340Y9098D01*
X109357Y9094D01*
X109688Y9067D01*
X116761Y9067D01*
X116761Y5842D01*
X116763Y5824D01*
X116761Y5806D01*
X116782Y5624D01*
X116801Y5441D01*
X116806Y5424D01*
X116808Y5407D01*
X116865Y5232D01*
X116919Y5056D01*
X116927Y5041D01*
X116933Y5024D01*
X117023Y4864D01*
X117111Y4702D01*
X117122Y4689D01*
X117131Y4673D01*
X117251Y4534D01*
X117368Y4393D01*
X117382Y4382D01*
X117394Y4368D01*
X117539Y4256D01*
X117682Y4141D01*
X117698Y4133D01*
X117712Y4122D01*
X117877Y4040D01*
X118039Y3955D01*
X118056Y3950D01*
X118072Y3942D01*
X118251Y3895D01*
X118426Y3844D01*
X118444Y3842D01*
X118461Y3838D01*
X118792Y3811D01*
X333719Y3811D01*
X333748Y3814D01*
G37*
G36*
X39976Y3813D02*
X39976Y3813D01*
X39994Y3811D01*
X40176Y3832D01*
X40359Y3851D01*
X40376Y3856D01*
X40393Y3858D01*
X40568Y3915D01*
X40744Y3969D01*
X40759Y3977D01*
X40776Y3983D01*
X40936Y4073D01*
X41098Y4161D01*
X41111Y4172D01*
X41127Y4181D01*
X41266Y4301D01*
X41407Y4418D01*
X41418Y4432D01*
X41432Y4444D01*
X41544Y4589D01*
X41659Y4732D01*
X41667Y4748D01*
X41678Y4762D01*
X41760Y4927D01*
X41845Y5089D01*
X41850Y5106D01*
X41858Y5122D01*
X41905Y5300D01*
X41956Y5476D01*
X41958Y5494D01*
X41962Y5511D01*
X41989Y5842D01*
X41989Y9067D01*
X49062Y9067D01*
X49080Y9068D01*
X49097Y9067D01*
X49280Y9088D01*
X49462Y9107D01*
X49479Y9112D01*
X49497Y9114D01*
X49538Y9127D01*
X49632Y9100D01*
X49650Y9098D01*
X49667Y9094D01*
X49998Y9067D01*
X57071Y9067D01*
X57071Y5842D01*
X57073Y5824D01*
X57071Y5806D01*
X57092Y5624D01*
X57111Y5441D01*
X57116Y5424D01*
X57118Y5407D01*
X57175Y5232D01*
X57229Y5056D01*
X57237Y5041D01*
X57243Y5024D01*
X57333Y4864D01*
X57421Y4702D01*
X57432Y4689D01*
X57441Y4673D01*
X57561Y4534D01*
X57678Y4393D01*
X57692Y4382D01*
X57704Y4368D01*
X57849Y4256D01*
X57992Y4141D01*
X58008Y4133D01*
X58022Y4122D01*
X58187Y4040D01*
X58349Y3955D01*
X58366Y3950D01*
X58382Y3942D01*
X58561Y3895D01*
X58736Y3844D01*
X58754Y3842D01*
X58771Y3838D01*
X59102Y3811D01*
X99648Y3811D01*
X99666Y3813D01*
X99684Y3811D01*
X99866Y3832D01*
X100049Y3851D01*
X100066Y3856D01*
X100083Y3858D01*
X100258Y3915D01*
X100434Y3969D01*
X100449Y3977D01*
X100466Y3983D01*
X100626Y4073D01*
X100788Y4161D01*
X100801Y4172D01*
X100817Y4181D01*
X100956Y4301D01*
X101097Y4418D01*
X101108Y4432D01*
X101122Y4444D01*
X101234Y4589D01*
X101349Y4732D01*
X101357Y4748D01*
X101368Y4762D01*
X101450Y4927D01*
X101535Y5089D01*
X101540Y5106D01*
X101548Y5122D01*
X101595Y5300D01*
X101646Y5476D01*
X101648Y5494D01*
X101652Y5511D01*
X101679Y5842D01*
X101679Y7802D01*
X101678Y7811D01*
X101679Y7820D01*
X101658Y8011D01*
X101639Y8203D01*
X101637Y8212D01*
X101636Y8221D01*
X101578Y8404D01*
X101521Y8588D01*
X101517Y8596D01*
X101514Y8605D01*
X101421Y8774D01*
X101329Y8942D01*
X101324Y8949D01*
X101319Y8957D01*
X101194Y9105D01*
X101072Y9251D01*
X101065Y9257D01*
X101059Y9264D01*
X100906Y9384D01*
X100758Y9503D01*
X100750Y9508D01*
X100743Y9513D01*
X100570Y9601D01*
X100401Y9689D01*
X100392Y9691D01*
X100384Y9696D01*
X100199Y9747D01*
X100014Y9800D01*
X100005Y9801D01*
X99996Y9804D01*
X99805Y9817D01*
X99612Y9833D01*
X99603Y9832D01*
X99594Y9833D01*
X99403Y9809D01*
X99213Y9786D01*
X99204Y9783D01*
X99195Y9782D01*
X99013Y9721D01*
X98830Y9661D01*
X98822Y9657D01*
X98813Y9654D01*
X98648Y9559D01*
X98479Y9464D01*
X98472Y9458D01*
X98464Y9453D01*
X98380Y9382D01*
X97741Y9012D01*
X97095Y8839D01*
X92541Y8839D01*
X92541Y14630D01*
X92541Y20421D01*
X97095Y20421D01*
X97741Y20248D01*
X98320Y19913D01*
X98793Y19440D01*
X99010Y19065D01*
X99058Y18998D01*
X99097Y18926D01*
X99175Y18835D01*
X99245Y18738D01*
X99305Y18682D01*
X99358Y18619D01*
X99452Y18545D01*
X99539Y18464D01*
X99609Y18421D01*
X99674Y18370D01*
X99780Y18316D01*
X99882Y18253D01*
X99960Y18225D01*
X100033Y18187D01*
X100148Y18155D01*
X100260Y18114D01*
X100341Y18101D01*
X100421Y18079D01*
X100540Y18071D01*
X100658Y18052D01*
X100740Y18056D01*
X100822Y18050D01*
X100941Y18065D01*
X101060Y18070D01*
X101140Y18090D01*
X101222Y18100D01*
X101335Y18138D01*
X101451Y18167D01*
X101525Y18202D01*
X101603Y18229D01*
X101707Y18288D01*
X101815Y18339D01*
X101881Y18389D01*
X101952Y18430D01*
X102068Y18528D01*
X102138Y18580D01*
X102165Y18610D01*
X102205Y18644D01*
X102738Y19177D01*
X102831Y19244D01*
X102887Y19304D01*
X102950Y19357D01*
X103024Y19451D01*
X103105Y19539D01*
X103148Y19609D01*
X103200Y19673D01*
X103254Y19780D01*
X103316Y19882D01*
X103345Y19959D01*
X103382Y20032D01*
X103414Y20148D01*
X103455Y20259D01*
X103468Y20341D01*
X103490Y20420D01*
X103499Y20539D01*
X103517Y20657D01*
X103513Y20740D01*
X103519Y20822D01*
X103504Y20940D01*
X103499Y21060D01*
X103479Y21139D01*
X103469Y21221D01*
X103431Y21334D01*
X103402Y21450D01*
X103367Y21525D01*
X103341Y21603D01*
X103281Y21706D01*
X103230Y21814D01*
X103181Y21880D01*
X103140Y21952D01*
X103041Y22068D01*
X102989Y22137D01*
X102959Y22164D01*
X102925Y22205D01*
X102695Y22434D01*
X102695Y28550D01*
X102693Y28568D01*
X102695Y28586D01*
X102674Y28768D01*
X102655Y28951D01*
X102650Y28968D01*
X102648Y28985D01*
X102592Y29159D01*
X102537Y29336D01*
X102529Y29351D01*
X102523Y29368D01*
X102433Y29528D01*
X102345Y29690D01*
X102334Y29703D01*
X102325Y29719D01*
X102205Y29858D01*
X102088Y29999D01*
X102074Y30010D01*
X102062Y30024D01*
X101917Y30136D01*
X101774Y30251D01*
X101758Y30259D01*
X101744Y30270D01*
X101579Y30352D01*
X101417Y30437D01*
X101400Y30442D01*
X101384Y30450D01*
X101205Y30497D01*
X101030Y30548D01*
X101012Y30550D01*
X100995Y30554D01*
X100664Y30581D01*
X99959Y30581D01*
X99932Y30579D01*
X99906Y30581D01*
X99732Y30559D01*
X99558Y30541D01*
X99533Y30534D01*
X99506Y30530D01*
X99340Y30474D01*
X99173Y30423D01*
X99150Y30410D01*
X99124Y30402D01*
X98973Y30315D01*
X98819Y30231D01*
X98799Y30214D01*
X98776Y30201D01*
X98523Y29986D01*
X97392Y28855D01*
X83628Y28855D01*
X82735Y29748D01*
X82735Y37512D01*
X83628Y38405D01*
X97161Y38405D01*
X97279Y38416D01*
X97397Y38419D01*
X97478Y38436D01*
X97561Y38445D01*
X97675Y38479D01*
X97790Y38505D01*
X97866Y38538D01*
X97946Y38563D01*
X98050Y38619D01*
X98159Y38667D01*
X98227Y38715D01*
X98300Y38755D01*
X98391Y38830D01*
X98488Y38899D01*
X98546Y38959D01*
X98610Y39012D01*
X98684Y39104D01*
X98765Y39191D01*
X98810Y39261D01*
X98862Y39326D01*
X98916Y39431D01*
X98979Y39532D01*
X99009Y39610D01*
X99047Y39683D01*
X99080Y39797D01*
X99122Y39908D01*
X99136Y39990D01*
X99159Y40070D01*
X99168Y40188D01*
X99188Y40305D01*
X99185Y40388D01*
X99192Y40472D01*
X99178Y40589D01*
X99174Y40708D01*
X99154Y40789D01*
X99145Y40871D01*
X99108Y40984D01*
X99081Y41099D01*
X99046Y41175D01*
X99020Y41254D01*
X98962Y41357D01*
X98912Y41465D01*
X98856Y41545D01*
X98822Y41605D01*
X98777Y41657D01*
X98721Y41736D01*
X95087Y46097D01*
X95034Y46149D01*
X94963Y46233D01*
X94104Y47092D01*
X94092Y47117D01*
X94075Y47172D01*
X94065Y47192D01*
X94060Y47206D01*
X94001Y47310D01*
X93946Y47428D01*
X93907Y47482D01*
X93883Y47526D01*
X93871Y47541D01*
X93862Y47557D01*
X93815Y47611D01*
X93753Y47698D01*
X93751Y47700D01*
X93684Y47765D01*
X93626Y47835D01*
X93612Y47846D01*
X93599Y47862D01*
X93527Y47917D01*
X93462Y47980D01*
X93380Y48033D01*
X93312Y48088D01*
X93298Y48095D01*
X93281Y48108D01*
X93200Y48149D01*
X93123Y48198D01*
X93029Y48234D01*
X92955Y48273D01*
X92942Y48277D01*
X92920Y48288D01*
X92833Y48311D01*
X92748Y48344D01*
X92645Y48362D01*
X92568Y48384D01*
X92557Y48385D01*
X92531Y48392D01*
X92424Y48401D01*
X92352Y48414D01*
X92288Y48412D01*
X92201Y48419D01*
X92150Y48419D01*
X91257Y49312D01*
X91257Y57576D01*
X92189Y58508D01*
X92201Y58522D01*
X92214Y58533D01*
X92328Y58677D01*
X92444Y58819D01*
X92453Y58835D01*
X92464Y58849D01*
X92547Y59013D01*
X92633Y59175D01*
X92638Y59192D01*
X92646Y59208D01*
X92696Y59385D01*
X92748Y59561D01*
X92749Y59579D01*
X92754Y59596D01*
X92768Y59779D01*
X92784Y59962D01*
X92782Y59980D01*
X92784Y59997D01*
X92761Y60179D01*
X92741Y60362D01*
X92735Y60379D01*
X92733Y60397D01*
X92675Y60571D01*
X92619Y60746D01*
X92611Y60762D01*
X92605Y60778D01*
X92513Y60937D01*
X92425Y61098D01*
X92413Y61112D01*
X92404Y61127D01*
X92189Y61380D01*
X91257Y62312D01*
X91257Y68393D01*
X91255Y68420D01*
X91257Y68447D01*
X91235Y68621D01*
X91217Y68794D01*
X91210Y68820D01*
X91206Y68846D01*
X91151Y69012D01*
X91099Y69179D01*
X91086Y69203D01*
X91078Y69228D01*
X90991Y69380D01*
X90907Y69533D01*
X90890Y69553D01*
X90877Y69577D01*
X90662Y69830D01*
X89595Y70897D01*
X89581Y70908D01*
X89570Y70922D01*
X89425Y71036D01*
X89283Y71152D01*
X89268Y71161D01*
X89254Y71172D01*
X89089Y71255D01*
X88928Y71341D01*
X88911Y71346D01*
X88895Y71354D01*
X88718Y71403D01*
X88542Y71456D01*
X88524Y71457D01*
X88507Y71462D01*
X88324Y71475D01*
X88141Y71492D01*
X88123Y71490D01*
X88105Y71491D01*
X87924Y71468D01*
X87741Y71449D01*
X87723Y71443D01*
X87706Y71441D01*
X87532Y71383D01*
X87357Y71327D01*
X87341Y71318D01*
X87324Y71313D01*
X87165Y71221D01*
X87004Y71132D01*
X86991Y71121D01*
X86975Y71112D01*
X86722Y70897D01*
X86140Y70315D01*
X84470Y69623D01*
X82662Y69623D01*
X80992Y70315D01*
X79713Y71594D01*
X79021Y73264D01*
X79021Y74637D01*
X79019Y74664D01*
X79021Y74691D01*
X78999Y74864D01*
X78981Y75038D01*
X78974Y75064D01*
X78970Y75090D01*
X78915Y75256D01*
X78863Y75423D01*
X78850Y75447D01*
X78842Y75472D01*
X78755Y75623D01*
X78671Y75777D01*
X78654Y75797D01*
X78641Y75821D01*
X78426Y76074D01*
X77862Y76638D01*
X77855Y76643D01*
X77850Y76650D01*
X77700Y76771D01*
X77551Y76893D01*
X77543Y76897D01*
X77536Y76903D01*
X77366Y76991D01*
X77195Y77081D01*
X77186Y77084D01*
X77179Y77088D01*
X76995Y77141D01*
X76809Y77196D01*
X76800Y77197D01*
X76792Y77200D01*
X76601Y77215D01*
X76408Y77233D01*
X76399Y77232D01*
X76390Y77232D01*
X76201Y77210D01*
X76008Y77189D01*
X75999Y77187D01*
X75991Y77186D01*
X75808Y77126D01*
X75624Y77068D01*
X75616Y77063D01*
X75608Y77061D01*
X75439Y76966D01*
X75272Y76873D01*
X75265Y76867D01*
X75257Y76863D01*
X75112Y76737D01*
X74965Y76612D01*
X74959Y76605D01*
X74952Y76600D01*
X74835Y76449D01*
X74715Y76297D01*
X74711Y76289D01*
X74706Y76282D01*
X74620Y76109D01*
X74533Y75938D01*
X74530Y75929D01*
X74526Y75921D01*
X74475Y75731D01*
X74425Y75550D01*
X74424Y75541D01*
X74422Y75532D01*
X74395Y75201D01*
X74395Y74026D01*
X73703Y72356D01*
X72424Y71077D01*
X71475Y70684D01*
X70754Y70385D01*
X68946Y70385D01*
X67276Y71077D01*
X66840Y71512D01*
X66820Y71529D01*
X66802Y71550D01*
X66664Y71657D01*
X66529Y71767D01*
X66505Y71780D01*
X66484Y71796D01*
X66327Y71874D01*
X66173Y71956D01*
X66148Y71964D01*
X66124Y71976D01*
X65954Y72021D01*
X65787Y72071D01*
X65761Y72073D01*
X65735Y72080D01*
X65404Y72107D01*
X63356Y72107D01*
X63338Y72105D01*
X63320Y72107D01*
X63138Y72086D01*
X62955Y72067D01*
X62938Y72062D01*
X62921Y72060D01*
X62746Y72003D01*
X62570Y71949D01*
X62555Y71941D01*
X62538Y71935D01*
X62378Y71845D01*
X62216Y71757D01*
X62203Y71746D01*
X62187Y71737D01*
X62048Y71617D01*
X61907Y71500D01*
X61896Y71486D01*
X61882Y71474D01*
X61770Y71329D01*
X61655Y71186D01*
X61647Y71170D01*
X61636Y71156D01*
X61554Y70991D01*
X61469Y70829D01*
X61464Y70812D01*
X61456Y70796D01*
X61409Y70617D01*
X61358Y70442D01*
X61356Y70424D01*
X61352Y70407D01*
X61325Y70076D01*
X61325Y61024D01*
X60432Y60131D01*
X41168Y60131D01*
X40275Y61024D01*
X40275Y69848D01*
X40286Y69990D01*
X40302Y70174D01*
X40300Y70192D01*
X40302Y70211D01*
X40279Y70391D01*
X40275Y70423D01*
X40275Y79848D01*
X40286Y79991D01*
X40302Y80174D01*
X40300Y80192D01*
X40302Y80211D01*
X40279Y80391D01*
X40275Y80423D01*
X40275Y89848D01*
X40286Y89991D01*
X40302Y90174D01*
X40300Y90192D01*
X40302Y90211D01*
X40279Y90391D01*
X40275Y90423D01*
X40275Y99848D01*
X40286Y99991D01*
X40302Y100174D01*
X40300Y100192D01*
X40302Y100211D01*
X40279Y100391D01*
X40275Y100423D01*
X40275Y109849D01*
X40286Y109991D01*
X40302Y110173D01*
X40300Y110191D01*
X40302Y110209D01*
X40279Y110392D01*
X40275Y110423D01*
X40275Y119849D01*
X40286Y119991D01*
X40302Y120173D01*
X40300Y120191D01*
X40302Y120209D01*
X40279Y120392D01*
X40275Y120423D01*
X40275Y128746D01*
X40273Y128773D01*
X40275Y128800D01*
X40253Y128973D01*
X40235Y129147D01*
X40228Y129172D01*
X40224Y129199D01*
X40169Y129365D01*
X40117Y129532D01*
X40104Y129555D01*
X40096Y129581D01*
X40009Y129732D01*
X39925Y129886D01*
X39908Y129906D01*
X39895Y129930D01*
X39795Y130048D01*
X39311Y130886D01*
X39272Y130940D01*
X39241Y130999D01*
X39155Y131103D01*
X39076Y131213D01*
X39027Y131258D01*
X38985Y131310D01*
X38880Y131395D01*
X38781Y131487D01*
X38724Y131522D01*
X38673Y131564D01*
X38553Y131627D01*
X38438Y131698D01*
X38376Y131721D01*
X38317Y131752D01*
X38187Y131790D01*
X38060Y131837D01*
X37994Y131847D01*
X37930Y131866D01*
X37796Y131878D01*
X37663Y131898D01*
X37596Y131895D01*
X37529Y131901D01*
X37395Y131886D01*
X37260Y131880D01*
X37195Y131864D01*
X37129Y131857D01*
X37001Y131816D01*
X36870Y131783D01*
X36809Y131755D01*
X36746Y131735D01*
X36628Y131669D01*
X36506Y131611D01*
X36452Y131571D01*
X36394Y131539D01*
X36291Y131451D01*
X36183Y131371D01*
X36138Y131321D01*
X36087Y131278D01*
X36004Y131172D01*
X35914Y131071D01*
X35880Y131014D01*
X35838Y130961D01*
X35778Y130841D01*
X35709Y130724D01*
X35687Y130661D01*
X35657Y130602D01*
X35621Y130472D01*
X35577Y130344D01*
X35568Y130278D01*
X35550Y130214D01*
X35534Y130030D01*
X35522Y129945D01*
X35524Y129918D01*
X35521Y129883D01*
X35064Y58591D01*
X35066Y58562D01*
X35064Y58534D01*
X35085Y58363D01*
X35101Y58190D01*
X35109Y58163D01*
X35113Y58134D01*
X35167Y57970D01*
X35217Y57805D01*
X35230Y57779D01*
X35239Y57752D01*
X35325Y57602D01*
X35406Y57449D01*
X35424Y57427D01*
X35439Y57402D01*
X35552Y57272D01*
X35662Y57139D01*
X35684Y57120D01*
X35703Y57099D01*
X35840Y56993D01*
X35974Y56884D01*
X35999Y56871D01*
X36022Y56853D01*
X36317Y56702D01*
X40294Y55055D01*
X43081Y52268D01*
X44589Y48627D01*
X44589Y44685D01*
X43081Y41044D01*
X40294Y38257D01*
X40116Y38184D01*
X36561Y36711D01*
X36541Y36709D01*
X36530Y36706D01*
X36519Y36705D01*
X36339Y36647D01*
X36156Y36591D01*
X36146Y36586D01*
X36136Y36582D01*
X35970Y36490D01*
X35802Y36399D01*
X35794Y36392D01*
X35784Y36387D01*
X35638Y36263D01*
X35493Y36142D01*
X35486Y36133D01*
X35477Y36126D01*
X35359Y35975D01*
X35241Y35828D01*
X35235Y35818D01*
X35228Y35809D01*
X35142Y35637D01*
X35055Y35471D01*
X35052Y35460D01*
X35047Y35450D01*
X34996Y35264D01*
X34944Y35084D01*
X34943Y35072D01*
X34940Y35062D01*
X34911Y34731D01*
X34726Y5855D01*
X34728Y5831D01*
X34726Y5806D01*
X34746Y5631D01*
X34763Y5454D01*
X34770Y5431D01*
X34773Y5407D01*
X34828Y5238D01*
X34879Y5068D01*
X34890Y5047D01*
X34898Y5024D01*
X34985Y4869D01*
X35068Y4713D01*
X35083Y4694D01*
X35095Y4673D01*
X35211Y4539D01*
X35324Y4402D01*
X35343Y4387D01*
X35359Y4368D01*
X35499Y4260D01*
X35636Y4148D01*
X35657Y4137D01*
X35677Y4122D01*
X35835Y4043D01*
X35992Y3960D01*
X36015Y3953D01*
X36037Y3942D01*
X36209Y3896D01*
X36378Y3846D01*
X36402Y3844D01*
X36426Y3838D01*
X36757Y3811D01*
X39958Y3811D01*
X39976Y3813D01*
G37*
G36*
X179118Y27591D02*
X179118Y27591D01*
X179136Y27589D01*
X179318Y27610D01*
X179501Y27629D01*
X179518Y27634D01*
X179535Y27636D01*
X179710Y27693D01*
X179886Y27747D01*
X179901Y27755D01*
X179918Y27761D01*
X180078Y27851D01*
X180240Y27939D01*
X180253Y27950D01*
X180269Y27959D01*
X180408Y28079D01*
X180549Y28196D01*
X180560Y28210D01*
X180574Y28222D01*
X180686Y28367D01*
X180801Y28510D01*
X180809Y28526D01*
X180820Y28540D01*
X180902Y28705D01*
X180987Y28867D01*
X180992Y28884D01*
X181000Y28900D01*
X181047Y29079D01*
X181098Y29254D01*
X181100Y29272D01*
X181104Y29289D01*
X181131Y29620D01*
X181131Y45912D01*
X181129Y45938D01*
X181131Y45965D01*
X181109Y46139D01*
X181091Y46312D01*
X181084Y46338D01*
X181080Y46365D01*
X181025Y46530D01*
X180973Y46697D01*
X180960Y46721D01*
X180952Y46746D01*
X180865Y46898D01*
X180781Y47051D01*
X180764Y47072D01*
X180751Y47095D01*
X180536Y47348D01*
X176633Y51251D01*
X176633Y51995D01*
X176631Y52022D01*
X176633Y52048D01*
X176611Y52222D01*
X176593Y52396D01*
X176586Y52421D01*
X176582Y52448D01*
X176526Y52614D01*
X176475Y52781D01*
X176462Y52804D01*
X176454Y52830D01*
X176367Y52981D01*
X176283Y53135D01*
X176266Y53155D01*
X176253Y53178D01*
X176038Y53431D01*
X174657Y54812D01*
X174657Y59816D01*
X174655Y59842D01*
X174657Y59869D01*
X174635Y60043D01*
X174617Y60216D01*
X174610Y60242D01*
X174606Y60269D01*
X174551Y60434D01*
X174499Y60601D01*
X174486Y60625D01*
X174478Y60650D01*
X174391Y60802D01*
X174307Y60955D01*
X174290Y60976D01*
X174277Y60999D01*
X174062Y61252D01*
X172973Y62341D01*
X172973Y117745D01*
X173172Y117944D01*
X173183Y117957D01*
X173197Y117969D01*
X173311Y118113D01*
X173427Y118255D01*
X173436Y118271D01*
X173447Y118285D01*
X173530Y118448D01*
X173616Y118611D01*
X173621Y118628D01*
X173629Y118644D01*
X173678Y118821D01*
X173731Y118997D01*
X173732Y119015D01*
X173737Y119032D01*
X173750Y119215D01*
X173767Y119398D01*
X173765Y119415D01*
X173766Y119433D01*
X173743Y119615D01*
X173724Y119798D01*
X173718Y119815D01*
X173716Y119833D01*
X173658Y120007D01*
X173602Y120182D01*
X173593Y120197D01*
X173588Y120214D01*
X173496Y120374D01*
X173407Y120534D01*
X173396Y120548D01*
X173387Y120563D01*
X173172Y120816D01*
X172973Y121015D01*
X172973Y172538D01*
X172971Y172556D01*
X172973Y172574D01*
X172952Y172756D01*
X172933Y172939D01*
X172928Y172956D01*
X172926Y172973D01*
X172869Y173148D01*
X172815Y173324D01*
X172807Y173339D01*
X172801Y173356D01*
X172711Y173516D01*
X172623Y173678D01*
X172612Y173691D01*
X172603Y173707D01*
X172483Y173846D01*
X172366Y173987D01*
X172352Y173998D01*
X172340Y174012D01*
X172195Y174124D01*
X172052Y174239D01*
X172036Y174247D01*
X172022Y174258D01*
X171857Y174340D01*
X171695Y174425D01*
X171678Y174430D01*
X171662Y174438D01*
X171483Y174485D01*
X171308Y174536D01*
X171290Y174538D01*
X171273Y174542D01*
X170942Y174569D01*
X167465Y174569D01*
X166819Y174742D01*
X166240Y175077D01*
X165767Y175550D01*
X165432Y176129D01*
X165259Y176775D01*
X165259Y179579D01*
X171300Y179579D01*
X171317Y179580D01*
X171335Y179579D01*
X171518Y179600D01*
X171700Y179618D01*
X171717Y179624D01*
X171735Y179626D01*
X171910Y179683D01*
X172085Y179737D01*
X172101Y179745D01*
X172118Y179751D01*
X172278Y179841D01*
X172439Y179928D01*
X172453Y179940D01*
X172468Y179949D01*
X172608Y180069D01*
X172748Y180186D01*
X172749Y180186D01*
X172749Y180187D01*
X172760Y180200D01*
X172773Y180212D01*
X172774Y180212D01*
X172886Y180357D01*
X173001Y180500D01*
X173010Y180516D01*
X173020Y180530D01*
X173102Y180695D01*
X173187Y180858D01*
X173192Y180875D01*
X173200Y180891D01*
X173248Y181069D01*
X173298Y181245D01*
X173300Y181262D01*
X173304Y181280D01*
X173331Y181610D01*
X173331Y188651D01*
X175135Y188651D01*
X175781Y188478D01*
X176360Y188143D01*
X176911Y187592D01*
X176978Y187499D01*
X177038Y187443D01*
X177091Y187380D01*
X177185Y187306D01*
X177273Y187225D01*
X177343Y187182D01*
X177407Y187130D01*
X177514Y187076D01*
X177616Y187014D01*
X177693Y186985D01*
X177766Y186948D01*
X177882Y186916D01*
X177993Y186875D01*
X178075Y186862D01*
X178154Y186840D01*
X178273Y186831D01*
X178391Y186813D01*
X178474Y186817D01*
X178556Y186811D01*
X178674Y186826D01*
X178794Y186831D01*
X178873Y186851D01*
X178955Y186861D01*
X179068Y186899D01*
X179184Y186928D01*
X179259Y186963D01*
X179337Y186989D01*
X179440Y187049D01*
X179548Y187100D01*
X179614Y187149D01*
X179686Y187190D01*
X179802Y187289D01*
X179871Y187341D01*
X179898Y187371D01*
X179939Y187405D01*
X180656Y188123D01*
X180673Y188143D01*
X180694Y188161D01*
X180801Y188299D01*
X180911Y188434D01*
X180924Y188458D01*
X180940Y188479D01*
X181018Y188636D01*
X181100Y188790D01*
X181108Y188815D01*
X181120Y188839D01*
X181165Y189009D01*
X181215Y189176D01*
X181217Y189202D01*
X181224Y189228D01*
X181251Y189559D01*
X181251Y191770D01*
X181249Y191788D01*
X181251Y191806D01*
X181230Y191988D01*
X181211Y192171D01*
X181206Y192188D01*
X181204Y192205D01*
X181147Y192380D01*
X181093Y192556D01*
X181085Y192571D01*
X181079Y192588D01*
X180989Y192748D01*
X180901Y192910D01*
X180890Y192923D01*
X180881Y192939D01*
X180761Y193078D01*
X180644Y193219D01*
X180630Y193230D01*
X180618Y193244D01*
X180473Y193356D01*
X180330Y193471D01*
X180314Y193479D01*
X180300Y193490D01*
X180135Y193572D01*
X179973Y193657D01*
X179956Y193662D01*
X179940Y193670D01*
X179761Y193717D01*
X179586Y193768D01*
X179568Y193770D01*
X179551Y193774D01*
X179220Y193801D01*
X147171Y193801D01*
X147034Y193788D01*
X146897Y193783D01*
X146834Y193768D01*
X146770Y193761D01*
X146639Y193721D01*
X146505Y193689D01*
X146447Y193662D01*
X146385Y193643D01*
X146264Y193578D01*
X146140Y193520D01*
X146088Y193482D01*
X146031Y193451D01*
X145926Y193364D01*
X145815Y193282D01*
X145771Y193235D01*
X145722Y193194D01*
X145636Y193087D01*
X145543Y192985D01*
X145510Y192930D01*
X145470Y192880D01*
X145407Y192758D01*
X145336Y192640D01*
X145314Y192580D01*
X145284Y192523D01*
X145246Y192391D01*
X145200Y192261D01*
X145191Y192197D01*
X145173Y192136D01*
X145162Y191999D01*
X145142Y191863D01*
X145145Y191799D01*
X145140Y191734D01*
X145156Y191598D01*
X145163Y191461D01*
X145179Y191399D01*
X145187Y191335D01*
X145230Y191204D01*
X145264Y191071D01*
X145292Y191013D01*
X145312Y190952D01*
X145379Y190832D01*
X145439Y190708D01*
X145478Y190657D01*
X145510Y190601D01*
X145600Y190497D01*
X145683Y190388D01*
X145731Y190345D01*
X145773Y190297D01*
X145881Y190212D01*
X145984Y190121D01*
X146040Y190089D01*
X146091Y190050D01*
X146214Y189989D01*
X146333Y189920D01*
X146402Y189895D01*
X146451Y189870D01*
X146529Y189850D01*
X146645Y189808D01*
X146871Y189748D01*
X147450Y189413D01*
X147923Y188940D01*
X148258Y188361D01*
X148431Y187715D01*
X148431Y184911D01*
X142390Y184911D01*
X142373Y184910D01*
X142355Y184911D01*
X142172Y184890D01*
X141990Y184871D01*
X141973Y184866D01*
X141955Y184864D01*
X141780Y184807D01*
X141605Y184753D01*
X141589Y184745D01*
X141572Y184739D01*
X141412Y184649D01*
X141251Y184562D01*
X141237Y184550D01*
X141222Y184541D01*
X141082Y184421D01*
X140942Y184304D01*
X140941Y184304D01*
X140941Y184303D01*
X140930Y184290D01*
X140917Y184278D01*
X140916Y184278D01*
X140804Y184133D01*
X140689Y183990D01*
X140680Y183974D01*
X140670Y183960D01*
X140588Y183795D01*
X140503Y183632D01*
X140498Y183615D01*
X140490Y183599D01*
X140442Y183421D01*
X140392Y183245D01*
X140390Y183228D01*
X140386Y183210D01*
X140359Y182880D01*
X140359Y175839D01*
X138555Y175839D01*
X137909Y176012D01*
X137855Y176044D01*
X137730Y176100D01*
X137609Y176164D01*
X137547Y176183D01*
X137488Y176209D01*
X137355Y176240D01*
X137223Y176279D01*
X137159Y176285D01*
X137096Y176299D01*
X136959Y176303D01*
X136822Y176316D01*
X136758Y176309D01*
X136694Y176310D01*
X136558Y176287D01*
X136422Y176272D01*
X136360Y176253D01*
X136297Y176242D01*
X136169Y176192D01*
X136038Y176151D01*
X135981Y176120D01*
X135921Y176096D01*
X135806Y176022D01*
X135685Y175956D01*
X135636Y175914D01*
X135582Y175880D01*
X135483Y175784D01*
X135378Y175695D01*
X135339Y175645D01*
X135292Y175600D01*
X135214Y175487D01*
X135129Y175380D01*
X135100Y175322D01*
X135063Y175269D01*
X135009Y175143D01*
X134946Y175021D01*
X134929Y174959D01*
X134904Y174900D01*
X134875Y174765D01*
X134838Y174633D01*
X134834Y174569D01*
X134820Y174506D01*
X134819Y174368D01*
X134809Y174231D01*
X134817Y174167D01*
X134817Y174103D01*
X134842Y173968D01*
X134860Y173832D01*
X134880Y173771D01*
X134892Y173708D01*
X134944Y173580D01*
X134988Y173450D01*
X135020Y173394D01*
X135044Y173335D01*
X135120Y173220D01*
X135189Y173101D01*
X135236Y173045D01*
X135267Y172999D01*
X135323Y172943D01*
X135403Y172848D01*
X140462Y167790D01*
X140483Y167773D01*
X140500Y167752D01*
X140638Y167646D01*
X140773Y167535D01*
X140797Y167522D01*
X140818Y167506D01*
X140975Y167428D01*
X141129Y167346D01*
X141155Y167338D01*
X141179Y167326D01*
X141348Y167281D01*
X141515Y167231D01*
X141542Y167229D01*
X141567Y167222D01*
X141898Y167195D01*
X154272Y167195D01*
X154403Y167064D01*
X154423Y167047D01*
X154441Y167026D01*
X154579Y166919D01*
X154714Y166809D01*
X154738Y166796D01*
X154759Y166780D01*
X154916Y166702D01*
X155070Y166620D01*
X155095Y166612D01*
X155119Y166600D01*
X155245Y166567D01*
X164593Y157219D01*
X164593Y41025D01*
X164572Y40983D01*
X164490Y40829D01*
X164482Y40803D01*
X164470Y40779D01*
X164425Y40610D01*
X164375Y40443D01*
X164373Y40416D01*
X164366Y40391D01*
X164339Y40060D01*
X164339Y29620D01*
X164341Y29602D01*
X164339Y29584D01*
X164360Y29402D01*
X164379Y29219D01*
X164384Y29202D01*
X164386Y29185D01*
X164443Y29010D01*
X164497Y28834D01*
X164505Y28819D01*
X164511Y28802D01*
X164601Y28642D01*
X164689Y28480D01*
X164700Y28467D01*
X164709Y28451D01*
X164829Y28312D01*
X164946Y28171D01*
X164960Y28160D01*
X164972Y28146D01*
X165117Y28034D01*
X165260Y27919D01*
X165276Y27911D01*
X165290Y27900D01*
X165455Y27818D01*
X165617Y27733D01*
X165634Y27728D01*
X165650Y27720D01*
X165829Y27673D01*
X166004Y27622D01*
X166022Y27620D01*
X166039Y27616D01*
X166370Y27589D01*
X179100Y27589D01*
X179118Y27591D01*
G37*
G36*
X140372Y99519D02*
X140372Y99519D01*
X140390Y99517D01*
X140572Y99538D01*
X140755Y99557D01*
X140772Y99562D01*
X140789Y99564D01*
X140964Y99621D01*
X141140Y99675D01*
X141155Y99683D01*
X141172Y99689D01*
X141332Y99779D01*
X141494Y99867D01*
X141507Y99878D01*
X141523Y99887D01*
X141662Y100007D01*
X141803Y100124D01*
X141814Y100138D01*
X141828Y100150D01*
X141940Y100295D01*
X142055Y100438D01*
X142063Y100454D01*
X142074Y100468D01*
X142156Y100633D01*
X142241Y100795D01*
X142246Y100812D01*
X142254Y100828D01*
X142301Y101007D01*
X142352Y101182D01*
X142354Y101200D01*
X142358Y101217D01*
X142385Y101548D01*
X142385Y106612D01*
X143278Y107505D01*
X155931Y107505D01*
X156080Y107460D01*
X156090Y107459D01*
X156098Y107457D01*
X156289Y107441D01*
X156481Y107424D01*
X156491Y107425D01*
X156500Y107424D01*
X156690Y107446D01*
X156882Y107467D01*
X156890Y107470D01*
X156899Y107471D01*
X157083Y107531D01*
X157266Y107588D01*
X157273Y107593D01*
X157282Y107596D01*
X157451Y107691D01*
X157618Y107783D01*
X157625Y107789D01*
X157633Y107794D01*
X157778Y107919D01*
X157925Y108044D01*
X157931Y108051D01*
X157938Y108057D01*
X158054Y108207D01*
X158175Y108360D01*
X158179Y108368D01*
X158184Y108375D01*
X158270Y108547D01*
X158357Y108718D01*
X158359Y108727D01*
X158364Y108735D01*
X158414Y108922D01*
X158465Y109106D01*
X158466Y109115D01*
X158468Y109124D01*
X158495Y109455D01*
X158495Y111324D01*
X158493Y111342D01*
X158495Y111360D01*
X158474Y111542D01*
X158455Y111725D01*
X158450Y111742D01*
X158448Y111759D01*
X158391Y111934D01*
X158337Y112110D01*
X158329Y112125D01*
X158323Y112142D01*
X158233Y112302D01*
X158145Y112464D01*
X158134Y112477D01*
X158125Y112493D01*
X158005Y112632D01*
X157888Y112773D01*
X157874Y112784D01*
X157862Y112798D01*
X157717Y112910D01*
X157574Y113025D01*
X157558Y113033D01*
X157544Y113044D01*
X157379Y113126D01*
X157217Y113211D01*
X157200Y113216D01*
X157184Y113224D01*
X157005Y113271D01*
X156830Y113322D01*
X156812Y113324D01*
X156795Y113328D01*
X156464Y113355D01*
X153498Y113355D01*
X153269Y113585D01*
X153205Y113637D01*
X153148Y113697D01*
X153049Y113765D01*
X152957Y113840D01*
X152884Y113879D01*
X152816Y113926D01*
X152707Y113973D01*
X152602Y114029D01*
X152522Y114052D01*
X152447Y114085D01*
X152330Y114110D01*
X152216Y114144D01*
X152133Y114151D01*
X152053Y114168D01*
X151933Y114169D01*
X151815Y114180D01*
X151733Y114171D01*
X151650Y114172D01*
X151533Y114149D01*
X151414Y114137D01*
X151336Y114112D01*
X151255Y114096D01*
X151144Y114051D01*
X151031Y114015D01*
X150958Y113975D01*
X150882Y113944D01*
X150783Y113878D01*
X150678Y113820D01*
X150615Y113767D01*
X150547Y113721D01*
X150462Y113637D01*
X150371Y113560D01*
X150320Y113495D01*
X150262Y113437D01*
X150221Y113378D01*
X149690Y112847D01*
X149111Y112512D01*
X148465Y112339D01*
X146661Y112339D01*
X146661Y119380D01*
X146661Y126421D01*
X148465Y126421D01*
X149111Y126248D01*
X149690Y125913D01*
X150241Y125363D01*
X150308Y125269D01*
X150368Y125213D01*
X150421Y125150D01*
X150515Y125076D01*
X150602Y124995D01*
X150673Y124952D01*
X150737Y124900D01*
X150844Y124846D01*
X150945Y124784D01*
X151023Y124755D01*
X151096Y124718D01*
X151211Y124686D01*
X151323Y124645D01*
X151405Y124632D01*
X151484Y124610D01*
X151603Y124601D01*
X151721Y124583D01*
X151803Y124587D01*
X151886Y124581D01*
X152004Y124596D01*
X152123Y124601D01*
X152203Y124621D01*
X152285Y124631D01*
X152398Y124669D01*
X152514Y124698D01*
X152589Y124733D01*
X152667Y124759D01*
X152770Y124819D01*
X152878Y124870D01*
X152944Y124919D01*
X153016Y124960D01*
X153132Y125059D01*
X153201Y125110D01*
X153228Y125141D01*
X153269Y125175D01*
X153498Y125405D01*
X156464Y125405D01*
X156482Y125407D01*
X156500Y125405D01*
X156682Y125426D01*
X156865Y125445D01*
X156882Y125450D01*
X156899Y125452D01*
X157074Y125509D01*
X157250Y125563D01*
X157265Y125571D01*
X157282Y125577D01*
X157442Y125667D01*
X157604Y125755D01*
X157617Y125766D01*
X157633Y125775D01*
X157772Y125895D01*
X157913Y126012D01*
X157924Y126026D01*
X157938Y126038D01*
X158050Y126183D01*
X158165Y126326D01*
X158173Y126342D01*
X158184Y126356D01*
X158266Y126521D01*
X158351Y126683D01*
X158356Y126700D01*
X158364Y126716D01*
X158411Y126895D01*
X158462Y127070D01*
X158464Y127088D01*
X158468Y127105D01*
X158495Y127436D01*
X158495Y138028D01*
X158494Y138038D01*
X158495Y138048D01*
X158474Y138238D01*
X158455Y138429D01*
X158452Y138438D01*
X158451Y138448D01*
X158393Y138631D01*
X158337Y138814D01*
X158333Y138822D01*
X158330Y138832D01*
X158236Y139000D01*
X158145Y139168D01*
X158139Y139175D01*
X158134Y139184D01*
X158010Y139330D01*
X157888Y139477D01*
X157880Y139483D01*
X157874Y139491D01*
X157723Y139610D01*
X157574Y139729D01*
X157565Y139734D01*
X157557Y139740D01*
X157386Y139827D01*
X157217Y139915D01*
X157207Y139918D01*
X157198Y139922D01*
X157013Y139973D01*
X156830Y140026D01*
X156820Y140027D01*
X156810Y140030D01*
X156620Y140044D01*
X156428Y140059D01*
X156419Y140058D01*
X156409Y140059D01*
X156219Y140035D01*
X156029Y140012D01*
X156019Y140009D01*
X156009Y140008D01*
X155829Y139947D01*
X155646Y139887D01*
X155637Y139883D01*
X155628Y139879D01*
X155474Y139791D01*
X155432Y139771D01*
X154621Y139302D01*
X153975Y139129D01*
X150171Y139129D01*
X150171Y143920D01*
X150170Y143937D01*
X150171Y143955D01*
X150150Y144138D01*
X150131Y144320D01*
X150126Y144337D01*
X150124Y144355D01*
X150067Y144530D01*
X150013Y144705D01*
X150005Y144721D01*
X149999Y144738D01*
X149909Y144898D01*
X149822Y145059D01*
X149810Y145073D01*
X149801Y145088D01*
X149681Y145228D01*
X149564Y145368D01*
X149564Y145369D01*
X149563Y145369D01*
X149550Y145380D01*
X149538Y145393D01*
X149538Y145394D01*
X149393Y145506D01*
X149250Y145621D01*
X149234Y145630D01*
X149220Y145640D01*
X149055Y145722D01*
X148892Y145807D01*
X148875Y145812D01*
X148859Y145820D01*
X148681Y145868D01*
X148505Y145918D01*
X148488Y145920D01*
X148470Y145924D01*
X148140Y145951D01*
X140099Y145951D01*
X140079Y146139D01*
X140059Y146332D01*
X140057Y146341D01*
X140056Y146350D01*
X139997Y146534D01*
X139941Y146717D01*
X139937Y146725D01*
X139934Y146733D01*
X139841Y146903D01*
X139749Y147071D01*
X139744Y147078D01*
X139739Y147086D01*
X139614Y147233D01*
X139492Y147380D01*
X139485Y147386D01*
X139479Y147393D01*
X139328Y147512D01*
X139178Y147633D01*
X139170Y147637D01*
X139163Y147642D01*
X138990Y147730D01*
X138821Y147818D01*
X138812Y147821D01*
X138804Y147825D01*
X138618Y147877D01*
X138434Y147930D01*
X138425Y147930D01*
X138416Y147933D01*
X138224Y147947D01*
X138032Y147962D01*
X138024Y147961D01*
X138015Y147962D01*
X137823Y147938D01*
X137633Y147916D01*
X137624Y147913D01*
X137615Y147912D01*
X137434Y147851D01*
X137250Y147791D01*
X137242Y147786D01*
X137234Y147783D01*
X137068Y147688D01*
X136899Y147593D01*
X136892Y147587D01*
X136885Y147582D01*
X136632Y147368D01*
X136232Y146968D01*
X136215Y146947D01*
X136194Y146930D01*
X136088Y146792D01*
X135977Y146656D01*
X135964Y146632D01*
X135948Y146611D01*
X135870Y146455D01*
X135788Y146300D01*
X135780Y146275D01*
X135768Y146251D01*
X135723Y146081D01*
X135673Y145915D01*
X135671Y145888D01*
X135664Y145862D01*
X135637Y145531D01*
X135637Y126884D01*
X135638Y126875D01*
X135637Y126866D01*
X135657Y126676D01*
X135677Y126483D01*
X135679Y126475D01*
X135680Y126466D01*
X135738Y126282D01*
X135795Y126098D01*
X135799Y126090D01*
X135802Y126082D01*
X135895Y125913D01*
X135987Y125744D01*
X135992Y125737D01*
X135997Y125729D01*
X136121Y125583D01*
X136244Y125435D01*
X136251Y125429D01*
X136257Y125422D01*
X136408Y125303D01*
X136558Y125183D01*
X136566Y125178D01*
X136573Y125173D01*
X136745Y125085D01*
X136915Y124997D01*
X136924Y124995D01*
X136932Y124991D01*
X137117Y124939D01*
X137302Y124886D01*
X137311Y124885D01*
X137320Y124883D01*
X137512Y124868D01*
X137704Y124853D01*
X137712Y124854D01*
X137721Y124853D01*
X137913Y124877D01*
X138103Y124900D01*
X138112Y124902D01*
X138121Y124904D01*
X138303Y124965D01*
X138486Y125025D01*
X138494Y125029D01*
X138502Y125032D01*
X138670Y125128D01*
X138837Y125222D01*
X138844Y125228D01*
X138851Y125233D01*
X139104Y125447D01*
X139570Y125913D01*
X140149Y126248D01*
X140795Y126421D01*
X142599Y126421D01*
X142599Y119380D01*
X142599Y112339D01*
X140795Y112339D01*
X140149Y112512D01*
X139570Y112847D01*
X139104Y113313D01*
X139097Y113318D01*
X139092Y113325D01*
X138943Y113445D01*
X138793Y113568D01*
X138785Y113572D01*
X138778Y113577D01*
X138609Y113665D01*
X138437Y113756D01*
X138428Y113759D01*
X138421Y113763D01*
X138237Y113816D01*
X138051Y113871D01*
X138042Y113872D01*
X138034Y113874D01*
X137843Y113890D01*
X137650Y113907D01*
X137641Y113906D01*
X137632Y113907D01*
X137443Y113885D01*
X137250Y113864D01*
X137241Y113861D01*
X137233Y113860D01*
X137050Y113801D01*
X136866Y113743D01*
X136858Y113738D01*
X136850Y113735D01*
X136681Y113640D01*
X136514Y113548D01*
X136507Y113542D01*
X136499Y113538D01*
X136354Y113412D01*
X136207Y113287D01*
X136201Y113280D01*
X136194Y113274D01*
X136077Y113122D01*
X135957Y112971D01*
X135953Y112963D01*
X135948Y112956D01*
X135861Y112783D01*
X135775Y112612D01*
X135772Y112604D01*
X135768Y112596D01*
X135718Y112407D01*
X135667Y112225D01*
X135666Y112216D01*
X135664Y112207D01*
X135637Y111876D01*
X135637Y109543D01*
X133702Y107608D01*
X131988Y105894D01*
X131983Y105887D01*
X131976Y105882D01*
X131855Y105732D01*
X131733Y105583D01*
X131729Y105575D01*
X131723Y105568D01*
X131635Y105398D01*
X131545Y105227D01*
X131542Y105218D01*
X131538Y105211D01*
X131485Y105026D01*
X131430Y104841D01*
X131429Y104832D01*
X131426Y104824D01*
X131411Y104632D01*
X131393Y104440D01*
X131394Y104431D01*
X131394Y104422D01*
X131416Y104233D01*
X131437Y104040D01*
X131439Y104031D01*
X131440Y104023D01*
X131500Y103840D01*
X131558Y103656D01*
X131563Y103648D01*
X131565Y103640D01*
X131660Y103473D01*
X131753Y103304D01*
X131759Y103297D01*
X131763Y103289D01*
X131888Y103144D01*
X132014Y102997D01*
X132021Y102991D01*
X132026Y102984D01*
X132177Y102868D01*
X132329Y102747D01*
X132338Y102743D01*
X132344Y102738D01*
X132516Y102652D01*
X132688Y102565D01*
X132697Y102562D01*
X132705Y102558D01*
X132891Y102508D01*
X133076Y102457D01*
X133085Y102456D01*
X133094Y102454D01*
X133425Y102427D01*
X134487Y102427D01*
X136802Y100112D01*
X136823Y100095D01*
X136840Y100074D01*
X136978Y99967D01*
X137114Y99857D01*
X137137Y99844D01*
X137159Y99828D01*
X137315Y99750D01*
X137469Y99668D01*
X137495Y99660D01*
X137519Y99648D01*
X137688Y99603D01*
X137855Y99553D01*
X137882Y99551D01*
X137908Y99544D01*
X138239Y99517D01*
X140354Y99517D01*
X140372Y99519D01*
G37*
%LPC*%
G36*
X49428Y14032D02*
X49428Y14032D01*
X49410Y14034D01*
X49393Y14038D01*
X49062Y14065D01*
X41989Y14065D01*
X41989Y17401D01*
X42162Y18047D01*
X42497Y18626D01*
X43048Y19177D01*
X43141Y19244D01*
X43197Y19304D01*
X43260Y19357D01*
X43334Y19451D01*
X43415Y19539D01*
X43458Y19609D01*
X43510Y19673D01*
X43564Y19780D01*
X43626Y19882D01*
X43655Y19959D01*
X43692Y20032D01*
X43724Y20148D01*
X43765Y20259D01*
X43778Y20341D01*
X43800Y20420D01*
X43809Y20539D01*
X43827Y20657D01*
X43823Y20740D01*
X43829Y20822D01*
X43814Y20940D01*
X43809Y21060D01*
X43789Y21139D01*
X43779Y21221D01*
X43741Y21334D01*
X43712Y21450D01*
X43677Y21525D01*
X43651Y21603D01*
X43591Y21706D01*
X43540Y21814D01*
X43491Y21880D01*
X43450Y21952D01*
X43351Y22068D01*
X43299Y22137D01*
X43269Y22164D01*
X43235Y22205D01*
X43005Y22434D01*
X43005Y34698D01*
X43898Y35591D01*
X44450Y35591D01*
X44468Y35593D01*
X44486Y35591D01*
X44668Y35612D01*
X44851Y35631D01*
X44868Y35636D01*
X44885Y35638D01*
X45060Y35695D01*
X45236Y35749D01*
X45251Y35757D01*
X45268Y35763D01*
X45428Y35853D01*
X45590Y35941D01*
X45603Y35952D01*
X45619Y35961D01*
X45758Y36081D01*
X45899Y36198D01*
X45910Y36212D01*
X45924Y36224D01*
X46036Y36369D01*
X46151Y36512D01*
X46159Y36528D01*
X46170Y36542D01*
X46252Y36707D01*
X46337Y36869D01*
X46342Y36886D01*
X46350Y36902D01*
X46397Y37081D01*
X46448Y37256D01*
X46450Y37274D01*
X46454Y37291D01*
X46466Y37433D01*
X48862Y39830D01*
X60476Y51444D01*
X60496Y51468D01*
X60520Y51488D01*
X60623Y51624D01*
X60731Y51755D01*
X60746Y51783D01*
X60765Y51808D01*
X60917Y52103D01*
X60917Y52104D01*
X62196Y53383D01*
X63866Y54075D01*
X65674Y54075D01*
X67344Y53383D01*
X68623Y52104D01*
X69315Y50434D01*
X69315Y48626D01*
X68623Y46956D01*
X67344Y45677D01*
X65674Y44985D01*
X63482Y44985D01*
X63456Y44983D01*
X63429Y44985D01*
X63255Y44963D01*
X63082Y44945D01*
X63056Y44938D01*
X63029Y44934D01*
X62864Y44879D01*
X62697Y44827D01*
X62673Y44814D01*
X62648Y44806D01*
X62496Y44719D01*
X62343Y44635D01*
X62322Y44618D01*
X62299Y44605D01*
X62046Y44390D01*
X55640Y37985D01*
X55629Y37971D01*
X55615Y37959D01*
X55501Y37815D01*
X55385Y37673D01*
X55377Y37657D01*
X55366Y37643D01*
X55282Y37479D01*
X55197Y37318D01*
X55191Y37300D01*
X55183Y37284D01*
X55134Y37107D01*
X55082Y36932D01*
X55080Y36914D01*
X55075Y36897D01*
X55062Y36713D01*
X55045Y36531D01*
X55047Y36513D01*
X55046Y36495D01*
X55069Y36313D01*
X55089Y36130D01*
X55094Y36113D01*
X55096Y36096D01*
X55155Y35922D01*
X55210Y35747D01*
X55219Y35731D01*
X55225Y35714D01*
X55316Y35554D01*
X55405Y35394D01*
X55417Y35381D01*
X55426Y35365D01*
X55640Y35112D01*
X56055Y34698D01*
X56055Y33646D01*
X56057Y33628D01*
X56055Y33610D01*
X56076Y33428D01*
X56095Y33245D01*
X56100Y33228D01*
X56102Y33211D01*
X56159Y33036D01*
X56213Y32860D01*
X56221Y32845D01*
X56227Y32828D01*
X56317Y32668D01*
X56405Y32506D01*
X56416Y32493D01*
X56425Y32477D01*
X56545Y32338D01*
X56662Y32197D01*
X56676Y32186D01*
X56688Y32172D01*
X56833Y32060D01*
X56976Y31945D01*
X56992Y31937D01*
X57006Y31926D01*
X57171Y31844D01*
X57333Y31759D01*
X57350Y31754D01*
X57366Y31746D01*
X57545Y31699D01*
X57720Y31648D01*
X57738Y31646D01*
X57755Y31642D01*
X58086Y31615D01*
X66337Y31615D01*
X68452Y29500D01*
X68473Y29483D01*
X68490Y29462D01*
X68628Y29355D01*
X68763Y29245D01*
X68787Y29232D01*
X68808Y29216D01*
X68965Y29138D01*
X69119Y29056D01*
X69145Y29048D01*
X69169Y29036D01*
X69338Y28991D01*
X69505Y28941D01*
X69532Y28939D01*
X69557Y28932D01*
X69888Y28905D01*
X76392Y28905D01*
X77285Y28012D01*
X77285Y20248D01*
X76392Y19355D01*
X62628Y19355D01*
X61735Y20248D01*
X61735Y23486D01*
X61733Y23504D01*
X61735Y23522D01*
X61714Y23704D01*
X61695Y23887D01*
X61690Y23904D01*
X61688Y23921D01*
X61631Y24096D01*
X61577Y24272D01*
X61569Y24287D01*
X61563Y24304D01*
X61473Y24464D01*
X61385Y24626D01*
X61374Y24639D01*
X61365Y24655D01*
X61245Y24794D01*
X61128Y24935D01*
X61114Y24946D01*
X61102Y24960D01*
X60957Y25072D01*
X60814Y25187D01*
X60798Y25195D01*
X60784Y25206D01*
X60619Y25288D01*
X60457Y25373D01*
X60440Y25378D01*
X60424Y25386D01*
X60245Y25433D01*
X60070Y25484D01*
X60052Y25486D01*
X60035Y25490D01*
X59704Y25517D01*
X58086Y25517D01*
X58068Y25515D01*
X58050Y25517D01*
X57868Y25496D01*
X57685Y25477D01*
X57668Y25472D01*
X57651Y25470D01*
X57476Y25413D01*
X57300Y25359D01*
X57285Y25351D01*
X57268Y25345D01*
X57108Y25255D01*
X56946Y25167D01*
X56933Y25156D01*
X56917Y25147D01*
X56778Y25027D01*
X56637Y24910D01*
X56626Y24896D01*
X56612Y24884D01*
X56500Y24739D01*
X56385Y24596D01*
X56377Y24580D01*
X56366Y24566D01*
X56284Y24401D01*
X56199Y24239D01*
X56194Y24222D01*
X56186Y24206D01*
X56139Y24027D01*
X56088Y23852D01*
X56086Y23834D01*
X56082Y23817D01*
X56055Y23486D01*
X56055Y22434D01*
X55825Y22205D01*
X55773Y22141D01*
X55714Y22084D01*
X55646Y21986D01*
X55570Y21893D01*
X55531Y21821D01*
X55485Y21753D01*
X55437Y21643D01*
X55381Y21537D01*
X55358Y21459D01*
X55325Y21383D01*
X55301Y21266D01*
X55267Y21152D01*
X55259Y21069D01*
X55242Y20989D01*
X55241Y20870D01*
X55230Y20751D01*
X55239Y20669D01*
X55238Y20586D01*
X55261Y20469D01*
X55274Y20350D01*
X55298Y20272D01*
X55314Y20191D01*
X55359Y20080D01*
X55395Y19966D01*
X55435Y19894D01*
X55466Y19818D01*
X55532Y19719D01*
X55590Y19614D01*
X55643Y19551D01*
X55689Y19483D01*
X55773Y19398D01*
X55850Y19307D01*
X55915Y19256D01*
X55973Y19198D01*
X56032Y19157D01*
X56563Y18626D01*
X56898Y18047D01*
X57071Y17401D01*
X57071Y14065D01*
X49998Y14065D01*
X49980Y14063D01*
X49963Y14065D01*
X49780Y14044D01*
X49598Y14025D01*
X49581Y14020D01*
X49563Y14018D01*
X49522Y14005D01*
X49428Y14032D01*
G37*
%LPD*%
G36*
X139328Y19059D02*
X139328Y19059D01*
X139410Y19057D01*
X139528Y19079D01*
X139647Y19091D01*
X139726Y19115D01*
X139806Y19129D01*
X139918Y19174D01*
X140032Y19209D01*
X140104Y19248D01*
X140181Y19278D01*
X140281Y19344D01*
X140386Y19401D01*
X140449Y19453D01*
X140518Y19498D01*
X140603Y19582D01*
X140695Y19658D01*
X140747Y19722D01*
X140805Y19780D01*
X140873Y19879D01*
X140948Y19972D01*
X140985Y20045D01*
X141032Y20113D01*
X141078Y20223D01*
X141133Y20329D01*
X141156Y20408D01*
X141188Y20484D01*
X141211Y20601D01*
X141244Y20716D01*
X141251Y20798D01*
X141267Y20879D01*
X141268Y20998D01*
X141277Y21118D01*
X141268Y21199D01*
X141268Y21281D01*
X141241Y21431D01*
X141230Y21517D01*
X141218Y21556D01*
X141208Y21608D01*
X141115Y21956D01*
X141115Y22509D01*
X149156Y22509D01*
X149173Y22510D01*
X149191Y22509D01*
X149374Y22530D01*
X149556Y22548D01*
X149573Y22554D01*
X149591Y22556D01*
X149766Y22613D01*
X149941Y22667D01*
X149957Y22675D01*
X149974Y22681D01*
X150134Y22771D01*
X150295Y22858D01*
X150309Y22870D01*
X150324Y22879D01*
X150464Y22999D01*
X150604Y23116D01*
X150616Y23130D01*
X150629Y23142D01*
X150742Y23287D01*
X150857Y23430D01*
X150865Y23446D01*
X150876Y23460D01*
X150958Y23624D01*
X151042Y23787D01*
X151047Y23804D01*
X151055Y23820D01*
X151103Y23998D01*
X151154Y24174D01*
X151155Y24192D01*
X151160Y24209D01*
X151187Y24540D01*
X151185Y24558D01*
X151187Y24575D01*
X151187Y24576D01*
X151165Y24758D01*
X151147Y24941D01*
X151142Y24958D01*
X151140Y24976D01*
X151083Y25150D01*
X151029Y25326D01*
X151020Y25341D01*
X151015Y25358D01*
X150924Y25519D01*
X150837Y25680D01*
X150826Y25693D01*
X150817Y25709D01*
X150697Y25848D01*
X150579Y25989D01*
X150565Y26000D01*
X150554Y26014D01*
X150409Y26126D01*
X150266Y26241D01*
X150250Y26250D01*
X150236Y26260D01*
X150071Y26342D01*
X149908Y26427D01*
X149891Y26432D01*
X149875Y26440D01*
X149697Y26488D01*
X149521Y26538D01*
X149504Y26540D01*
X149486Y26544D01*
X149156Y26571D01*
X141115Y26571D01*
X141115Y26722D01*
X141113Y26740D01*
X141115Y26758D01*
X141094Y26940D01*
X141075Y27123D01*
X141070Y27140D01*
X141068Y27157D01*
X141011Y27332D01*
X140957Y27508D01*
X140949Y27523D01*
X140943Y27540D01*
X140853Y27700D01*
X140765Y27862D01*
X140754Y27875D01*
X140745Y27891D01*
X140625Y28030D01*
X140508Y28171D01*
X140494Y28182D01*
X140482Y28196D01*
X140337Y28308D01*
X140194Y28423D01*
X140178Y28431D01*
X140164Y28442D01*
X139999Y28524D01*
X139837Y28609D01*
X139820Y28614D01*
X139804Y28622D01*
X139625Y28669D01*
X139450Y28720D01*
X139432Y28722D01*
X139415Y28726D01*
X139093Y28752D01*
X134942Y32904D01*
X134921Y32921D01*
X134903Y32942D01*
X134765Y33049D01*
X134630Y33159D01*
X134606Y33172D01*
X134585Y33188D01*
X134428Y33266D01*
X134274Y33348D01*
X134249Y33356D01*
X134225Y33368D01*
X134055Y33413D01*
X133888Y33463D01*
X133862Y33465D01*
X133836Y33472D01*
X133505Y33499D01*
X123596Y33499D01*
X123528Y33492D01*
X123459Y33495D01*
X123328Y33473D01*
X123195Y33459D01*
X123130Y33439D01*
X123062Y33428D01*
X122938Y33380D01*
X122810Y33341D01*
X122750Y33309D01*
X122686Y33284D01*
X122573Y33213D01*
X122456Y33149D01*
X122404Y33106D01*
X122346Y33069D01*
X122249Y32977D01*
X122147Y32892D01*
X122104Y32838D01*
X122055Y32791D01*
X121978Y32682D01*
X121895Y32578D01*
X121863Y32517D01*
X121824Y32461D01*
X121771Y32339D01*
X121709Y32221D01*
X121690Y32155D01*
X121663Y32092D01*
X121635Y31962D01*
X121598Y31834D01*
X121592Y31765D01*
X121578Y31699D01*
X121576Y31566D01*
X121565Y31432D01*
X121573Y31365D01*
X121572Y31296D01*
X121596Y31165D01*
X121612Y31033D01*
X121633Y30968D01*
X121645Y30900D01*
X121695Y30777D01*
X121737Y30650D01*
X121770Y30590D01*
X121796Y30527D01*
X121869Y30415D01*
X121935Y30299D01*
X121979Y30247D01*
X122017Y30190D01*
X122141Y30060D01*
X122198Y29995D01*
X122220Y29977D01*
X122246Y29950D01*
X133923Y19564D01*
X134059Y19465D01*
X134193Y19362D01*
X134222Y19347D01*
X134249Y19328D01*
X134402Y19258D01*
X134553Y19182D01*
X134585Y19174D01*
X134615Y19160D01*
X134778Y19122D01*
X134942Y19078D01*
X134978Y19075D01*
X135007Y19068D01*
X135093Y19065D01*
X135273Y19051D01*
X139246Y19051D01*
X139328Y19059D01*
G37*
%LPC*%
G36*
X284866Y82565D02*
X284866Y82565D01*
X281825Y83825D01*
X279497Y86153D01*
X278237Y89194D01*
X278237Y92486D01*
X279497Y95527D01*
X281825Y97855D01*
X284866Y99115D01*
X288158Y99115D01*
X291199Y97855D01*
X293527Y95527D01*
X294787Y92486D01*
X294787Y89194D01*
X293527Y86153D01*
X291199Y83825D01*
X288158Y82565D01*
X284866Y82565D01*
G37*
%LPD*%
%LPC*%
G36*
X299168Y38371D02*
X299168Y38371D01*
X299219Y38691D01*
X299707Y40194D01*
X300424Y41602D01*
X301353Y42881D01*
X302471Y43999D01*
X303750Y44928D01*
X305158Y45645D01*
X306661Y46133D01*
X308222Y46381D01*
X314481Y46381D01*
X314481Y38371D01*
X299168Y38371D01*
G37*
%LPD*%
%LPC*%
G36*
X299168Y173371D02*
X299168Y173371D01*
X299219Y173691D01*
X299707Y175194D01*
X300424Y176602D01*
X301353Y177881D01*
X302471Y178999D01*
X303750Y179928D01*
X305158Y180645D01*
X306661Y181133D01*
X308222Y181381D01*
X314481Y181381D01*
X314481Y173371D01*
X299168Y173371D01*
G37*
%LPD*%
%LPC*%
G36*
X314471Y105871D02*
X314471Y105871D01*
X314471Y112130D01*
X314719Y113691D01*
X315207Y115194D01*
X315924Y116602D01*
X316853Y117881D01*
X317971Y118999D01*
X319250Y119928D01*
X320658Y120645D01*
X322161Y121133D01*
X322481Y121184D01*
X322481Y105871D01*
X314471Y105871D01*
G37*
%LPD*%
%LPC*%
G36*
X308222Y161299D02*
X308222Y161299D01*
X306661Y161547D01*
X305158Y162035D01*
X303750Y162752D01*
X302471Y163681D01*
X301353Y164799D01*
X300424Y166078D01*
X299707Y167486D01*
X299219Y168989D01*
X299168Y169309D01*
X314481Y169309D01*
X314481Y161299D01*
X308222Y161299D01*
G37*
%LPD*%
%LPC*%
G36*
X308222Y26299D02*
X308222Y26299D01*
X306661Y26547D01*
X305158Y27035D01*
X303750Y27752D01*
X302471Y28681D01*
X301353Y29799D01*
X300424Y31078D01*
X299707Y32486D01*
X299219Y33989D01*
X299168Y34309D01*
X314481Y34309D01*
X314481Y26299D01*
X308222Y26299D01*
G37*
%LPD*%
%LPC*%
G36*
X322161Y86547D02*
X322161Y86547D01*
X320658Y87035D01*
X319250Y87752D01*
X317971Y88681D01*
X316853Y89799D01*
X315924Y91078D01*
X315207Y92486D01*
X314719Y93989D01*
X314471Y95550D01*
X314471Y101809D01*
X322481Y101809D01*
X322481Y86496D01*
X322161Y86547D01*
G37*
%LPD*%
%LPC*%
G36*
X263761Y67591D02*
X263761Y67591D01*
X270550Y67591D01*
X270122Y66273D01*
X269458Y64971D01*
X268599Y63787D01*
X267565Y62753D01*
X266381Y61894D01*
X265079Y61230D01*
X263761Y60802D01*
X263761Y67591D01*
G37*
%LPD*%
%LPC*%
G36*
X257945Y61230D02*
X257945Y61230D01*
X256643Y61894D01*
X255459Y62753D01*
X254425Y63787D01*
X253566Y64971D01*
X252902Y66273D01*
X252474Y67591D01*
X259263Y67591D01*
X259263Y60802D01*
X257945Y61230D01*
G37*
%LPD*%
%LPC*%
G36*
X81719Y16661D02*
X81719Y16661D01*
X81719Y18215D01*
X81892Y18861D01*
X82227Y19440D01*
X82700Y19913D01*
X83279Y20248D01*
X83925Y20421D01*
X88479Y20421D01*
X88479Y16661D01*
X81719Y16661D01*
G37*
%LPD*%
%LPC*%
G36*
X83925Y8839D02*
X83925Y8839D01*
X83279Y9012D01*
X82700Y9347D01*
X82227Y9820D01*
X81892Y10399D01*
X81719Y11045D01*
X81719Y12599D01*
X88479Y12599D01*
X88479Y8839D01*
X83925Y8839D01*
G37*
%LPD*%
%LPC*%
G36*
X193951Y121411D02*
X193951Y121411D01*
X193951Y126421D01*
X195755Y126421D01*
X196401Y126248D01*
X196980Y125913D01*
X197453Y125440D01*
X197788Y124861D01*
X197961Y124215D01*
X197961Y121411D01*
X193951Y121411D01*
G37*
%LPD*%
%LPC*%
G36*
X194713Y61975D02*
X194713Y61975D01*
X194713Y66985D01*
X196517Y66985D01*
X197163Y66812D01*
X197742Y66477D01*
X198215Y66004D01*
X198550Y65425D01*
X198723Y64779D01*
X198723Y61975D01*
X194713Y61975D01*
G37*
%LPD*%
%LPC*%
G36*
X165259Y183641D02*
X165259Y183641D01*
X165259Y186445D01*
X165432Y187091D01*
X165767Y187670D01*
X166240Y188143D01*
X166819Y188478D01*
X167465Y188651D01*
X169269Y188651D01*
X169269Y183641D01*
X165259Y183641D01*
G37*
%LPD*%
%LPC*%
G36*
X137827Y61975D02*
X137827Y61975D01*
X137827Y64779D01*
X138000Y65425D01*
X138335Y66004D01*
X138808Y66477D01*
X139387Y66812D01*
X140033Y66985D01*
X141837Y66985D01*
X141837Y61975D01*
X137827Y61975D01*
G37*
%LPD*%
%LPC*%
G36*
X193951Y112339D02*
X193951Y112339D01*
X193951Y117349D01*
X197961Y117349D01*
X197961Y114545D01*
X197788Y113899D01*
X197453Y113320D01*
X196980Y112847D01*
X196401Y112512D01*
X195755Y112339D01*
X193951Y112339D01*
G37*
%LPD*%
%LPC*%
G36*
X144421Y175839D02*
X144421Y175839D01*
X144421Y180849D01*
X148431Y180849D01*
X148431Y178045D01*
X148258Y177399D01*
X147923Y176820D01*
X147450Y176347D01*
X146871Y176012D01*
X146225Y175839D01*
X144421Y175839D01*
G37*
%LPD*%
%LPC*%
G36*
X194713Y52903D02*
X194713Y52903D01*
X194713Y57913D01*
X198723Y57913D01*
X198723Y55109D01*
X198550Y54463D01*
X198215Y53884D01*
X197742Y53411D01*
X197163Y53076D01*
X196517Y52903D01*
X194713Y52903D01*
G37*
%LPD*%
%LPC*%
G36*
X140033Y52903D02*
X140033Y52903D01*
X139387Y53076D01*
X138808Y53411D01*
X138335Y53884D01*
X138000Y54463D01*
X137827Y55109D01*
X137827Y57913D01*
X141837Y57913D01*
X141837Y52903D01*
X140033Y52903D01*
G37*
%LPD*%
%LPC*%
G36*
X190441Y79439D02*
X190441Y79439D01*
X190441Y82199D01*
X196451Y82199D01*
X196451Y81645D01*
X196278Y80999D01*
X195943Y80420D01*
X195470Y79947D01*
X194891Y79612D01*
X194245Y79439D01*
X190441Y79439D01*
G37*
%LPD*%
%LPC*%
G36*
X189171Y139129D02*
X189171Y139129D01*
X189171Y141889D01*
X195181Y141889D01*
X195181Y141335D01*
X195008Y140689D01*
X194673Y140110D01*
X194200Y139637D01*
X193621Y139302D01*
X192975Y139129D01*
X189171Y139129D01*
G37*
%LPD*%
%LPC*%
G36*
X143575Y79439D02*
X143575Y79439D01*
X142929Y79612D01*
X142350Y79947D01*
X141877Y80420D01*
X141542Y80999D01*
X141369Y81645D01*
X141369Y82199D01*
X147379Y82199D01*
X147379Y79439D01*
X143575Y79439D01*
G37*
%LPD*%
%LPC*%
G36*
X142305Y139129D02*
X142305Y139129D01*
X141659Y139302D01*
X141080Y139637D01*
X140607Y140110D01*
X140272Y140689D01*
X140099Y141335D01*
X140099Y141889D01*
X146109Y141889D01*
X146109Y139129D01*
X142305Y139129D01*
G37*
%LPD*%
D10*
X34682Y163656D02*
X17918Y163656D01*
X17918Y46656D02*
X34682Y46656D01*
D11*
X50800Y105156D03*
X50800Y95156D03*
X50800Y85156D03*
X50800Y115156D03*
X50800Y125156D03*
X50800Y135156D03*
X50800Y75156D03*
X50800Y145156D03*
X50800Y65156D03*
D12*
X286512Y116840D03*
D13*
X286512Y90840D03*
X286512Y69840D03*
X261512Y116840D03*
X286512Y137840D03*
X261512Y69840D03*
X261512Y94840D03*
X261512Y137840D03*
D14*
X309012Y171340D02*
X324012Y171340D01*
X324012Y36340D02*
X309012Y36340D01*
X324512Y96340D02*
X324512Y111340D01*
D15*
X49530Y28566D03*
X49530Y11566D03*
X109220Y28566D03*
X109220Y11566D03*
D16*
X90510Y14630D03*
X90510Y33630D03*
X69510Y24130D03*
D17*
X149156Y44040D03*
X149156Y37540D03*
X149156Y31040D03*
X149156Y24540D03*
X188156Y24540D03*
X188156Y31040D03*
X188156Y37540D03*
X188156Y44040D03*
D18*
X107832Y116140D03*
X107832Y108140D03*
X107832Y100140D03*
X107832Y92140D03*
X124832Y92140D03*
X124832Y100140D03*
X124832Y108140D03*
X124832Y116140D03*
D19*
X205678Y176666D03*
X213678Y176666D03*
X221678Y176666D03*
X229678Y176666D03*
X229678Y193666D03*
X221678Y193666D03*
X213678Y193666D03*
X205678Y193666D03*
D20*
X156868Y59944D03*
X143868Y59944D03*
X179682Y59944D03*
X192682Y59944D03*
D21*
X114046Y66698D03*
X114046Y53698D03*
X97282Y66444D03*
X97282Y53444D03*
D20*
X129390Y182880D03*
X142390Y182880D03*
X184300Y181610D03*
X171300Y181610D03*
D17*
X149410Y103730D03*
X149410Y97230D03*
X149410Y90730D03*
X149410Y84230D03*
X188410Y84230D03*
X188410Y90730D03*
X188410Y97230D03*
X188410Y103730D03*
D20*
X178920Y119380D03*
X191920Y119380D03*
X157630Y119380D03*
X144630Y119380D03*
D17*
X148140Y163420D03*
X148140Y156920D03*
X148140Y150420D03*
X148140Y143920D03*
X187140Y143920D03*
X187140Y150420D03*
X187140Y156920D03*
X187140Y163420D03*
D22*
X69624Y75156D02*
X50800Y75156D01*
X69624Y75156D02*
X69850Y74930D01*
D23*
X69850Y74930D03*
X57150Y173990D03*
X64770Y49530D03*
D22*
X62874Y49530D01*
X49530Y36186D01*
X49530Y28566D01*
X65074Y28566D01*
X69510Y24130D01*
X307848Y120142D02*
X307848Y139192D01*
X307848Y120142D02*
X304546Y116840D01*
X286512Y116840D01*
X80010Y196850D02*
X57150Y173990D01*
X80010Y196850D02*
X184522Y196850D01*
X205678Y193666D02*
X213678Y193666D01*
X221678Y193666D01*
X229678Y193666D01*
X253374Y193666D02*
X307848Y139192D01*
X253374Y193666D02*
X229678Y193666D01*
X205678Y193666D02*
X184522Y193666D01*
X179682Y52514D02*
X188156Y44040D01*
X179682Y52514D02*
X179682Y59944D01*
X176022Y63604D01*
X176022Y163830D02*
X176022Y171840D01*
X176022Y104140D02*
X176022Y63604D01*
X176022Y171840D02*
X184522Y180340D01*
X184522Y181388D01*
X184300Y181610D01*
X184300Y193444D01*
X184522Y193666D01*
X184522Y196850D01*
X186730Y163830D02*
X176022Y163830D01*
X186730Y163830D02*
X187140Y163420D01*
X188000Y104140D02*
X176022Y104140D01*
X188000Y104140D02*
X188410Y103730D01*
X176022Y104140D02*
X176022Y116482D01*
X178920Y119380D01*
X176022Y122278D01*
X176022Y163830D01*
D23*
X69850Y135890D03*
D22*
X69116Y135156D01*
X50800Y135156D01*
X49530Y11566D02*
X87446Y11566D01*
X90510Y14630D01*
X108696Y14630D01*
X109220Y11566D01*
X50800Y135156D02*
X38636Y135156D01*
X36830Y133350D01*
D23*
X36830Y133350D03*
X36830Y11430D03*
D22*
X36966Y11566D01*
X49530Y11566D01*
X109220Y11566D02*
X110696Y10414D01*
X193196Y10414D02*
X252622Y69840D01*
X261512Y69840D01*
X193196Y10414D02*
X110696Y10414D01*
D23*
X154432Y182118D03*
X132080Y27940D03*
D22*
X135480Y24540D01*
X149156Y24540D01*
D23*
X132080Y48260D03*
D22*
X143764Y59944D01*
X143868Y59944D01*
X154940Y181610D02*
X171300Y181610D01*
X154940Y181610D02*
X154432Y182118D01*
D23*
X193040Y129540D03*
X144780Y129540D03*
X194310Y69850D03*
X144780Y69850D03*
D22*
X144780Y79600D01*
X149410Y84230D01*
X194310Y78330D02*
X194310Y69850D01*
X194310Y78330D02*
X188410Y84230D01*
X194310Y69850D02*
X194310Y61572D01*
X192682Y59944D01*
X144780Y60856D02*
X144780Y69850D01*
X144780Y60856D02*
X143868Y59944D01*
X144780Y119530D02*
X144780Y129540D01*
X144780Y119530D02*
X144630Y119380D01*
X193040Y120500D02*
X193040Y129540D01*
X193040Y120500D02*
X191920Y119380D01*
X193040Y129540D02*
X187140Y135440D01*
X187140Y143920D01*
X144780Y140560D02*
X144780Y129540D01*
X144780Y140560D02*
X148140Y143920D01*
X143152Y182118D02*
X154432Y182118D01*
X143152Y182118D02*
X142390Y182880D01*
X194310Y69850D02*
X261502Y69850D01*
X261512Y69840D01*
D24*
X82484Y125156D02*
X50800Y125156D01*
X82484Y125156D02*
X83566Y126238D01*
D23*
X83566Y126238D03*
X83312Y84836D03*
D24*
X106036Y84836D01*
X139504Y37540D02*
X149156Y37540D01*
X139504Y37540D02*
X135694Y41350D01*
X114046Y66698D02*
X114046Y76826D01*
X106036Y84836D01*
X127560Y41350D02*
X135694Y41350D01*
X127560Y41350D02*
X122936Y45974D01*
X122936Y64008D01*
X120246Y66698D01*
X114046Y66698D01*
D23*
X118364Y40386D03*
X83566Y74168D03*
D24*
X72578Y85156D01*
X50800Y85156D01*
X118364Y40386D02*
X122964Y35786D01*
X135294Y35786D01*
X140040Y31040D02*
X149156Y31040D01*
X140040Y31040D02*
X135294Y35786D01*
X89558Y74168D02*
X83566Y74168D01*
X89558Y74168D02*
X97282Y66444D01*
D23*
X231140Y156718D03*
D24*
X231140Y175204D02*
X229678Y176666D01*
X231140Y175204D02*
X231140Y156718D01*
X206190Y149300D02*
X198570Y156920D01*
X187140Y156920D01*
X206190Y149300D02*
X223722Y149300D01*
X231140Y156718D01*
X232664Y116840D02*
X261512Y116840D01*
X232664Y116840D02*
X215646Y99822D01*
X215646Y96774D01*
D23*
X215646Y96774D03*
X212852Y156972D03*
D24*
X212852Y175840D02*
X213678Y176666D01*
X212852Y175840D02*
X212852Y156972D01*
X188410Y97230D02*
X188866Y96774D01*
X215646Y96774D01*
X230222Y94840D02*
X261512Y94840D01*
X230222Y94840D02*
X226568Y91186D01*
D23*
X226568Y91186D03*
X211328Y56134D03*
D24*
X194258Y37540D02*
X188156Y37540D01*
X211328Y54610D02*
X211328Y56134D01*
X211328Y54610D02*
X194258Y37540D01*
X242062Y150622D02*
X271018Y150622D01*
X283800Y137840D01*
X286512Y137840D01*
X233934Y142494D02*
X225044Y142494D01*
X233934Y142494D02*
X242062Y150622D01*
D23*
X225044Y142494D03*
D24*
X222250Y162814D02*
X221678Y163386D01*
X221678Y176666D01*
D23*
X222250Y162814D03*
D24*
X224738Y142800D02*
X225044Y142494D01*
X224738Y142800D02*
X204920Y142800D01*
X197300Y150420D01*
X187140Y150420D01*
X274310Y82042D02*
X286512Y69840D01*
X274310Y82042D02*
X209550Y82042D01*
D23*
X209550Y82042D03*
D24*
X205994Y176350D02*
X205678Y176666D01*
X205994Y176350D02*
X205994Y164084D01*
D23*
X205994Y164084D03*
D24*
X200862Y90730D02*
X209550Y82042D01*
X200862Y90730D02*
X188410Y90730D01*
D23*
X205232Y37338D03*
D24*
X198934Y31040D01*
X188156Y31040D01*
X69756Y95156D02*
X50800Y95156D01*
X69756Y95156D02*
X69850Y95250D01*
D23*
X69850Y95250D03*
X76708Y117348D03*
D24*
X106624Y117348D02*
X107832Y116140D01*
X106624Y117348D02*
X76708Y117348D01*
X76010Y108140D02*
X107832Y108140D01*
X68994Y115156D02*
X50800Y115156D01*
X68994Y115156D02*
X76010Y108140D01*
X89726Y100140D02*
X107832Y100140D01*
X89726Y100140D02*
X89154Y99568D01*
D23*
X89154Y99568D03*
X74930Y144780D03*
D24*
X51176Y144780D01*
X50800Y145156D01*
X124832Y100140D02*
X133540Y100140D01*
X136450Y97230D02*
X149410Y97230D01*
X136450Y97230D02*
X133540Y100140D01*
X69603Y105156D02*
X50800Y105156D01*
X69603Y105156D02*
X82619Y92140D01*
X107832Y92140D01*
D22*
X104156Y33630D02*
X109220Y28566D01*
X104156Y33630D02*
X90510Y33630D01*
X161290Y42672D02*
X161290Y24540D01*
X161290Y16002D01*
X161544Y42418D02*
X161544Y44040D01*
X149156Y44040D01*
X161290Y24540D02*
X188156Y24540D01*
X161544Y42418D02*
X161290Y42672D01*
X109220Y33900D02*
X109220Y28566D01*
X109220Y33900D02*
X97282Y48226D01*
X119215Y28566D02*
X133340Y16002D01*
X119215Y28566D02*
X109220Y28566D01*
X133340Y16002D02*
X161290Y16002D01*
X97282Y48226D02*
X97282Y53444D01*
X97536Y53698D01*
X114046Y53698D01*
X161544Y60960D02*
X161544Y44040D01*
X161544Y60960D02*
X161544Y104140D01*
X161544Y119380D01*
X161544Y155956D01*
X154080Y163420D02*
X148140Y163420D01*
X154080Y163420D02*
X161544Y155956D01*
X161544Y119380D02*
X157630Y119380D01*
X161544Y104140D02*
X161134Y103730D01*
X149410Y103730D01*
X161544Y60960D02*
X160528Y59944D01*
X156868Y59944D01*
X129390Y174550D02*
X129390Y182880D01*
X140520Y163420D02*
X148140Y163420D01*
X140520Y163420D02*
X129390Y174550D01*
D24*
X131000Y108140D02*
X124832Y108140D01*
X131000Y108140D02*
X133350Y110490D01*
X133350Y147320D01*
X136450Y150420D01*
X148140Y150420D01*
X124832Y150232D02*
X124832Y116140D01*
X131520Y156920D02*
X148140Y156920D01*
X131520Y156920D02*
X124832Y150232D01*
X124832Y92140D02*
X133920Y92140D01*
X135330Y90730D02*
X149410Y90730D01*
X135330Y90730D02*
X133920Y92140D01*
M02*
