G04 EAGLE Gerber RS-274X export*
G75*
%MOMM*%
%FSLAX34Y34*%
%LPD*%
%INBottom Copper*%
%IPPOS*%
%AMOC8*
5,1,8,0,0,1.08239X$1,22.5*%
G01*
%ADD10C,0.177800*%
%ADD11C,1.676400*%
%ADD12R,1.350000X1.350000*%
%ADD13C,1.350000*%
%ADD14C,1.500000*%
%ADD15C,0.604000*%
%ADD16C,0.304800*%
%ADD17C,0.152400*%

G36*
X334708Y3814D02*
X334708Y3814D01*
X334737Y3812D01*
X334908Y3834D01*
X335079Y3851D01*
X335107Y3859D01*
X335136Y3863D01*
X335300Y3918D01*
X335464Y3969D01*
X335490Y3983D01*
X335518Y3992D01*
X335667Y4079D01*
X335818Y4161D01*
X335841Y4179D01*
X335866Y4194D01*
X335995Y4308D01*
X336127Y4418D01*
X336146Y4441D01*
X336168Y4461D01*
X336272Y4598D01*
X336380Y4732D01*
X336393Y4758D01*
X336411Y4782D01*
X336486Y4937D01*
X336565Y5089D01*
X336573Y5118D01*
X336586Y5144D01*
X336629Y5311D01*
X336677Y5476D01*
X336679Y5506D01*
X336686Y5534D01*
X336710Y5865D01*
X336434Y30165D01*
X336421Y30280D01*
X336418Y30395D01*
X336399Y30479D01*
X336390Y30566D01*
X336355Y30675D01*
X336329Y30787D01*
X336293Y30866D01*
X336267Y30949D01*
X336211Y31050D01*
X336164Y31155D01*
X336113Y31225D01*
X336071Y31301D01*
X335997Y31388D01*
X335930Y31482D01*
X335866Y31541D01*
X335810Y31607D01*
X335720Y31678D01*
X335635Y31757D01*
X335562Y31802D01*
X335493Y31856D01*
X335391Y31908D01*
X335293Y31968D01*
X335212Y31998D01*
X335134Y32037D01*
X335023Y32068D01*
X334915Y32108D01*
X334829Y32121D01*
X334746Y32144D01*
X334631Y32153D01*
X334517Y32170D01*
X334431Y32167D01*
X334344Y32173D01*
X334230Y32158D01*
X334115Y32153D01*
X334031Y32132D01*
X333945Y32121D01*
X333836Y32084D01*
X333724Y32057D01*
X333646Y32020D01*
X333564Y31992D01*
X333464Y31934D01*
X333360Y31885D01*
X333290Y31834D01*
X333215Y31790D01*
X333129Y31714D01*
X333037Y31646D01*
X332979Y31581D01*
X332914Y31524D01*
X332844Y31432D01*
X332767Y31347D01*
X332713Y31259D01*
X332670Y31203D01*
X332642Y31143D01*
X332609Y31090D01*
X331671Y29799D01*
X330553Y28681D01*
X329274Y27752D01*
X327866Y27035D01*
X326363Y26547D01*
X324802Y26299D01*
X318543Y26299D01*
X318543Y34309D01*
X334333Y34309D01*
X334350Y34310D01*
X334368Y34309D01*
X334550Y34330D01*
X334733Y34348D01*
X334750Y34354D01*
X334768Y34356D01*
X334942Y34413D01*
X335118Y34467D01*
X335134Y34475D01*
X335151Y34481D01*
X335311Y34571D01*
X335472Y34658D01*
X335486Y34670D01*
X335501Y34679D01*
X335640Y34798D01*
X335781Y34916D01*
X335793Y34930D01*
X335806Y34942D01*
X335919Y35087D01*
X336034Y35230D01*
X336042Y35246D01*
X336053Y35260D01*
X336135Y35425D01*
X336219Y35587D01*
X336224Y35604D01*
X336232Y35620D01*
X336280Y35798D01*
X336331Y35974D01*
X336332Y35992D01*
X336337Y36009D01*
X336364Y36340D01*
X336362Y36358D01*
X336363Y36375D01*
X336363Y36376D01*
X336342Y36558D01*
X336324Y36741D01*
X336319Y36758D01*
X336317Y36776D01*
X336260Y36950D01*
X336206Y37126D01*
X336197Y37141D01*
X336192Y37158D01*
X336101Y37319D01*
X336014Y37480D01*
X336003Y37493D01*
X335994Y37509D01*
X335874Y37648D01*
X335756Y37789D01*
X335742Y37800D01*
X335731Y37814D01*
X335586Y37926D01*
X335442Y38041D01*
X335427Y38050D01*
X335413Y38060D01*
X335248Y38142D01*
X335085Y38227D01*
X335068Y38232D01*
X335052Y38240D01*
X334874Y38288D01*
X334698Y38338D01*
X334680Y38340D01*
X334663Y38344D01*
X334333Y38371D01*
X318543Y38371D01*
X318543Y46381D01*
X324802Y46381D01*
X326363Y46133D01*
X327866Y45645D01*
X329274Y44928D01*
X330553Y43999D01*
X331671Y42881D01*
X332616Y41580D01*
X332736Y41445D01*
X332852Y41309D01*
X332869Y41295D01*
X332884Y41279D01*
X333028Y41171D01*
X333169Y41060D01*
X333188Y41050D01*
X333206Y41037D01*
X333368Y40959D01*
X333528Y40878D01*
X333549Y40873D01*
X333569Y40863D01*
X333743Y40819D01*
X333917Y40771D01*
X333938Y40770D01*
X333959Y40765D01*
X334139Y40756D01*
X334318Y40743D01*
X334340Y40746D01*
X334361Y40745D01*
X334539Y40772D01*
X334717Y40795D01*
X334738Y40802D01*
X334760Y40805D01*
X334928Y40866D01*
X335099Y40924D01*
X335118Y40935D01*
X335138Y40942D01*
X335292Y41036D01*
X335447Y41126D01*
X335463Y41140D01*
X335482Y41151D01*
X335614Y41273D01*
X335749Y41392D01*
X335762Y41410D01*
X335778Y41424D01*
X335883Y41570D01*
X335992Y41713D01*
X336002Y41733D01*
X336014Y41750D01*
X336088Y41913D01*
X336167Y42076D01*
X336173Y42097D01*
X336182Y42117D01*
X336222Y42291D01*
X336267Y42466D01*
X336269Y42490D01*
X336273Y42509D01*
X336276Y42587D01*
X336291Y42797D01*
X335772Y88527D01*
X335754Y88684D01*
X335744Y88841D01*
X335732Y88883D01*
X335727Y88927D01*
X335680Y89077D01*
X335638Y89229D01*
X335618Y89269D01*
X335605Y89311D01*
X335529Y89448D01*
X335458Y89589D01*
X335431Y89624D01*
X335409Y89663D01*
X335307Y89782D01*
X335210Y89907D01*
X335177Y89935D01*
X335148Y89969D01*
X335024Y90066D01*
X334905Y90169D01*
X334866Y90190D01*
X334831Y90218D01*
X334691Y90289D01*
X334554Y90366D01*
X334512Y90379D01*
X334472Y90399D01*
X334320Y90441D01*
X334170Y90489D01*
X334126Y90495D01*
X334084Y90506D01*
X333927Y90517D01*
X333770Y90535D01*
X333726Y90531D01*
X333682Y90535D01*
X333526Y90514D01*
X333369Y90501D01*
X333327Y90489D01*
X333283Y90483D01*
X333133Y90433D01*
X332983Y90389D01*
X332944Y90368D01*
X332902Y90354D01*
X332765Y90275D01*
X332626Y90202D01*
X332591Y90174D01*
X332553Y90152D01*
X332435Y90048D01*
X332313Y89949D01*
X332280Y89911D01*
X332251Y89886D01*
X332233Y89862D01*
X331053Y88681D01*
X329774Y87752D01*
X328366Y87035D01*
X326863Y86547D01*
X326543Y86496D01*
X326543Y103840D01*
X326543Y121184D01*
X326863Y121133D01*
X328366Y120645D01*
X329774Y119928D01*
X331053Y118999D01*
X331952Y118099D01*
X331968Y118086D01*
X331982Y118071D01*
X332124Y117959D01*
X332264Y117844D01*
X332282Y117835D01*
X332298Y117822D01*
X332461Y117740D01*
X332620Y117656D01*
X332639Y117650D01*
X332658Y117641D01*
X332832Y117592D01*
X333006Y117541D01*
X333026Y117539D01*
X333046Y117534D01*
X333225Y117521D01*
X333406Y117504D01*
X333427Y117507D01*
X333447Y117505D01*
X333626Y117528D01*
X333807Y117548D01*
X333826Y117554D01*
X333847Y117557D01*
X334018Y117615D01*
X334191Y117669D01*
X334209Y117679D01*
X334228Y117686D01*
X334385Y117777D01*
X334543Y117864D01*
X334559Y117877D01*
X334576Y117888D01*
X334712Y118008D01*
X334850Y118125D01*
X334863Y118141D01*
X334878Y118154D01*
X334987Y118299D01*
X335100Y118441D01*
X335109Y118459D01*
X335121Y118475D01*
X335200Y118638D01*
X335282Y118800D01*
X335287Y118819D01*
X335296Y118838D01*
X335341Y119013D01*
X335390Y119187D01*
X335391Y119208D01*
X335396Y119228D01*
X335420Y119559D01*
X334925Y163173D01*
X334904Y163365D01*
X334882Y163568D01*
X334881Y163570D01*
X334881Y163573D01*
X334818Y163768D01*
X334760Y163951D01*
X334759Y163954D01*
X334758Y163956D01*
X334662Y164130D01*
X334565Y164304D01*
X334564Y164306D01*
X334562Y164308D01*
X334437Y164456D01*
X334305Y164611D01*
X334303Y164612D01*
X334301Y164614D01*
X334146Y164736D01*
X333989Y164860D01*
X333987Y164862D01*
X333984Y164863D01*
X333805Y164954D01*
X333630Y165043D01*
X333628Y165043D01*
X333625Y165045D01*
X333433Y165098D01*
X333242Y165151D01*
X333239Y165151D01*
X333237Y165152D01*
X333044Y165165D01*
X332841Y165180D01*
X332838Y165180D01*
X332835Y165180D01*
X332636Y165154D01*
X332441Y165130D01*
X332439Y165129D01*
X332436Y165129D01*
X332245Y165064D01*
X332059Y165001D01*
X332057Y165000D01*
X332055Y164999D01*
X331881Y164898D01*
X331711Y164801D01*
X331708Y164799D01*
X331706Y164797D01*
X331691Y164784D01*
X331458Y164586D01*
X330553Y163681D01*
X329274Y162752D01*
X327866Y162035D01*
X326363Y161547D01*
X324802Y161299D01*
X318543Y161299D01*
X318543Y171340D01*
X318543Y181381D01*
X324802Y181381D01*
X326363Y181133D01*
X327866Y180645D01*
X329274Y179928D01*
X330553Y178999D01*
X331270Y178282D01*
X331285Y178269D01*
X331299Y178254D01*
X331441Y178142D01*
X331581Y178027D01*
X331599Y178017D01*
X331615Y178005D01*
X331777Y177923D01*
X331937Y177838D01*
X331956Y177833D01*
X331975Y177823D01*
X332149Y177775D01*
X332323Y177724D01*
X332343Y177722D01*
X332363Y177716D01*
X332543Y177704D01*
X332724Y177687D01*
X332744Y177689D01*
X332765Y177688D01*
X332944Y177711D01*
X333124Y177731D01*
X333143Y177737D01*
X333164Y177739D01*
X333335Y177798D01*
X333508Y177852D01*
X333526Y177862D01*
X333545Y177869D01*
X333702Y177959D01*
X333860Y178047D01*
X333876Y178060D01*
X333894Y178071D01*
X334030Y178191D01*
X334167Y178307D01*
X334180Y178323D01*
X334195Y178337D01*
X334305Y178482D01*
X334417Y178623D01*
X334426Y178642D01*
X334438Y178658D01*
X334517Y178821D01*
X334599Y178982D01*
X334605Y179002D01*
X334614Y179021D01*
X334659Y179197D01*
X334707Y179370D01*
X334709Y179391D01*
X334714Y179410D01*
X334737Y179741D01*
X334459Y204241D01*
X334458Y204247D01*
X334459Y204254D01*
X334436Y204446D01*
X334415Y204641D01*
X334413Y204647D01*
X334412Y204653D01*
X334352Y204838D01*
X334292Y205025D01*
X334289Y205030D01*
X334287Y205036D01*
X334191Y205207D01*
X334096Y205377D01*
X334092Y205381D01*
X334089Y205387D01*
X333961Y205535D01*
X333835Y205683D01*
X333830Y205687D01*
X333826Y205692D01*
X333673Y205810D01*
X333519Y205932D01*
X333513Y205935D01*
X333508Y205938D01*
X333335Y206024D01*
X333159Y206113D01*
X333153Y206115D01*
X333147Y206118D01*
X332957Y206169D01*
X332771Y206220D01*
X332765Y206221D01*
X332759Y206222D01*
X332428Y206249D01*
X37265Y206249D01*
X37254Y206248D01*
X37242Y206249D01*
X37053Y206228D01*
X36864Y206209D01*
X36853Y206206D01*
X36842Y206205D01*
X36662Y206147D01*
X36479Y206091D01*
X36469Y206086D01*
X36459Y206082D01*
X36293Y205990D01*
X36125Y205899D01*
X36117Y205892D01*
X36107Y205887D01*
X35961Y205763D01*
X35816Y205642D01*
X35809Y205633D01*
X35800Y205626D01*
X35682Y205475D01*
X35564Y205328D01*
X35558Y205318D01*
X35551Y205309D01*
X35465Y205138D01*
X35378Y204971D01*
X35375Y204960D01*
X35370Y204950D01*
X35319Y204766D01*
X35267Y204584D01*
X35266Y204572D01*
X35263Y204562D01*
X35234Y204231D01*
X35050Y175597D01*
X35053Y175568D01*
X35050Y175539D01*
X35071Y175369D01*
X35087Y175196D01*
X35096Y175168D01*
X35099Y175140D01*
X35153Y174976D01*
X35203Y174810D01*
X35217Y174785D01*
X35226Y174757D01*
X35311Y174607D01*
X35392Y174455D01*
X35411Y174433D01*
X35425Y174408D01*
X35539Y174277D01*
X35648Y174144D01*
X35671Y174126D01*
X35690Y174104D01*
X35827Y173999D01*
X35960Y173890D01*
X35986Y173876D01*
X36009Y173859D01*
X36304Y173707D01*
X40294Y172055D01*
X43081Y169268D01*
X44589Y165627D01*
X44589Y161685D01*
X43081Y158044D01*
X40294Y155257D01*
X36565Y153713D01*
X36528Y153709D01*
X36517Y153706D01*
X36506Y153705D01*
X36325Y153647D01*
X36143Y153591D01*
X36133Y153586D01*
X36122Y153582D01*
X35956Y153490D01*
X35789Y153399D01*
X35780Y153392D01*
X35770Y153387D01*
X35625Y153263D01*
X35479Y153142D01*
X35472Y153133D01*
X35464Y153126D01*
X35346Y152975D01*
X35227Y152828D01*
X35222Y152818D01*
X35215Y152809D01*
X35129Y152638D01*
X35042Y152471D01*
X35038Y152460D01*
X35033Y152450D01*
X34982Y152266D01*
X34930Y152084D01*
X34929Y152072D01*
X34926Y152062D01*
X34897Y151731D01*
X34300Y58607D01*
X34302Y58583D01*
X34300Y58558D01*
X34321Y58383D01*
X34337Y58206D01*
X34344Y58183D01*
X34347Y58159D01*
X34402Y57990D01*
X34453Y57820D01*
X34465Y57799D01*
X34472Y57776D01*
X34559Y57621D01*
X34643Y57465D01*
X34658Y57446D01*
X34670Y57425D01*
X34786Y57291D01*
X34898Y57154D01*
X34917Y57139D01*
X34933Y57120D01*
X35073Y57012D01*
X35210Y56900D01*
X35232Y56889D01*
X35251Y56874D01*
X35410Y56795D01*
X35567Y56712D01*
X35590Y56705D01*
X35612Y56694D01*
X35783Y56648D01*
X35953Y56598D01*
X35977Y56596D01*
X36001Y56590D01*
X36331Y56563D01*
X36653Y56563D01*
X40294Y55055D01*
X43081Y52268D01*
X44589Y48627D01*
X44589Y44685D01*
X43081Y41044D01*
X40294Y38257D01*
X40116Y38184D01*
X36653Y36749D01*
X36178Y36749D01*
X36167Y36748D01*
X36156Y36749D01*
X35967Y36728D01*
X35778Y36709D01*
X35767Y36706D01*
X35756Y36705D01*
X35575Y36647D01*
X35393Y36591D01*
X35383Y36586D01*
X35372Y36582D01*
X35206Y36490D01*
X35039Y36399D01*
X35030Y36392D01*
X35020Y36387D01*
X34875Y36263D01*
X34729Y36142D01*
X34722Y36133D01*
X34714Y36126D01*
X34595Y35975D01*
X34477Y35828D01*
X34472Y35818D01*
X34465Y35809D01*
X34378Y35638D01*
X34292Y35471D01*
X34288Y35460D01*
X34283Y35450D01*
X34232Y35264D01*
X34180Y35084D01*
X34179Y35072D01*
X34176Y35062D01*
X34147Y34731D01*
X33962Y5855D01*
X33964Y5831D01*
X33962Y5806D01*
X33983Y5631D01*
X33999Y5454D01*
X34006Y5431D01*
X34009Y5407D01*
X34064Y5238D01*
X34115Y5068D01*
X34126Y5047D01*
X34134Y5024D01*
X34221Y4869D01*
X34304Y4713D01*
X34320Y4694D01*
X34332Y4673D01*
X34448Y4539D01*
X34560Y4402D01*
X34579Y4387D01*
X34595Y4368D01*
X34735Y4260D01*
X34872Y4148D01*
X34894Y4137D01*
X34913Y4122D01*
X35072Y4043D01*
X35228Y3960D01*
X35252Y3953D01*
X35274Y3942D01*
X35445Y3896D01*
X35615Y3846D01*
X35639Y3844D01*
X35662Y3838D01*
X35993Y3811D01*
X334679Y3811D01*
X334708Y3814D01*
G37*
%LPC*%
G36*
X204328Y32793D02*
X204328Y32793D01*
X202658Y33485D01*
X201379Y34764D01*
X200687Y36434D01*
X200687Y38242D01*
X201379Y39912D01*
X202658Y41191D01*
X204328Y41883D01*
X206209Y41883D01*
X206236Y41885D01*
X206263Y41883D01*
X206437Y41905D01*
X206610Y41923D01*
X206636Y41930D01*
X206662Y41934D01*
X206828Y41989D01*
X206995Y42041D01*
X207019Y42054D01*
X207044Y42062D01*
X207195Y42149D01*
X207349Y42233D01*
X207369Y42250D01*
X207393Y42263D01*
X207646Y42478D01*
X213290Y48122D01*
X213295Y48129D01*
X213302Y48134D01*
X213423Y48284D01*
X213545Y48433D01*
X213549Y48441D01*
X213555Y48448D01*
X213643Y48618D01*
X213733Y48789D01*
X213736Y48798D01*
X213740Y48805D01*
X213793Y48990D01*
X213848Y49175D01*
X213849Y49184D01*
X213852Y49192D01*
X213867Y49383D01*
X213885Y49576D01*
X213884Y49585D01*
X213884Y49594D01*
X213862Y49783D01*
X213841Y49976D01*
X213839Y49985D01*
X213838Y49993D01*
X213778Y50175D01*
X213720Y50360D01*
X213715Y50368D01*
X213713Y50376D01*
X213618Y50545D01*
X213525Y50712D01*
X213519Y50719D01*
X213515Y50727D01*
X213389Y50873D01*
X213264Y51019D01*
X213257Y51025D01*
X213252Y51032D01*
X213100Y51149D01*
X212949Y51269D01*
X212941Y51273D01*
X212934Y51278D01*
X212761Y51364D01*
X212590Y51451D01*
X212581Y51454D01*
X212573Y51458D01*
X212387Y51508D01*
X212202Y51559D01*
X212193Y51560D01*
X212184Y51562D01*
X211853Y51589D01*
X210424Y51589D01*
X208754Y52281D01*
X207475Y53560D01*
X206783Y55230D01*
X206783Y57038D01*
X207475Y58708D01*
X208754Y59987D01*
X210424Y60679D01*
X211797Y60679D01*
X211824Y60681D01*
X211851Y60679D01*
X212025Y60701D01*
X212198Y60719D01*
X212224Y60726D01*
X212250Y60730D01*
X212416Y60785D01*
X212583Y60837D01*
X212607Y60850D01*
X212632Y60858D01*
X212784Y60945D01*
X212937Y61029D01*
X212957Y61046D01*
X212981Y61059D01*
X213234Y61274D01*
X217590Y65630D01*
X217607Y65651D01*
X217628Y65668D01*
X217735Y65806D01*
X217845Y65942D01*
X217858Y65965D01*
X217874Y65987D01*
X217952Y66143D01*
X218034Y66297D01*
X218042Y66323D01*
X218054Y66347D01*
X218099Y66516D01*
X218149Y66683D01*
X218151Y66710D01*
X218158Y66736D01*
X218185Y67067D01*
X218185Y86037D01*
X221428Y89280D01*
X221445Y89301D01*
X221466Y89318D01*
X221573Y89456D01*
X221683Y89592D01*
X221696Y89615D01*
X221712Y89637D01*
X221790Y89793D01*
X221872Y89947D01*
X221880Y89973D01*
X221892Y89997D01*
X221937Y90166D01*
X221987Y90333D01*
X221989Y90360D01*
X221996Y90386D01*
X222023Y90717D01*
X222023Y91820D01*
X222022Y91829D01*
X222023Y91838D01*
X222003Y92028D01*
X221983Y92221D01*
X221981Y92229D01*
X221980Y92238D01*
X221922Y92422D01*
X221865Y92606D01*
X221861Y92614D01*
X221858Y92622D01*
X221765Y92790D01*
X221673Y92960D01*
X221668Y92967D01*
X221663Y92974D01*
X221539Y93121D01*
X221416Y93269D01*
X221409Y93275D01*
X221403Y93281D01*
X221252Y93401D01*
X221102Y93521D01*
X221094Y93525D01*
X221087Y93531D01*
X220915Y93618D01*
X220745Y93707D01*
X220736Y93709D01*
X220728Y93713D01*
X220543Y93765D01*
X220358Y93818D01*
X220349Y93819D01*
X220340Y93821D01*
X220148Y93835D01*
X219956Y93851D01*
X219948Y93850D01*
X219939Y93851D01*
X219747Y93827D01*
X219557Y93804D01*
X219548Y93801D01*
X219539Y93800D01*
X219357Y93739D01*
X219174Y93679D01*
X219166Y93675D01*
X219158Y93672D01*
X218990Y93576D01*
X218823Y93481D01*
X218816Y93476D01*
X218809Y93471D01*
X218556Y93256D01*
X218220Y92921D01*
X216550Y92229D01*
X214742Y92229D01*
X213072Y92921D01*
X211748Y94244D01*
X211741Y94250D01*
X211736Y94257D01*
X211585Y94378D01*
X211437Y94500D01*
X211429Y94504D01*
X211422Y94509D01*
X211252Y94598D01*
X211081Y94688D01*
X211072Y94691D01*
X211065Y94695D01*
X210880Y94748D01*
X210695Y94803D01*
X210686Y94804D01*
X210678Y94806D01*
X210487Y94822D01*
X210294Y94839D01*
X210285Y94838D01*
X210276Y94839D01*
X210087Y94817D01*
X209894Y94796D01*
X209885Y94793D01*
X209877Y94792D01*
X209695Y94733D01*
X209510Y94674D01*
X209502Y94670D01*
X209494Y94667D01*
X209327Y94573D01*
X209158Y94480D01*
X209151Y94474D01*
X209143Y94469D01*
X208998Y94344D01*
X208851Y94219D01*
X208845Y94212D01*
X208838Y94206D01*
X208722Y94056D01*
X208601Y93903D01*
X208597Y93895D01*
X208592Y93888D01*
X208506Y93717D01*
X208419Y93544D01*
X208416Y93536D01*
X208412Y93528D01*
X208362Y93342D01*
X208311Y93156D01*
X208310Y93147D01*
X208308Y93139D01*
X208281Y92808D01*
X208281Y88618D01*
X208283Y88600D01*
X208281Y88582D01*
X208302Y88400D01*
X208321Y88217D01*
X208326Y88200D01*
X208328Y88183D01*
X208385Y88008D01*
X208439Y87832D01*
X208447Y87817D01*
X208453Y87800D01*
X208543Y87640D01*
X208631Y87478D01*
X208642Y87465D01*
X208651Y87449D01*
X208771Y87310D01*
X208888Y87169D01*
X208902Y87158D01*
X208914Y87144D01*
X209059Y87032D01*
X209202Y86917D01*
X209218Y86909D01*
X209232Y86898D01*
X209397Y86816D01*
X209559Y86731D01*
X209576Y86726D01*
X209592Y86718D01*
X209771Y86671D01*
X209946Y86620D01*
X209964Y86618D01*
X209981Y86614D01*
X210312Y86587D01*
X210454Y86587D01*
X212124Y85895D01*
X213403Y84616D01*
X214095Y82946D01*
X214095Y81138D01*
X213403Y79468D01*
X212124Y78189D01*
X210454Y77497D01*
X208646Y77497D01*
X206976Y78189D01*
X205697Y79468D01*
X205005Y81138D01*
X205005Y82003D01*
X205003Y82030D01*
X205005Y82057D01*
X204983Y82231D01*
X204965Y82404D01*
X204958Y82430D01*
X204954Y82456D01*
X204899Y82622D01*
X204847Y82789D01*
X204834Y82813D01*
X204826Y82838D01*
X204739Y82990D01*
X204655Y83143D01*
X204638Y83163D01*
X204625Y83187D01*
X204410Y83440D01*
X203707Y84143D01*
X203707Y159102D01*
X203705Y159129D01*
X203707Y159155D01*
X203685Y159329D01*
X203667Y159503D01*
X203660Y159528D01*
X203656Y159555D01*
X203601Y159721D01*
X203549Y159888D01*
X203536Y159911D01*
X203528Y159937D01*
X203441Y160088D01*
X203357Y160242D01*
X203340Y160262D01*
X203327Y160285D01*
X203112Y160538D01*
X202141Y161510D01*
X201449Y163180D01*
X201449Y164988D01*
X202141Y166658D01*
X203420Y167937D01*
X205090Y168629D01*
X206898Y168629D01*
X208568Y167937D01*
X209847Y166658D01*
X210539Y164988D01*
X210539Y163548D01*
X210541Y163530D01*
X210539Y163512D01*
X210560Y163330D01*
X210579Y163147D01*
X210584Y163130D01*
X210586Y163113D01*
X210643Y162938D01*
X210697Y162762D01*
X210705Y162747D01*
X210711Y162730D01*
X210801Y162570D01*
X210889Y162408D01*
X210900Y162395D01*
X210909Y162379D01*
X211029Y162240D01*
X211146Y162099D01*
X211160Y162088D01*
X211172Y162074D01*
X211317Y161962D01*
X211460Y161847D01*
X211476Y161839D01*
X211490Y161828D01*
X211655Y161746D01*
X211817Y161661D01*
X211834Y161656D01*
X211850Y161648D01*
X212029Y161601D01*
X212204Y161550D01*
X212222Y161548D01*
X212239Y161544D01*
X212570Y161517D01*
X213756Y161517D01*
X214897Y161044D01*
X214910Y161040D01*
X214921Y161034D01*
X215102Y160982D01*
X215282Y160928D01*
X215295Y160927D01*
X215308Y160923D01*
X215497Y160907D01*
X215683Y160890D01*
X215696Y160891D01*
X215710Y160890D01*
X215896Y160912D01*
X216083Y160931D01*
X216096Y160935D01*
X216109Y160937D01*
X216289Y160995D01*
X216468Y161051D01*
X216479Y161057D01*
X216492Y161062D01*
X216657Y161155D01*
X216821Y161244D01*
X216831Y161253D01*
X216843Y161260D01*
X216985Y161382D01*
X217129Y161504D01*
X217137Y161514D01*
X217148Y161523D01*
X217262Y161671D01*
X217380Y161818D01*
X217386Y161830D01*
X217394Y161841D01*
X217478Y162009D01*
X217564Y162176D01*
X217568Y162189D01*
X217574Y162201D01*
X217623Y162384D01*
X217674Y162564D01*
X217675Y162577D01*
X217678Y162590D01*
X217705Y162921D01*
X217705Y163718D01*
X218397Y165388D01*
X219676Y166667D01*
X221346Y167359D01*
X223154Y167359D01*
X224824Y166667D01*
X226103Y165388D01*
X226795Y163718D01*
X226795Y162877D01*
X226796Y162864D01*
X226795Y162851D01*
X226816Y162664D01*
X226835Y162477D01*
X226839Y162464D01*
X226840Y162451D01*
X226898Y162271D01*
X226953Y162092D01*
X226959Y162080D01*
X226963Y162067D01*
X227055Y161903D01*
X227145Y161738D01*
X227153Y161727D01*
X227160Y161716D01*
X227283Y161572D01*
X227402Y161428D01*
X227413Y161420D01*
X227421Y161410D01*
X227570Y161294D01*
X227716Y161176D01*
X227728Y161170D01*
X227738Y161162D01*
X227907Y161077D01*
X228073Y160991D01*
X228086Y160987D01*
X228098Y160981D01*
X228280Y160931D01*
X228460Y160879D01*
X228474Y160878D01*
X228487Y160875D01*
X228675Y160862D01*
X228862Y160846D01*
X228875Y160848D01*
X228888Y160847D01*
X229076Y160871D01*
X229261Y160893D01*
X229274Y160897D01*
X229287Y160899D01*
X229603Y161001D01*
X230236Y161263D01*
X232044Y161263D01*
X233714Y160571D01*
X234993Y159292D01*
X235685Y157622D01*
X235685Y156249D01*
X235687Y156222D01*
X235685Y156195D01*
X235707Y156021D01*
X235725Y155848D01*
X235732Y155822D01*
X235736Y155796D01*
X235791Y155630D01*
X235843Y155463D01*
X235856Y155439D01*
X235864Y155414D01*
X235951Y155262D01*
X236035Y155109D01*
X236052Y155089D01*
X236065Y155065D01*
X236280Y154812D01*
X238858Y152234D01*
X238879Y152217D01*
X238896Y152196D01*
X239034Y152089D01*
X239170Y151979D01*
X239193Y151966D01*
X239215Y151950D01*
X239371Y151872D01*
X239525Y151790D01*
X239551Y151782D01*
X239575Y151770D01*
X239744Y151725D01*
X239911Y151675D01*
X239938Y151673D01*
X239964Y151666D01*
X240295Y151639D01*
X269425Y151639D01*
X275845Y145219D01*
X275845Y143779D01*
X275846Y143770D01*
X275845Y143761D01*
X275866Y143569D01*
X275885Y143378D01*
X275887Y143370D01*
X275888Y143361D01*
X275946Y143178D01*
X276003Y142993D01*
X276007Y142985D01*
X276010Y142977D01*
X276103Y142809D01*
X276195Y142639D01*
X276200Y142632D01*
X276205Y142625D01*
X276329Y142478D01*
X276452Y142330D01*
X276459Y142324D01*
X276465Y142318D01*
X276616Y142199D01*
X276766Y142078D01*
X276774Y142074D01*
X276781Y142068D01*
X276954Y141980D01*
X277123Y141892D01*
X277132Y141890D01*
X277140Y141886D01*
X277326Y141834D01*
X277510Y141781D01*
X277519Y141780D01*
X277528Y141778D01*
X277721Y141764D01*
X277912Y141748D01*
X277920Y141749D01*
X277929Y141748D01*
X278122Y141773D01*
X278311Y141795D01*
X278320Y141798D01*
X278329Y141799D01*
X278512Y141860D01*
X278694Y141920D01*
X278702Y141924D01*
X278710Y141927D01*
X278876Y142022D01*
X279045Y142118D01*
X279052Y142123D01*
X279059Y142128D01*
X279312Y142343D01*
X281825Y144855D01*
X284866Y146115D01*
X288158Y146115D01*
X291199Y144855D01*
X293527Y142527D01*
X294787Y139486D01*
X294787Y136194D01*
X293527Y133153D01*
X291199Y130825D01*
X288158Y129565D01*
X284866Y129565D01*
X281825Y130825D01*
X279312Y133337D01*
X279305Y133343D01*
X279300Y133350D01*
X279150Y133470D01*
X279001Y133593D01*
X278993Y133597D01*
X278986Y133602D01*
X278816Y133691D01*
X278645Y133781D01*
X278636Y133784D01*
X278629Y133788D01*
X278444Y133841D01*
X278259Y133896D01*
X278250Y133897D01*
X278242Y133899D01*
X278051Y133915D01*
X277858Y133932D01*
X277849Y133931D01*
X277840Y133932D01*
X277651Y133910D01*
X277458Y133889D01*
X277449Y133886D01*
X277441Y133885D01*
X277259Y133826D01*
X277074Y133767D01*
X277066Y133763D01*
X277058Y133760D01*
X276888Y133665D01*
X276722Y133573D01*
X276715Y133567D01*
X276707Y133562D01*
X276561Y133436D01*
X276415Y133312D01*
X276409Y133305D01*
X276402Y133299D01*
X276285Y133148D01*
X276165Y132996D01*
X276161Y132988D01*
X276156Y132981D01*
X276070Y132809D01*
X275983Y132637D01*
X275980Y132629D01*
X275976Y132621D01*
X275926Y132435D01*
X275875Y132249D01*
X275874Y132240D01*
X275872Y132232D01*
X275845Y131901D01*
X275845Y126733D01*
X275846Y126724D01*
X275845Y126715D01*
X275866Y126524D01*
X275885Y126332D01*
X275887Y126324D01*
X275888Y126315D01*
X275947Y126130D01*
X276003Y125947D01*
X276007Y125940D01*
X276010Y125931D01*
X276103Y125762D01*
X276195Y125593D01*
X276200Y125586D01*
X276205Y125579D01*
X276330Y125431D01*
X276452Y125284D01*
X276459Y125279D01*
X276465Y125272D01*
X276616Y125152D01*
X276766Y125032D01*
X276774Y125028D01*
X276781Y125022D01*
X276954Y124934D01*
X277123Y124846D01*
X277132Y124844D01*
X277140Y124840D01*
X277326Y124788D01*
X277510Y124735D01*
X277519Y124734D01*
X277528Y124732D01*
X277720Y124718D01*
X277912Y124702D01*
X277920Y124703D01*
X277929Y124702D01*
X278121Y124727D01*
X278311Y124749D01*
X278320Y124752D01*
X278329Y124753D01*
X278510Y124814D01*
X278694Y124874D01*
X278702Y124878D01*
X278710Y124881D01*
X278876Y124977D01*
X279045Y125072D01*
X279052Y125077D01*
X279059Y125082D01*
X279098Y125115D01*
X293894Y125115D01*
X294787Y124222D01*
X294787Y109458D01*
X293894Y108565D01*
X279090Y108565D01*
X279001Y108638D01*
X278993Y108643D01*
X278986Y108648D01*
X278816Y108737D01*
X278645Y108827D01*
X278637Y108830D01*
X278629Y108834D01*
X278443Y108887D01*
X278259Y108942D01*
X278250Y108943D01*
X278242Y108945D01*
X278050Y108961D01*
X277858Y108978D01*
X277849Y108977D01*
X277840Y108978D01*
X277650Y108956D01*
X277458Y108935D01*
X277449Y108932D01*
X277441Y108931D01*
X277257Y108871D01*
X277074Y108813D01*
X277066Y108809D01*
X277058Y108806D01*
X276889Y108711D01*
X276722Y108619D01*
X276715Y108613D01*
X276707Y108608D01*
X276562Y108483D01*
X276415Y108358D01*
X276409Y108351D01*
X276402Y108345D01*
X276285Y108194D01*
X276165Y108042D01*
X276161Y108034D01*
X276156Y108027D01*
X276070Y107855D01*
X275983Y107683D01*
X275980Y107675D01*
X275976Y107667D01*
X275926Y107479D01*
X275875Y107295D01*
X275874Y107287D01*
X275872Y107278D01*
X275845Y106947D01*
X275845Y105583D01*
X275847Y105556D01*
X275845Y105529D01*
X275867Y105355D01*
X275885Y105182D01*
X275892Y105156D01*
X275896Y105130D01*
X275951Y104964D01*
X276003Y104797D01*
X276016Y104773D01*
X276024Y104748D01*
X276111Y104597D01*
X276195Y104443D01*
X276212Y104423D01*
X276225Y104399D01*
X276440Y104146D01*
X281506Y99080D01*
X281523Y99066D01*
X281538Y99049D01*
X281679Y98938D01*
X281817Y98825D01*
X281837Y98815D01*
X281855Y98801D01*
X282015Y98720D01*
X282173Y98636D01*
X282194Y98630D01*
X282214Y98620D01*
X282387Y98573D01*
X282559Y98522D01*
X282581Y98520D01*
X282603Y98514D01*
X282781Y98501D01*
X282960Y98485D01*
X282982Y98488D01*
X283004Y98486D01*
X283182Y98509D01*
X283360Y98529D01*
X283381Y98535D01*
X283404Y98538D01*
X283719Y98640D01*
X284866Y99115D01*
X288158Y99115D01*
X291199Y97855D01*
X293527Y95527D01*
X294787Y92486D01*
X294787Y89194D01*
X293527Y86153D01*
X291199Y83825D01*
X288158Y82565D01*
X284866Y82565D01*
X281825Y83825D01*
X279497Y86153D01*
X278237Y89194D01*
X278237Y92486D01*
X278712Y93633D01*
X278719Y93654D01*
X278729Y93674D01*
X278777Y93846D01*
X278829Y94018D01*
X278831Y94040D01*
X278837Y94062D01*
X278850Y94241D01*
X278867Y94419D01*
X278865Y94441D01*
X278866Y94463D01*
X278844Y94641D01*
X278825Y94819D01*
X278819Y94841D01*
X278816Y94863D01*
X278759Y95033D01*
X278705Y95204D01*
X278695Y95223D01*
X278688Y95244D01*
X278598Y95399D01*
X278512Y95557D01*
X278498Y95574D01*
X278487Y95593D01*
X278272Y95846D01*
X273206Y100912D01*
X271271Y102847D01*
X271271Y109993D01*
X271270Y110002D01*
X271271Y110011D01*
X271250Y110203D01*
X271231Y110394D01*
X271229Y110402D01*
X271228Y110411D01*
X271170Y110594D01*
X271113Y110779D01*
X271109Y110787D01*
X271106Y110795D01*
X271013Y110963D01*
X270921Y111133D01*
X270916Y111140D01*
X270911Y111147D01*
X270786Y111295D01*
X270664Y111442D01*
X270657Y111448D01*
X270651Y111454D01*
X270499Y111574D01*
X270350Y111694D01*
X270342Y111698D01*
X270335Y111704D01*
X270163Y111791D01*
X269993Y111880D01*
X269984Y111882D01*
X269976Y111886D01*
X269790Y111938D01*
X269606Y111991D01*
X269597Y111992D01*
X269588Y111994D01*
X269396Y112008D01*
X269204Y112024D01*
X269196Y112023D01*
X269187Y112024D01*
X268994Y111999D01*
X268805Y111977D01*
X268796Y111974D01*
X268787Y111973D01*
X268604Y111912D01*
X268422Y111852D01*
X268414Y111848D01*
X268406Y111845D01*
X268240Y111750D01*
X268071Y111654D01*
X268064Y111649D01*
X268057Y111644D01*
X267804Y111429D01*
X266199Y109825D01*
X263158Y108565D01*
X259866Y108565D01*
X256825Y109825D01*
X254497Y112153D01*
X253237Y115194D01*
X253237Y118486D01*
X254497Y121527D01*
X256825Y123855D01*
X259866Y125115D01*
X263158Y125115D01*
X266199Y123855D01*
X267804Y122251D01*
X267811Y122245D01*
X267816Y122238D01*
X267966Y122118D01*
X268115Y121995D01*
X268123Y121991D01*
X268130Y121986D01*
X268300Y121897D01*
X268471Y121807D01*
X268480Y121804D01*
X268487Y121800D01*
X268672Y121747D01*
X268857Y121692D01*
X268866Y121691D01*
X268874Y121689D01*
X269065Y121673D01*
X269258Y121656D01*
X269267Y121657D01*
X269276Y121656D01*
X269465Y121678D01*
X269658Y121699D01*
X269667Y121702D01*
X269675Y121703D01*
X269857Y121762D01*
X270042Y121821D01*
X270050Y121825D01*
X270058Y121828D01*
X270225Y121922D01*
X270394Y122015D01*
X270401Y122021D01*
X270409Y122026D01*
X270554Y122151D01*
X270701Y122276D01*
X270707Y122283D01*
X270714Y122289D01*
X270830Y122439D01*
X270951Y122592D01*
X270955Y122600D01*
X270960Y122607D01*
X271046Y122778D01*
X271133Y122951D01*
X271136Y122959D01*
X271140Y122967D01*
X271190Y123153D01*
X271241Y123339D01*
X271242Y123348D01*
X271244Y123356D01*
X271271Y123687D01*
X271271Y130993D01*
X271270Y131002D01*
X271271Y131011D01*
X271250Y131203D01*
X271231Y131394D01*
X271229Y131402D01*
X271228Y131411D01*
X271170Y131593D01*
X271113Y131779D01*
X271109Y131787D01*
X271106Y131795D01*
X271014Y131963D01*
X270921Y132133D01*
X270916Y132140D01*
X270911Y132147D01*
X270786Y132295D01*
X270664Y132442D01*
X270657Y132448D01*
X270651Y132454D01*
X270500Y132574D01*
X270350Y132694D01*
X270342Y132698D01*
X270335Y132704D01*
X270163Y132791D01*
X269993Y132880D01*
X269984Y132882D01*
X269976Y132886D01*
X269790Y132938D01*
X269606Y132991D01*
X269597Y132992D01*
X269588Y132994D01*
X269396Y133008D01*
X269204Y133024D01*
X269196Y133023D01*
X269187Y133024D01*
X268994Y132999D01*
X268805Y132977D01*
X268796Y132974D01*
X268787Y132973D01*
X268604Y132912D01*
X268422Y132852D01*
X268414Y132848D01*
X268406Y132845D01*
X268240Y132750D01*
X268071Y132654D01*
X268064Y132649D01*
X268057Y132644D01*
X267804Y132429D01*
X266199Y130825D01*
X263158Y129565D01*
X259866Y129565D01*
X258719Y130040D01*
X258698Y130047D01*
X258678Y130057D01*
X258505Y130105D01*
X258334Y130157D01*
X258312Y130159D01*
X258290Y130165D01*
X258111Y130178D01*
X257933Y130195D01*
X257911Y130193D01*
X257889Y130194D01*
X257711Y130172D01*
X257533Y130153D01*
X257512Y130147D01*
X257489Y130144D01*
X257320Y130087D01*
X257148Y130033D01*
X257129Y130023D01*
X257108Y130016D01*
X256952Y129926D01*
X256795Y129840D01*
X256778Y129826D01*
X256759Y129815D01*
X256506Y129600D01*
X244690Y117784D01*
X244673Y117763D01*
X244652Y117746D01*
X244545Y117608D01*
X244435Y117472D01*
X244422Y117449D01*
X244406Y117427D01*
X244328Y117271D01*
X244246Y117117D01*
X244238Y117091D01*
X244226Y117067D01*
X244181Y116898D01*
X244131Y116731D01*
X244129Y116704D01*
X244122Y116678D01*
X244095Y116347D01*
X244095Y72459D01*
X210372Y38736D01*
X210355Y38715D01*
X210334Y38698D01*
X210227Y38560D01*
X210117Y38424D01*
X210104Y38401D01*
X210088Y38379D01*
X210010Y38223D01*
X209928Y38069D01*
X209920Y38043D01*
X209908Y38019D01*
X209863Y37850D01*
X209813Y37683D01*
X209811Y37656D01*
X209804Y37630D01*
X209777Y37299D01*
X209777Y36434D01*
X209085Y34764D01*
X207806Y33485D01*
X206136Y32793D01*
X204328Y32793D01*
G37*
%LPD*%
%LPC*%
G36*
X117460Y35841D02*
X117460Y35841D01*
X115790Y36533D01*
X114511Y37812D01*
X113819Y39482D01*
X113819Y40855D01*
X113817Y40882D01*
X113819Y40909D01*
X113797Y41083D01*
X113779Y41256D01*
X113772Y41282D01*
X113768Y41308D01*
X113713Y41473D01*
X113661Y41641D01*
X113648Y41665D01*
X113640Y41690D01*
X113553Y41842D01*
X113469Y41995D01*
X113452Y42015D01*
X113439Y42039D01*
X113224Y42292D01*
X86436Y69080D01*
X86418Y69094D01*
X86404Y69111D01*
X86263Y69222D01*
X86124Y69335D01*
X86104Y69346D01*
X86087Y69360D01*
X85927Y69440D01*
X85769Y69524D01*
X85747Y69530D01*
X85727Y69540D01*
X85554Y69588D01*
X85383Y69639D01*
X85360Y69641D01*
X85339Y69647D01*
X85160Y69659D01*
X84982Y69675D01*
X84959Y69673D01*
X84937Y69674D01*
X84760Y69651D01*
X84581Y69632D01*
X84560Y69625D01*
X84547Y69623D01*
X82662Y69623D01*
X80992Y70315D01*
X79713Y71594D01*
X79021Y73264D01*
X79021Y75072D01*
X79713Y76742D01*
X80909Y77939D01*
X80921Y77952D01*
X80934Y77964D01*
X81049Y78109D01*
X81165Y78250D01*
X81173Y78266D01*
X81184Y78280D01*
X81267Y78444D01*
X81353Y78606D01*
X81358Y78623D01*
X81366Y78639D01*
X81416Y78816D01*
X81468Y78992D01*
X81470Y79010D01*
X81474Y79027D01*
X81488Y79210D01*
X81504Y79393D01*
X81502Y79411D01*
X81504Y79428D01*
X81481Y79610D01*
X81461Y79793D01*
X81456Y79810D01*
X81453Y79828D01*
X81395Y80001D01*
X81339Y80177D01*
X81331Y80193D01*
X81325Y80209D01*
X81234Y80368D01*
X81145Y80529D01*
X81133Y80543D01*
X81124Y80558D01*
X80909Y80811D01*
X79459Y82262D01*
X78767Y83932D01*
X78767Y85740D01*
X79459Y87410D01*
X80684Y88636D01*
X80701Y88656D01*
X80722Y88674D01*
X80829Y88812D01*
X80939Y88947D01*
X80952Y88971D01*
X80968Y88992D01*
X81046Y89149D01*
X81128Y89303D01*
X81136Y89328D01*
X81148Y89352D01*
X81193Y89522D01*
X81243Y89689D01*
X81245Y89715D01*
X81252Y89741D01*
X81279Y90072D01*
X81279Y111282D01*
X81278Y111296D01*
X81279Y111309D01*
X81258Y111495D01*
X81239Y111683D01*
X81235Y111696D01*
X81234Y111709D01*
X81177Y111887D01*
X81121Y112068D01*
X81115Y112080D01*
X81111Y112092D01*
X81019Y112257D01*
X80929Y112422D01*
X80921Y112432D01*
X80914Y112444D01*
X80791Y112588D01*
X80672Y112731D01*
X80661Y112740D01*
X80653Y112750D01*
X80504Y112866D01*
X80358Y112983D01*
X80346Y112990D01*
X80336Y112998D01*
X80166Y113083D01*
X80001Y113169D01*
X79988Y113173D01*
X79976Y113179D01*
X79794Y113229D01*
X79614Y113280D01*
X79600Y113281D01*
X79587Y113285D01*
X79401Y113298D01*
X79212Y113313D01*
X79199Y113312D01*
X79186Y113313D01*
X78999Y113288D01*
X78813Y113266D01*
X78800Y113262D01*
X78787Y113260D01*
X78471Y113159D01*
X77612Y112803D01*
X76239Y112803D01*
X76212Y112801D01*
X76185Y112803D01*
X76011Y112781D01*
X75838Y112763D01*
X75812Y112756D01*
X75786Y112752D01*
X75620Y112697D01*
X75453Y112645D01*
X75429Y112632D01*
X75404Y112624D01*
X75252Y112537D01*
X75099Y112453D01*
X75079Y112436D01*
X75055Y112423D01*
X74802Y112208D01*
X72732Y110138D01*
X72715Y110117D01*
X72694Y110100D01*
X72587Y109962D01*
X72477Y109826D01*
X72464Y109803D01*
X72448Y109781D01*
X72370Y109625D01*
X72288Y109471D01*
X72280Y109445D01*
X72268Y109421D01*
X72223Y109252D01*
X72173Y109085D01*
X72171Y109058D01*
X72164Y109032D01*
X72137Y108701D01*
X72137Y100232D01*
X72139Y100205D01*
X72137Y100179D01*
X72159Y100005D01*
X72177Y99831D01*
X72184Y99806D01*
X72188Y99779D01*
X72243Y99613D01*
X72295Y99446D01*
X72308Y99423D01*
X72316Y99397D01*
X72403Y99246D01*
X72487Y99092D01*
X72504Y99072D01*
X72517Y99049D01*
X72732Y98796D01*
X73703Y97824D01*
X74395Y96154D01*
X74395Y94346D01*
X73703Y92676D01*
X72424Y91397D01*
X70754Y90705D01*
X68946Y90705D01*
X67276Y91397D01*
X65997Y92676D01*
X65305Y94346D01*
X65305Y96154D01*
X65997Y97824D01*
X66968Y98796D01*
X66985Y98816D01*
X67006Y98834D01*
X67113Y98972D01*
X67223Y99107D01*
X67236Y99131D01*
X67252Y99152D01*
X67330Y99309D01*
X67412Y99463D01*
X67420Y99488D01*
X67432Y99512D01*
X67477Y99682D01*
X67527Y99849D01*
X67529Y99875D01*
X67536Y99901D01*
X67563Y100232D01*
X67563Y111437D01*
X71568Y115442D01*
X71585Y115463D01*
X71606Y115480D01*
X71713Y115618D01*
X71823Y115754D01*
X71836Y115777D01*
X71852Y115799D01*
X71930Y115955D01*
X72012Y116109D01*
X72020Y116135D01*
X72032Y116159D01*
X72077Y116328D01*
X72127Y116495D01*
X72129Y116522D01*
X72136Y116548D01*
X72163Y116879D01*
X72163Y118252D01*
X72855Y119922D01*
X74134Y121201D01*
X75535Y121781D01*
X75804Y121893D01*
X77407Y121893D01*
X77420Y121894D01*
X77433Y121893D01*
X77620Y121914D01*
X77807Y121933D01*
X77820Y121937D01*
X77833Y121938D01*
X78012Y121995D01*
X78192Y122051D01*
X78204Y122057D01*
X78217Y122061D01*
X78381Y122153D01*
X78546Y122243D01*
X78557Y122251D01*
X78568Y122258D01*
X78712Y122380D01*
X78856Y122500D01*
X78864Y122511D01*
X78874Y122519D01*
X78990Y122668D01*
X79108Y122814D01*
X79114Y122826D01*
X79122Y122836D01*
X79207Y123005D01*
X79293Y123171D01*
X79297Y123184D01*
X79303Y123196D01*
X79352Y123376D01*
X79405Y123558D01*
X79406Y123572D01*
X79409Y123585D01*
X79422Y123773D01*
X79438Y123960D01*
X79436Y123973D01*
X79437Y123986D01*
X79413Y124174D01*
X79391Y124359D01*
X79387Y124372D01*
X79385Y124385D01*
X79283Y124701D01*
X79021Y125334D01*
X79021Y127142D01*
X79713Y128812D01*
X80992Y130091D01*
X82662Y130783D01*
X84599Y130783D01*
X84608Y130784D01*
X84617Y130783D01*
X84811Y130804D01*
X85000Y130823D01*
X85009Y130825D01*
X85018Y130826D01*
X85202Y130885D01*
X85385Y130941D01*
X85393Y130945D01*
X85401Y130948D01*
X85570Y131041D01*
X85739Y131133D01*
X85746Y131138D01*
X85754Y131143D01*
X85901Y131267D01*
X86048Y131390D01*
X86054Y131397D01*
X86061Y131403D01*
X86180Y131555D01*
X86301Y131704D01*
X86305Y131712D01*
X86310Y131719D01*
X86398Y131892D01*
X86486Y132061D01*
X86489Y132070D01*
X86493Y132078D01*
X86545Y132264D01*
X86598Y132448D01*
X86598Y132457D01*
X86601Y132466D01*
X86615Y132659D01*
X86630Y132850D01*
X86629Y132858D01*
X86630Y132867D01*
X86606Y133060D01*
X86584Y133249D01*
X86581Y133258D01*
X86580Y133267D01*
X86518Y133449D01*
X86459Y133632D01*
X86454Y133640D01*
X86451Y133648D01*
X86356Y133814D01*
X86261Y133983D01*
X86255Y133990D01*
X86250Y133997D01*
X86036Y134250D01*
X79775Y140511D01*
X79758Y140525D01*
X79744Y140542D01*
X79602Y140652D01*
X79464Y140766D01*
X79444Y140776D01*
X79427Y140790D01*
X79266Y140871D01*
X79108Y140954D01*
X79087Y140961D01*
X79067Y140971D01*
X78894Y141018D01*
X78722Y141069D01*
X78700Y141071D01*
X78679Y141077D01*
X78500Y141089D01*
X78321Y141106D01*
X78299Y141103D01*
X78277Y141105D01*
X78099Y141081D01*
X77921Y141062D01*
X77900Y141055D01*
X77878Y141052D01*
X77562Y140951D01*
X75834Y140235D01*
X74026Y140235D01*
X72356Y140927D01*
X71077Y142206D01*
X70385Y143876D01*
X70385Y145684D01*
X71077Y147354D01*
X72356Y148633D01*
X74026Y149325D01*
X75834Y149325D01*
X77504Y148633D01*
X78476Y147662D01*
X78496Y147645D01*
X78514Y147624D01*
X78652Y147517D01*
X78787Y147407D01*
X78811Y147394D01*
X78832Y147378D01*
X78989Y147300D01*
X79143Y147218D01*
X79168Y147210D01*
X79192Y147198D01*
X79362Y147153D01*
X79529Y147103D01*
X79555Y147101D01*
X79581Y147094D01*
X79667Y147087D01*
X81622Y145132D01*
X89760Y136994D01*
X91695Y135059D01*
X91695Y104296D01*
X91697Y104269D01*
X91695Y104243D01*
X91717Y104069D01*
X91735Y103895D01*
X91743Y103870D01*
X91746Y103843D01*
X91802Y103677D01*
X91853Y103510D01*
X91866Y103487D01*
X91874Y103461D01*
X91961Y103310D01*
X92045Y103156D01*
X92062Y103136D01*
X92075Y103113D01*
X92290Y102860D01*
X93007Y102142D01*
X93699Y100472D01*
X93699Y98664D01*
X93007Y96994D01*
X91728Y95715D01*
X90058Y95023D01*
X87884Y95023D01*
X87866Y95021D01*
X87848Y95023D01*
X87666Y95002D01*
X87483Y94983D01*
X87466Y94978D01*
X87449Y94976D01*
X87274Y94919D01*
X87098Y94865D01*
X87083Y94857D01*
X87066Y94851D01*
X86906Y94761D01*
X86744Y94673D01*
X86731Y94662D01*
X86715Y94653D01*
X86576Y94533D01*
X86435Y94416D01*
X86424Y94402D01*
X86410Y94390D01*
X86298Y94245D01*
X86183Y94102D01*
X86175Y94086D01*
X86164Y94072D01*
X86082Y93907D01*
X85997Y93745D01*
X85992Y93728D01*
X85984Y93712D01*
X85937Y93533D01*
X85886Y93358D01*
X85884Y93340D01*
X85880Y93323D01*
X85853Y92992D01*
X85853Y89564D01*
X85855Y89537D01*
X85853Y89511D01*
X85875Y89337D01*
X85893Y89163D01*
X85900Y89138D01*
X85904Y89111D01*
X85959Y88945D01*
X86011Y88778D01*
X86024Y88755D01*
X86032Y88729D01*
X86119Y88578D01*
X86203Y88424D01*
X86220Y88404D01*
X86233Y88381D01*
X86448Y88128D01*
X87165Y87410D01*
X87857Y85740D01*
X87857Y83932D01*
X87165Y82262D01*
X85969Y81065D01*
X85957Y81051D01*
X85944Y81040D01*
X85830Y80896D01*
X85713Y80754D01*
X85705Y80738D01*
X85694Y80724D01*
X85611Y80560D01*
X85525Y80398D01*
X85520Y80381D01*
X85512Y80365D01*
X85462Y80188D01*
X85410Y80012D01*
X85408Y79994D01*
X85404Y79977D01*
X85390Y79794D01*
X85374Y79611D01*
X85376Y79593D01*
X85374Y79576D01*
X85397Y79393D01*
X85417Y79211D01*
X85422Y79194D01*
X85425Y79176D01*
X85483Y79002D01*
X85539Y78827D01*
X85547Y78811D01*
X85553Y78795D01*
X85645Y78635D01*
X85733Y78475D01*
X85745Y78461D01*
X85754Y78446D01*
X85969Y78193D01*
X87419Y76742D01*
X88111Y75072D01*
X88111Y74715D01*
X88113Y74688D01*
X88111Y74661D01*
X88133Y74487D01*
X88151Y74314D01*
X88158Y74288D01*
X88162Y74262D01*
X88217Y74096D01*
X88269Y73929D01*
X88282Y73905D01*
X88290Y73880D01*
X88377Y73728D01*
X88461Y73575D01*
X88478Y73555D01*
X88491Y73531D01*
X88706Y73278D01*
X116458Y45526D01*
X116479Y45509D01*
X116496Y45488D01*
X116635Y45381D01*
X116770Y45271D01*
X116793Y45258D01*
X116815Y45242D01*
X116971Y45164D01*
X117125Y45082D01*
X117151Y45074D01*
X117175Y45062D01*
X117344Y45017D01*
X117511Y44967D01*
X117538Y44965D01*
X117564Y44958D01*
X117895Y44931D01*
X119268Y44931D01*
X120938Y44239D01*
X122217Y42960D01*
X122909Y41290D01*
X122909Y39482D01*
X122217Y37812D01*
X120938Y36533D01*
X120020Y36153D01*
X119268Y35841D01*
X117460Y35841D01*
G37*
%LPD*%
%LPC*%
G36*
X63866Y44985D02*
X63866Y44985D01*
X62196Y45677D01*
X60917Y46956D01*
X60225Y48626D01*
X60225Y50434D01*
X60917Y52104D01*
X62196Y53383D01*
X63866Y54075D01*
X64162Y54075D01*
X64188Y54077D01*
X64215Y54075D01*
X64389Y54097D01*
X64562Y54115D01*
X64588Y54122D01*
X64615Y54126D01*
X64780Y54181D01*
X64947Y54233D01*
X64971Y54246D01*
X64996Y54254D01*
X65148Y54341D01*
X65301Y54425D01*
X65322Y54442D01*
X65345Y54455D01*
X65598Y54670D01*
X66206Y55278D01*
X66223Y55299D01*
X66244Y55316D01*
X66351Y55454D01*
X66461Y55589D01*
X66474Y55613D01*
X66490Y55634D01*
X66568Y55791D01*
X66650Y55945D01*
X66658Y55971D01*
X66670Y55995D01*
X66715Y56164D01*
X66765Y56331D01*
X66767Y56358D01*
X66774Y56383D01*
X66801Y56714D01*
X66801Y70710D01*
X66799Y70737D01*
X66801Y70763D01*
X66779Y70937D01*
X66761Y71111D01*
X66754Y71136D01*
X66750Y71163D01*
X66695Y71329D01*
X66643Y71496D01*
X66630Y71519D01*
X66622Y71545D01*
X66535Y71696D01*
X66451Y71850D01*
X66434Y71870D01*
X66421Y71893D01*
X66206Y72146D01*
X65997Y72356D01*
X65305Y74026D01*
X65305Y74322D01*
X65303Y74348D01*
X65305Y74375D01*
X65283Y74549D01*
X65265Y74722D01*
X65258Y74748D01*
X65254Y74775D01*
X65199Y74940D01*
X65147Y75107D01*
X65134Y75131D01*
X65126Y75156D01*
X65039Y75308D01*
X64955Y75461D01*
X64938Y75482D01*
X64925Y75505D01*
X64710Y75758D01*
X54101Y86367D01*
X54101Y169770D01*
X54099Y169797D01*
X54101Y169823D01*
X54079Y169997D01*
X54061Y170171D01*
X54054Y170196D01*
X54050Y170223D01*
X53995Y170389D01*
X53943Y170556D01*
X53930Y170579D01*
X53922Y170605D01*
X53835Y170756D01*
X53751Y170910D01*
X53734Y170930D01*
X53721Y170953D01*
X53506Y171206D01*
X53297Y171416D01*
X52605Y173086D01*
X52605Y174894D01*
X53297Y176564D01*
X54576Y177843D01*
X56246Y178535D01*
X58054Y178535D01*
X59724Y177843D01*
X61003Y176564D01*
X61695Y174894D01*
X61695Y173086D01*
X61003Y171416D01*
X60794Y171206D01*
X60777Y171186D01*
X60756Y171168D01*
X60649Y171030D01*
X60539Y170895D01*
X60526Y170871D01*
X60510Y170850D01*
X60432Y170693D01*
X60350Y170539D01*
X60342Y170514D01*
X60330Y170490D01*
X60285Y170320D01*
X60235Y170153D01*
X60233Y170127D01*
X60226Y170101D01*
X60199Y169770D01*
X60199Y89734D01*
X60201Y89708D01*
X60199Y89681D01*
X60221Y89507D01*
X60239Y89334D01*
X60246Y89308D01*
X60250Y89281D01*
X60305Y89116D01*
X60357Y88949D01*
X60370Y88925D01*
X60378Y88900D01*
X60465Y88748D01*
X60549Y88595D01*
X60566Y88574D01*
X60579Y88551D01*
X60794Y88298D01*
X69022Y80070D01*
X69043Y80053D01*
X69060Y80032D01*
X69198Y79925D01*
X69333Y79815D01*
X69357Y79802D01*
X69378Y79786D01*
X69535Y79708D01*
X69689Y79626D01*
X69715Y79618D01*
X69739Y79606D01*
X69908Y79561D01*
X70075Y79511D01*
X70102Y79509D01*
X70127Y79502D01*
X70458Y79475D01*
X70754Y79475D01*
X72424Y78783D01*
X73703Y77504D01*
X74395Y75834D01*
X74395Y74026D01*
X73703Y72356D01*
X73494Y72146D01*
X73477Y72126D01*
X73456Y72108D01*
X73349Y71970D01*
X73239Y71835D01*
X73226Y71811D01*
X73210Y71790D01*
X73132Y71633D01*
X73050Y71479D01*
X73042Y71454D01*
X73030Y71430D01*
X72985Y71260D01*
X72935Y71093D01*
X72933Y71067D01*
X72926Y71041D01*
X72899Y70710D01*
X72899Y53347D01*
X69910Y50358D01*
X69893Y50337D01*
X69872Y50320D01*
X69765Y50182D01*
X69655Y50047D01*
X69642Y50023D01*
X69626Y50002D01*
X69548Y49845D01*
X69466Y49691D01*
X69458Y49665D01*
X69446Y49641D01*
X69401Y49472D01*
X69351Y49305D01*
X69349Y49278D01*
X69342Y49253D01*
X69315Y48922D01*
X69315Y48626D01*
X68623Y46956D01*
X67344Y45677D01*
X65674Y44985D01*
X63866Y44985D01*
G37*
%LPD*%
%LPC*%
G36*
X259866Y86565D02*
X259866Y86565D01*
X256825Y87825D01*
X254497Y90153D01*
X253237Y93194D01*
X253237Y96486D01*
X254497Y99527D01*
X256825Y101855D01*
X259866Y103115D01*
X263158Y103115D01*
X266199Y101855D01*
X268527Y99527D01*
X269787Y96486D01*
X269787Y93194D01*
X268527Y90153D01*
X266199Y87825D01*
X263158Y86565D01*
X259866Y86565D01*
G37*
%LPD*%
%LPC*%
G36*
X284866Y61565D02*
X284866Y61565D01*
X281825Y62825D01*
X279497Y65153D01*
X278237Y68194D01*
X278237Y71486D01*
X279497Y74527D01*
X281825Y76855D01*
X284866Y78115D01*
X288158Y78115D01*
X291199Y76855D01*
X293527Y74527D01*
X294787Y71486D01*
X294787Y68194D01*
X293527Y65153D01*
X291199Y62825D01*
X288158Y61565D01*
X284866Y61565D01*
G37*
%LPD*%
%LPC*%
G36*
X299168Y173371D02*
X299168Y173371D01*
X299219Y173691D01*
X299707Y175194D01*
X300424Y176602D01*
X301353Y177881D01*
X302471Y178999D01*
X303750Y179928D01*
X305158Y180645D01*
X306661Y181133D01*
X308222Y181381D01*
X314481Y181381D01*
X314481Y173371D01*
X299168Y173371D01*
G37*
%LPD*%
%LPC*%
G36*
X299168Y38371D02*
X299168Y38371D01*
X299219Y38691D01*
X299707Y40194D01*
X300424Y41602D01*
X301353Y42881D01*
X302471Y43999D01*
X303750Y44928D01*
X305158Y45645D01*
X306661Y46133D01*
X308222Y46381D01*
X314481Y46381D01*
X314481Y38371D01*
X299168Y38371D01*
G37*
%LPD*%
%LPC*%
G36*
X314471Y105871D02*
X314471Y105871D01*
X314471Y112130D01*
X314719Y113691D01*
X315207Y115194D01*
X315924Y116602D01*
X316853Y117881D01*
X317971Y118999D01*
X319250Y119928D01*
X320658Y120645D01*
X322161Y121133D01*
X322481Y121184D01*
X322481Y105871D01*
X314471Y105871D01*
G37*
%LPD*%
%LPC*%
G36*
X322161Y86547D02*
X322161Y86547D01*
X320658Y87035D01*
X319250Y87752D01*
X317971Y88681D01*
X316853Y89799D01*
X315924Y91078D01*
X315207Y92486D01*
X314719Y93989D01*
X314471Y95550D01*
X314471Y101809D01*
X322481Y101809D01*
X322481Y86496D01*
X322161Y86547D01*
G37*
%LPD*%
%LPC*%
G36*
X308222Y161299D02*
X308222Y161299D01*
X306661Y161547D01*
X305158Y162035D01*
X303750Y162752D01*
X302471Y163681D01*
X301353Y164799D01*
X300424Y166078D01*
X299707Y167486D01*
X299219Y168989D01*
X299168Y169309D01*
X314481Y169309D01*
X314481Y161299D01*
X308222Y161299D01*
G37*
%LPD*%
%LPC*%
G36*
X308222Y26299D02*
X308222Y26299D01*
X306661Y26547D01*
X305158Y27035D01*
X303750Y27752D01*
X302471Y28681D01*
X301353Y29799D01*
X300424Y31078D01*
X299707Y32486D01*
X299219Y33989D01*
X299168Y34309D01*
X314481Y34309D01*
X314481Y26299D01*
X308222Y26299D01*
G37*
%LPD*%
%LPC*%
G36*
X263761Y72089D02*
X263761Y72089D01*
X263761Y78878D01*
X265079Y78450D01*
X266381Y77786D01*
X267565Y76927D01*
X268599Y75893D01*
X269458Y74709D01*
X270122Y73407D01*
X270550Y72089D01*
X263761Y72089D01*
G37*
%LPD*%
%LPC*%
G36*
X252474Y72089D02*
X252474Y72089D01*
X252902Y73407D01*
X253566Y74709D01*
X254425Y75893D01*
X255459Y76927D01*
X256643Y77786D01*
X257945Y78450D01*
X259263Y78878D01*
X259263Y72089D01*
X252474Y72089D01*
G37*
%LPD*%
%LPC*%
G36*
X263761Y67591D02*
X263761Y67591D01*
X270550Y67591D01*
X270122Y66273D01*
X269458Y64971D01*
X268599Y63787D01*
X267565Y62753D01*
X266381Y61894D01*
X265079Y61230D01*
X263761Y60802D01*
X263761Y67591D01*
G37*
%LPD*%
%LPC*%
G36*
X257945Y61230D02*
X257945Y61230D01*
X256643Y61894D01*
X255459Y62753D01*
X254425Y63787D01*
X253566Y64971D01*
X252902Y66273D01*
X252474Y67591D01*
X259263Y67591D01*
X259263Y60802D01*
X257945Y61230D01*
G37*
%LPD*%
D10*
X365987Y168534D02*
X365987Y164297D01*
X363869Y162179D01*
X361751Y164297D01*
X361751Y168534D01*
X358503Y167475D02*
X358503Y163238D01*
X358503Y167475D02*
X357444Y168534D01*
X355326Y168534D01*
X354266Y167475D01*
X354266Y163238D01*
X355326Y162179D01*
X357444Y162179D01*
X358503Y163238D01*
X354266Y167475D01*
X351019Y166416D02*
X348901Y168534D01*
X348901Y162179D01*
X351019Y162179D02*
X346782Y162179D01*
D11*
X34682Y163656D02*
X17918Y163656D01*
X17918Y46656D02*
X34682Y46656D01*
D12*
X286512Y116840D03*
D13*
X286512Y90840D03*
X286512Y69840D03*
X261512Y116840D03*
X286512Y137840D03*
X261512Y69840D03*
X261512Y94840D03*
X261512Y137840D03*
D14*
X309012Y171340D02*
X324012Y171340D01*
X324012Y36340D02*
X309012Y36340D01*
X324512Y96340D02*
X324512Y111340D01*
D15*
X69850Y74930D03*
D16*
X57150Y87630D01*
X57150Y173990D01*
D15*
X57150Y173990D03*
X64770Y49530D03*
D16*
X69850Y54610D01*
X69850Y74930D01*
X316512Y171340D02*
X344678Y143174D01*
X344678Y97282D01*
X344678Y59182D01*
X321836Y36340D01*
X316512Y36340D01*
X324512Y103840D02*
X338120Y103840D01*
X344678Y97282D01*
X295012Y36340D02*
X261512Y69840D01*
X295012Y36340D02*
X316512Y36340D01*
D15*
X69850Y135890D03*
X36830Y133350D03*
D16*
X49530Y120650D01*
X49530Y36830D01*
X36830Y24130D01*
X36830Y11430D01*
D15*
X36830Y11430D03*
X154432Y182118D03*
D16*
X168402Y128270D02*
X168402Y68580D01*
X168402Y128270D02*
X168402Y160020D01*
X154432Y173990D01*
X154432Y182118D01*
D15*
X132080Y27940D03*
D16*
X132080Y48260D01*
D15*
X132080Y48260D03*
D16*
X146050Y128270D02*
X168402Y128270D01*
X146050Y128270D02*
X144780Y129540D01*
X168402Y128270D02*
X191770Y128270D01*
X193040Y129540D01*
D15*
X193040Y129540D03*
X144780Y129540D03*
D16*
X146050Y68580D02*
X168402Y68580D01*
X146050Y68580D02*
X144780Y69850D01*
X168402Y68580D02*
X193040Y68580D01*
X194310Y69850D01*
D15*
X194310Y69850D03*
X144780Y69850D03*
D16*
X132080Y57150D01*
X132080Y48260D01*
D15*
X83566Y126238D03*
D17*
X83566Y85090D02*
X83312Y84836D01*
X83566Y85090D02*
X83566Y126238D01*
D15*
X83312Y84836D03*
X118364Y40386D03*
D17*
X84582Y74168D02*
X83566Y74168D01*
X84582Y74168D02*
X118364Y40386D01*
D15*
X83566Y74168D03*
X231140Y156718D03*
D17*
X238506Y149352D01*
X268478Y149352D01*
X273558Y144272D01*
X273558Y103794D02*
X286512Y90840D01*
X273558Y103794D02*
X273558Y144272D01*
D15*
X215646Y96774D03*
D17*
X212852Y99568D02*
X212852Y156972D01*
X212852Y99568D02*
X215646Y96774D01*
D15*
X212852Y156972D03*
X226568Y91186D03*
X211328Y56134D03*
D17*
X220472Y65278D01*
X220472Y85090D02*
X226568Y91186D01*
X220472Y85090D02*
X220472Y65278D01*
D15*
X225044Y142494D03*
X222250Y162814D03*
D17*
X223520Y161544D01*
X223520Y142494D01*
X225044Y142494D01*
D15*
X209550Y82042D03*
X205994Y164084D03*
D17*
X205994Y85090D01*
X209042Y82042D02*
X209550Y82042D01*
X209042Y82042D02*
X205994Y85090D01*
D15*
X205232Y37338D03*
D17*
X241808Y118136D02*
X261512Y137840D01*
X241808Y118136D02*
X241808Y73406D01*
X205740Y37338D02*
X205232Y37338D01*
X205740Y37338D02*
X241808Y73406D01*
D15*
X69850Y95250D03*
D17*
X69850Y110490D02*
X76708Y117348D01*
X69850Y110490D02*
X69850Y95250D01*
D15*
X76708Y117348D03*
X89154Y99568D03*
D17*
X89408Y134112D02*
X78740Y144780D01*
X74930Y144780D01*
D15*
X74930Y144780D03*
D17*
X89408Y99822D02*
X89154Y99568D01*
X89408Y99822D02*
X89408Y134112D01*
M02*
