G04 EAGLE Gerber RS-274X export*
G75*
%MOMM*%
%FSLAX34Y34*%
%LPD*%
%IN*%
%IPPOS*%
%AMOC8*
5,1,8,0,0,1.08239X$1,22.5*%
G01*
%ADD10C,0.254000*%


D10*
X0Y6350D02*
X6350Y0D01*
X364490Y0D01*
X370840Y6350D01*
X370840Y203710D01*
X364490Y210060D01*
X6350Y210060D01*
X0Y203710D01*
X0Y6350D01*
X305512Y32840D02*
X327512Y32840D01*
X327512Y39840D01*
X305512Y39840D01*
X305512Y32840D01*
X305512Y167840D02*
X327512Y167840D01*
X327512Y174840D01*
X305512Y174840D01*
X305512Y167840D01*
X321012Y92840D02*
X328012Y92840D01*
X328012Y114840D01*
X321012Y114840D01*
X321012Y92840D01*
X14800Y163556D02*
X14819Y163129D01*
X14874Y162705D01*
X14967Y162288D01*
X15096Y161880D01*
X15259Y161485D01*
X15456Y161106D01*
X15686Y160745D01*
X15946Y160406D01*
X16235Y160091D01*
X16550Y159802D01*
X16889Y159542D01*
X17250Y159312D01*
X17629Y159115D01*
X18024Y158952D01*
X18432Y158823D01*
X18849Y158730D01*
X19273Y158675D01*
X19700Y158656D01*
X32800Y158656D01*
X33215Y158652D01*
X33629Y158685D01*
X34038Y158753D01*
X34440Y158857D01*
X34831Y158995D01*
X35209Y159167D01*
X35570Y159372D01*
X35912Y159607D01*
X36232Y159870D01*
X36528Y160161D01*
X36798Y160477D01*
X37039Y160815D01*
X37249Y161172D01*
X37428Y161546D01*
X37573Y161935D01*
X37684Y162335D01*
X37760Y162743D01*
X37800Y163156D01*
X37800Y163656D01*
X37781Y164092D01*
X37724Y164524D01*
X37630Y164950D01*
X37498Y165366D01*
X37332Y165769D01*
X37130Y166156D01*
X36896Y166524D01*
X36630Y166870D01*
X36336Y167192D01*
X36014Y167486D01*
X35668Y167752D01*
X35300Y167986D01*
X34913Y168188D01*
X34510Y168354D01*
X34094Y168486D01*
X33668Y168580D01*
X33236Y168637D01*
X32800Y168656D01*
X19700Y168656D01*
X19273Y168637D01*
X18849Y168582D01*
X18432Y168489D01*
X18024Y168361D01*
X17629Y168197D01*
X17250Y168000D01*
X16889Y167770D01*
X16550Y167510D01*
X16235Y167221D01*
X15946Y166906D01*
X15686Y166567D01*
X15456Y166206D01*
X15259Y165827D01*
X15096Y165432D01*
X14967Y165024D01*
X14874Y164607D01*
X14819Y164183D01*
X14800Y163756D01*
X14800Y163556D01*
X14800Y46656D02*
X14819Y46220D01*
X14876Y45788D01*
X14970Y45362D01*
X15102Y44946D01*
X15268Y44543D01*
X15470Y44156D01*
X15704Y43788D01*
X15970Y43442D01*
X16264Y43120D01*
X16586Y42826D01*
X16932Y42560D01*
X17300Y42326D01*
X17687Y42124D01*
X18090Y41958D01*
X18506Y41826D01*
X18932Y41732D01*
X19364Y41675D01*
X19800Y41656D01*
X32900Y41656D01*
X33306Y41652D01*
X33711Y41683D01*
X34112Y41750D01*
X34505Y41851D01*
X34889Y41986D01*
X35259Y42154D01*
X35612Y42354D01*
X35947Y42583D01*
X36261Y42841D01*
X36551Y43126D01*
X36816Y43434D01*
X37052Y43765D01*
X37259Y44114D01*
X37434Y44481D01*
X37577Y44861D01*
X37686Y45252D01*
X37761Y45652D01*
X37800Y46056D01*
X37800Y46856D01*
X37782Y47274D01*
X37727Y47690D01*
X37636Y48098D01*
X37511Y48498D01*
X37350Y48885D01*
X37157Y49256D01*
X36932Y49609D01*
X36677Y49941D01*
X36394Y50250D01*
X36085Y50533D01*
X35753Y50788D01*
X35400Y51013D01*
X35029Y51206D01*
X34642Y51367D01*
X34242Y51492D01*
X33834Y51583D01*
X33418Y51638D01*
X33000Y51656D01*
X20200Y51656D01*
X19750Y51658D01*
X19302Y51621D01*
X18859Y51545D01*
X18424Y51431D01*
X18000Y51279D01*
X17592Y51091D01*
X17201Y50868D01*
X16831Y50612D01*
X16485Y50324D01*
X16166Y50008D01*
X15875Y49665D01*
X15615Y49298D01*
X15388Y48909D01*
X15196Y48502D01*
X15040Y48080D01*
X14922Y47647D01*
X14841Y47204D01*
X14800Y46756D01*
X14800Y46656D01*
X24816Y193986D02*
X24743Y193343D01*
X24599Y192711D01*
X24385Y192100D01*
X24104Y191517D01*
X23760Y190968D01*
X23356Y190462D01*
X22898Y190004D01*
X22392Y189600D01*
X21843Y189256D01*
X21260Y188975D01*
X20649Y188761D01*
X20017Y188617D01*
X19374Y188544D01*
X18726Y188544D01*
X18083Y188617D01*
X17451Y188761D01*
X16840Y188975D01*
X16257Y189256D01*
X15708Y189600D01*
X15202Y190004D01*
X14744Y190462D01*
X14340Y190968D01*
X13996Y191517D01*
X13715Y192100D01*
X13501Y192711D01*
X13357Y193343D01*
X13284Y193986D01*
X13284Y194634D01*
X13357Y195277D01*
X13501Y195909D01*
X13715Y196520D01*
X13996Y197103D01*
X14340Y197652D01*
X14744Y198158D01*
X15202Y198616D01*
X15708Y199020D01*
X16257Y199364D01*
X16840Y199645D01*
X17451Y199859D01*
X18083Y200003D01*
X18726Y200076D01*
X19374Y200076D01*
X20017Y200003D01*
X20649Y199859D01*
X21260Y199645D01*
X21843Y199364D01*
X22392Y199020D01*
X22898Y198616D01*
X23356Y198158D01*
X23760Y197652D01*
X24104Y197103D01*
X24385Y196520D01*
X24599Y195909D01*
X24743Y195277D01*
X24816Y194634D01*
X24816Y193986D01*
X357556Y193986D02*
X357483Y193343D01*
X357339Y192711D01*
X357125Y192100D01*
X356844Y191517D01*
X356500Y190968D01*
X356096Y190462D01*
X355638Y190004D01*
X355132Y189600D01*
X354583Y189256D01*
X354000Y188975D01*
X353389Y188761D01*
X352757Y188617D01*
X352114Y188544D01*
X351466Y188544D01*
X350823Y188617D01*
X350191Y188761D01*
X349580Y188975D01*
X348997Y189256D01*
X348448Y189600D01*
X347942Y190004D01*
X347484Y190462D01*
X347080Y190968D01*
X346736Y191517D01*
X346455Y192100D01*
X346241Y192711D01*
X346097Y193343D01*
X346024Y193986D01*
X346024Y194634D01*
X346097Y195277D01*
X346241Y195909D01*
X346455Y196520D01*
X346736Y197103D01*
X347080Y197652D01*
X347484Y198158D01*
X347942Y198616D01*
X348448Y199020D01*
X348997Y199364D01*
X349580Y199645D01*
X350191Y199859D01*
X350823Y200003D01*
X351466Y200076D01*
X352114Y200076D01*
X352757Y200003D01*
X353389Y199859D01*
X354000Y199645D01*
X354583Y199364D01*
X355132Y199020D01*
X355638Y198616D01*
X356096Y198158D01*
X356500Y197652D01*
X356844Y197103D01*
X357125Y196520D01*
X357339Y195909D01*
X357483Y195277D01*
X357556Y194634D01*
X357556Y193986D01*
X357556Y13646D02*
X357483Y13003D01*
X357339Y12371D01*
X357125Y11760D01*
X356844Y11177D01*
X356500Y10628D01*
X356096Y10122D01*
X355638Y9664D01*
X355132Y9260D01*
X354583Y8916D01*
X354000Y8635D01*
X353389Y8421D01*
X352757Y8277D01*
X352114Y8204D01*
X351466Y8204D01*
X350823Y8277D01*
X350191Y8421D01*
X349580Y8635D01*
X348997Y8916D01*
X348448Y9260D01*
X347942Y9664D01*
X347484Y10122D01*
X347080Y10628D01*
X346736Y11177D01*
X346455Y11760D01*
X346241Y12371D01*
X346097Y13003D01*
X346024Y13646D01*
X346024Y14294D01*
X346097Y14937D01*
X346241Y15569D01*
X346455Y16180D01*
X346736Y16763D01*
X347080Y17312D01*
X347484Y17818D01*
X347942Y18276D01*
X348448Y18680D01*
X348997Y19024D01*
X349580Y19305D01*
X350191Y19519D01*
X350823Y19663D01*
X351466Y19736D01*
X352114Y19736D01*
X352757Y19663D01*
X353389Y19519D01*
X354000Y19305D01*
X354583Y19024D01*
X355132Y18680D01*
X355638Y18276D01*
X356096Y17818D01*
X356500Y17312D01*
X356844Y16763D01*
X357125Y16180D01*
X357339Y15569D01*
X357483Y14937D01*
X357556Y14294D01*
X357556Y13646D01*
X25578Y193989D02*
X25515Y193351D01*
X25390Y192722D01*
X25204Y192108D01*
X24958Y191516D01*
X24656Y190950D01*
X24300Y190417D01*
X23893Y189921D01*
X23439Y189467D01*
X22943Y189061D01*
X22410Y188704D01*
X21844Y188402D01*
X21252Y188156D01*
X20638Y187970D01*
X20009Y187845D01*
X19371Y187782D01*
X18729Y187782D01*
X18091Y187845D01*
X17462Y187970D01*
X16848Y188156D01*
X16256Y188402D01*
X15690Y188704D01*
X15157Y189061D01*
X14661Y189467D01*
X14207Y189921D01*
X13801Y190417D01*
X13444Y190950D01*
X13142Y191516D01*
X12896Y192108D01*
X12710Y192722D01*
X12585Y193351D01*
X12522Y193989D01*
X12522Y194631D01*
X12585Y195269D01*
X12710Y195898D01*
X12896Y196512D01*
X13142Y197104D01*
X13444Y197670D01*
X13801Y198203D01*
X14207Y198699D01*
X14661Y199153D01*
X15157Y199560D01*
X15690Y199916D01*
X16256Y200218D01*
X16848Y200464D01*
X17462Y200650D01*
X18091Y200775D01*
X18729Y200838D01*
X19371Y200838D01*
X20009Y200775D01*
X20638Y200650D01*
X21252Y200464D01*
X21844Y200218D01*
X22410Y199916D01*
X22943Y199560D01*
X23439Y199153D01*
X23893Y198699D01*
X24300Y198203D01*
X24656Y197670D01*
X24958Y197104D01*
X25204Y196512D01*
X25390Y195898D01*
X25515Y195269D01*
X25578Y194631D01*
X25578Y193989D01*
X358318Y193989D02*
X358255Y193351D01*
X358130Y192722D01*
X357944Y192108D01*
X357698Y191516D01*
X357396Y190950D01*
X357040Y190417D01*
X356633Y189921D01*
X356179Y189467D01*
X355683Y189061D01*
X355150Y188704D01*
X354584Y188402D01*
X353992Y188156D01*
X353378Y187970D01*
X352749Y187845D01*
X352111Y187782D01*
X351469Y187782D01*
X350831Y187845D01*
X350202Y187970D01*
X349588Y188156D01*
X348996Y188402D01*
X348430Y188704D01*
X347897Y189061D01*
X347401Y189467D01*
X346947Y189921D01*
X346541Y190417D01*
X346184Y190950D01*
X345882Y191516D01*
X345636Y192108D01*
X345450Y192722D01*
X345325Y193351D01*
X345262Y193989D01*
X345262Y194631D01*
X345325Y195269D01*
X345450Y195898D01*
X345636Y196512D01*
X345882Y197104D01*
X346184Y197670D01*
X346541Y198203D01*
X346947Y198699D01*
X347401Y199153D01*
X347897Y199560D01*
X348430Y199916D01*
X348996Y200218D01*
X349588Y200464D01*
X350202Y200650D01*
X350831Y200775D01*
X351469Y200838D01*
X352111Y200838D01*
X352749Y200775D01*
X353378Y200650D01*
X353992Y200464D01*
X354584Y200218D01*
X355150Y199916D01*
X355683Y199560D01*
X356179Y199153D01*
X356633Y198699D01*
X357040Y198203D01*
X357396Y197670D01*
X357698Y197104D01*
X357944Y196512D01*
X358130Y195898D01*
X358255Y195269D01*
X358318Y194631D01*
X358318Y193989D01*
X358318Y13649D02*
X358255Y13011D01*
X358130Y12382D01*
X357944Y11768D01*
X357698Y11176D01*
X357396Y10610D01*
X357040Y10077D01*
X356633Y9581D01*
X356179Y9127D01*
X355683Y8721D01*
X355150Y8364D01*
X354584Y8062D01*
X353992Y7816D01*
X353378Y7630D01*
X352749Y7505D01*
X352111Y7442D01*
X351469Y7442D01*
X350831Y7505D01*
X350202Y7630D01*
X349588Y7816D01*
X348996Y8062D01*
X348430Y8364D01*
X347897Y8721D01*
X347401Y9127D01*
X346947Y9581D01*
X346541Y10077D01*
X346184Y10610D01*
X345882Y11176D01*
X345636Y11768D01*
X345450Y12382D01*
X345325Y13011D01*
X345262Y13649D01*
X345262Y14291D01*
X345325Y14929D01*
X345450Y15558D01*
X345636Y16172D01*
X345882Y16764D01*
X346184Y17330D01*
X346541Y17863D01*
X346947Y18359D01*
X347401Y18813D01*
X347897Y19220D01*
X348430Y19576D01*
X348996Y19878D01*
X349588Y20124D01*
X350202Y20310D01*
X350831Y20435D01*
X351469Y20498D01*
X352111Y20498D01*
X352749Y20435D01*
X353378Y20310D01*
X353992Y20124D01*
X354584Y19878D01*
X355150Y19576D01*
X355683Y19220D01*
X356179Y18813D01*
X356633Y18359D01*
X357040Y17863D01*
X357396Y17330D01*
X357698Y16764D01*
X357944Y16172D01*
X358130Y15558D01*
X358255Y14929D01*
X358318Y14291D01*
X358318Y13649D01*
X25578Y193989D02*
X25515Y193351D01*
X25390Y192722D01*
X25204Y192108D01*
X24958Y191516D01*
X24656Y190950D01*
X24300Y190417D01*
X23893Y189921D01*
X23439Y189467D01*
X22943Y189061D01*
X22410Y188704D01*
X21844Y188402D01*
X21252Y188156D01*
X20638Y187970D01*
X20009Y187845D01*
X19371Y187782D01*
X18729Y187782D01*
X18091Y187845D01*
X17462Y187970D01*
X16848Y188156D01*
X16256Y188402D01*
X15690Y188704D01*
X15157Y189061D01*
X14661Y189467D01*
X14207Y189921D01*
X13801Y190417D01*
X13444Y190950D01*
X13142Y191516D01*
X12896Y192108D01*
X12710Y192722D01*
X12585Y193351D01*
X12522Y193989D01*
X12522Y194631D01*
X12585Y195269D01*
X12710Y195898D01*
X12896Y196512D01*
X13142Y197104D01*
X13444Y197670D01*
X13801Y198203D01*
X14207Y198699D01*
X14661Y199153D01*
X15157Y199560D01*
X15690Y199916D01*
X16256Y200218D01*
X16848Y200464D01*
X17462Y200650D01*
X18091Y200775D01*
X18729Y200838D01*
X19371Y200838D01*
X20009Y200775D01*
X20638Y200650D01*
X21252Y200464D01*
X21844Y200218D01*
X22410Y199916D01*
X22943Y199560D01*
X23439Y199153D01*
X23893Y198699D01*
X24300Y198203D01*
X24656Y197670D01*
X24958Y197104D01*
X25204Y196512D01*
X25390Y195898D01*
X25515Y195269D01*
X25578Y194631D01*
X25578Y193989D01*
X358318Y193989D02*
X358255Y193351D01*
X358130Y192722D01*
X357944Y192108D01*
X357698Y191516D01*
X357396Y190950D01*
X357040Y190417D01*
X356633Y189921D01*
X356179Y189467D01*
X355683Y189061D01*
X355150Y188704D01*
X354584Y188402D01*
X353992Y188156D01*
X353378Y187970D01*
X352749Y187845D01*
X352111Y187782D01*
X351469Y187782D01*
X350831Y187845D01*
X350202Y187970D01*
X349588Y188156D01*
X348996Y188402D01*
X348430Y188704D01*
X347897Y189061D01*
X347401Y189467D01*
X346947Y189921D01*
X346541Y190417D01*
X346184Y190950D01*
X345882Y191516D01*
X345636Y192108D01*
X345450Y192722D01*
X345325Y193351D01*
X345262Y193989D01*
X345262Y194631D01*
X345325Y195269D01*
X345450Y195898D01*
X345636Y196512D01*
X345882Y197104D01*
X346184Y197670D01*
X346541Y198203D01*
X346947Y198699D01*
X347401Y199153D01*
X347897Y199560D01*
X348430Y199916D01*
X348996Y200218D01*
X349588Y200464D01*
X350202Y200650D01*
X350831Y200775D01*
X351469Y200838D01*
X352111Y200838D01*
X352749Y200775D01*
X353378Y200650D01*
X353992Y200464D01*
X354584Y200218D01*
X355150Y199916D01*
X355683Y199560D01*
X356179Y199153D01*
X356633Y198699D01*
X357040Y198203D01*
X357396Y197670D01*
X357698Y197104D01*
X357944Y196512D01*
X358130Y195898D01*
X358255Y195269D01*
X358318Y194631D01*
X358318Y193989D01*
X358318Y13649D02*
X358255Y13011D01*
X358130Y12382D01*
X357944Y11768D01*
X357698Y11176D01*
X357396Y10610D01*
X357040Y10077D01*
X356633Y9581D01*
X356179Y9127D01*
X355683Y8721D01*
X355150Y8364D01*
X354584Y8062D01*
X353992Y7816D01*
X353378Y7630D01*
X352749Y7505D01*
X352111Y7442D01*
X351469Y7442D01*
X350831Y7505D01*
X350202Y7630D01*
X349588Y7816D01*
X348996Y8062D01*
X348430Y8364D01*
X347897Y8721D01*
X347401Y9127D01*
X346947Y9581D01*
X346541Y10077D01*
X346184Y10610D01*
X345882Y11176D01*
X345636Y11768D01*
X345450Y12382D01*
X345325Y13011D01*
X345262Y13649D01*
X345262Y14291D01*
X345325Y14929D01*
X345450Y15558D01*
X345636Y16172D01*
X345882Y16764D01*
X346184Y17330D01*
X346541Y17863D01*
X346947Y18359D01*
X347401Y18813D01*
X347897Y19220D01*
X348430Y19576D01*
X348996Y19878D01*
X349588Y20124D01*
X350202Y20310D01*
X350831Y20435D01*
X351469Y20498D01*
X352111Y20498D01*
X352749Y20435D01*
X353378Y20310D01*
X353992Y20124D01*
X354584Y19878D01*
X355150Y19576D01*
X355683Y19220D01*
X356179Y18813D01*
X356633Y18359D01*
X357040Y17863D01*
X357396Y17330D01*
X357698Y16764D01*
X357944Y16172D01*
X358130Y15558D01*
X358255Y14929D01*
X358318Y14291D01*
X358318Y13649D01*
M02*
