G04 EAGLE Gerber RS-274X export*
G75*
%MOMM*%
%FSLAX34Y34*%
%LPD*%
%INSilkscreen Bottom*%
%IPPOS*%
%AMOC8*
5,1,8,0,0,1.08239X$1,22.5*%
G01*
%ADD10R,0.266700X0.017781*%
%ADD11R,0.373381X0.017775*%
%ADD12R,0.480063X0.017781*%
%ADD13R,0.568956X0.017781*%
%ADD14R,0.177800X0.017775*%
%ADD15R,0.231138X0.017775*%
%ADD16R,0.142238X0.017781*%
%ADD17R,0.195581X0.017781*%
%ADD18R,0.124456X0.017775*%
%ADD19R,0.160019X0.017775*%
%ADD20R,0.124456X0.017781*%
%ADD21R,0.160019X0.017781*%
%ADD22R,0.124463X0.017781*%
%ADD23R,0.106675X0.017775*%
%ADD24R,0.106681X0.017781*%
%ADD25R,0.088900X0.017781*%
%ADD26R,0.106675X0.017781*%
%ADD27R,0.088900X0.017775*%
%ADD28R,0.124463X0.017775*%
%ADD29R,0.071119X0.017781*%
%ADD30R,0.071119X0.017775*%
%ADD31R,0.106681X0.017775*%
%ADD32R,0.053338X0.017781*%
%ADD33R,0.053338X0.017775*%
%ADD34R,0.320038X0.017781*%
%ADD35R,0.231138X0.017781*%
%ADD36R,0.017775X0.017781*%
%ADD37R,0.462275X0.017775*%
%ADD38R,0.586738X0.017775*%
%ADD39R,1.191256X0.017781*%
%ADD40R,1.244600X0.017775*%
%ADD41R,1.262375X0.017781*%
%ADD42R,1.280156X0.017781*%
%ADD43R,1.315719X0.017775*%
%ADD44R,1.315719X0.017781*%
%ADD45R,1.351281X0.017775*%
%ADD46R,0.408938X0.017781*%
%ADD47R,0.248919X0.017781*%
%ADD48R,0.177800X0.017781*%
%ADD49R,0.213363X0.017775*%
%ADD50R,0.248919X0.017775*%
%ADD51R,0.213356X0.017781*%
%ADD52R,0.195575X0.017775*%
%ADD53R,0.195581X0.017775*%
%ADD54R,0.142238X0.017775*%
%ADD55R,0.302256X0.017781*%
%ADD56R,0.337819X0.017781*%
%ADD57R,1.351275X0.017775*%
%ADD58R,1.351281X0.017781*%
%ADD59R,1.297937X0.017781*%
%ADD60R,1.333500X0.017781*%
%ADD61R,0.266700X0.017775*%
%ADD62R,0.195575X0.017781*%
%ADD63R,0.035563X0.017775*%
%ADD64R,0.017781X0.017781*%
%ADD65R,0.977900X0.017775*%
%ADD66R,0.995681X0.017781*%
%ADD67R,1.013456X0.017781*%
%ADD68R,0.017775X0.017775*%
%ADD69R,0.995675X0.017775*%
%ADD70R,0.035556X0.017781*%
%ADD71R,0.995675X0.017781*%
%ADD72R,1.013456X0.017775*%
%ADD73R,0.284481X0.017775*%
%ADD74R,0.213356X0.017775*%
%ADD75R,0.444500X0.017781*%
%ADD76R,1.013463X0.017775*%
%ADD77R,1.013463X0.017781*%
%ADD78R,0.284481X0.017781*%
%ADD79R,0.302256X0.017775*%
%ADD80R,0.320038X0.017775*%
%ADD81R,0.337819X0.017775*%
%ADD82R,0.355600X0.017781*%
%ADD83R,0.355600X0.017775*%
%ADD84R,1.191256X0.017775*%
%ADD85R,1.209037X0.017781*%
%ADD86R,0.017781X0.017775*%
%ADD87R,1.226819X0.017775*%
%ADD88R,0.728975X0.017781*%
%ADD89R,1.244600X0.017781*%
%ADD90R,0.711200X0.017781*%
%ADD91R,1.280163X0.017781*%
%ADD92R,0.693419X0.017775*%
%ADD93R,1.280163X0.017775*%
%ADD94R,0.657856X0.017781*%
%ADD95R,0.657856X0.017775*%
%ADD96R,1.333500X0.017775*%
%ADD97R,0.622300X0.017781*%
%ADD98R,0.604519X0.017781*%
%ADD99R,0.568956X0.017775*%
%ADD100R,0.551175X0.017781*%
%ADD101R,0.533400X0.017775*%
%ADD102R,0.497838X0.017781*%
%ADD103R,0.480056X0.017775*%
%ADD104R,0.480056X0.017781*%
%ADD105R,0.391156X0.017781*%
%ADD106R,0.515619X0.017781*%
%ADD107R,0.426719X0.017775*%
%ADD108R,1.653538X0.017775*%
%ADD109R,0.533400X0.017781*%
%ADD110R,0.675638X0.017781*%
%ADD111R,1.760219X0.017781*%
%ADD112R,1.795775X0.017775*%
%ADD113R,1.831338X0.017781*%
%ADD114R,0.586738X0.017781*%
%ADD115R,0.746756X0.017781*%
%ADD116R,1.866900X0.017781*%
%ADD117R,0.764538X0.017775*%
%ADD118R,1.902456X0.017775*%
%ADD119R,1.920238X0.017781*%
%ADD120R,1.955800X0.017775*%
%ADD121R,0.373375X0.017781*%
%ADD122R,1.973581X0.017781*%
%ADD123R,0.213363X0.017781*%
%ADD124R,1.973575X0.017781*%
%ADD125R,0.640081X0.017775*%
%ADD126R,0.391163X0.017775*%
%ADD127R,0.640081X0.017781*%
%ADD128R,0.622300X0.017775*%
%ADD129R,0.640075X0.017781*%
%ADD130R,0.302262X0.017775*%
%ADD131R,0.408938X0.017775*%
%ADD132R,0.284475X0.017775*%
%ADD133R,0.035556X0.017775*%
%ADD134R,0.426719X0.017781*%
%ADD135R,0.035563X0.017781*%
%ADD136R,0.515619X0.017775*%
%ADD137R,0.302262X0.017781*%
%ADD138R,0.462281X0.017775*%
%ADD139R,0.462281X0.017781*%
%ADD140R,0.373381X0.017781*%
%ADD141R,0.480063X0.017775*%
%ADD142R,0.497838X0.017775*%
%ADD143R,0.444500X0.017775*%
%ADD144R,0.462275X0.017781*%
%ADD145R,0.551181X0.017775*%
%ADD146R,1.902463X0.017781*%
%ADD147R,1.902463X0.017775*%
%ADD148R,1.902456X0.017781*%
%ADD149R,1.884675X0.017781*%
%ADD150R,1.866900X0.017775*%
%ADD151R,1.884681X0.017781*%
%ADD152R,1.849119X0.017781*%
%ADD153R,1.831338X0.017775*%
%ADD154R,1.813556X0.017775*%
%ADD155R,1.795781X0.017781*%
%ADD156R,1.778000X0.017781*%
%ADD157R,1.760219X0.017775*%
%ADD158R,0.657863X0.017775*%
%ADD159R,1.742438X0.017781*%
%ADD160R,0.657863X0.017781*%
%ADD161R,1.706875X0.017775*%
%ADD162R,1.671319X0.017781*%
%ADD163R,1.653538X0.017781*%
%ADD164R,1.617981X0.017775*%
%ADD165R,1.564638X0.017781*%
%ADD166R,1.529081X0.017775*%
%ADD167R,1.475738X0.017781*%
%ADD168R,1.422400X0.017781*%
%ADD169R,1.351275X0.017781*%
%ADD170R,1.102356X0.017775*%
%ADD171R,0.728981X0.017781*%
%ADD172R,0.853438X0.017775*%
%ADD173R,0.924556X0.017781*%
%ADD174R,1.049019X0.017775*%
%ADD175R,1.084581X0.017781*%
%ADD176R,1.120138X0.017775*%
%ADD177R,1.173475X0.017781*%
%ADD178R,1.262381X0.017775*%
%ADD179R,1.369056X0.017775*%
%ADD180R,1.386838X0.017781*%
%ADD181R,1.404619X0.017781*%
%ADD182R,1.404619X0.017775*%
%ADD183R,1.422400X0.017775*%
%ADD184R,1.440175X0.017781*%
%ADD185R,1.440175X0.017775*%
%ADD186R,1.457956X0.017781*%
%ADD187R,1.440181X0.017775*%
%ADD188R,1.440181X0.017781*%
%ADD189R,0.977900X0.017781*%
%ADD190R,2.258056X0.017781*%
%ADD191R,2.240281X0.017775*%
%ADD192R,2.258056X0.017775*%
%ADD193R,2.258063X0.017781*%
%ADD194R,3.556000X0.017775*%
%ADD195R,3.556000X0.017781*%
%ADD196R,3.538219X0.017781*%
%ADD197R,3.538219X0.017775*%
%ADD198R,1.973575X0.017775*%
%ADD199R,1.938019X0.017781*%
%ADD200R,0.604519X0.017775*%
%ADD201R,0.284475X0.017781*%
%ADD202R,2.293619X0.017781*%
%ADD203R,2.311400X0.017775*%
%ADD204R,2.311400X0.017781*%
%ADD205R,2.293619X0.017775*%
%ADD206R,2.275838X0.017781*%
%ADD207C,0.127000*%


D10*
X23647Y58928D03*
D11*
X23647Y59106D03*
D12*
X23647Y59284D03*
D13*
X23736Y59461D03*
D14*
X21425Y59639D03*
D15*
X25781Y59639D03*
D16*
X21069Y59817D03*
D17*
X26314Y59817D03*
D18*
X20625Y59995D03*
D19*
X26670Y59995D03*
D20*
X20447Y60173D03*
D21*
X27026Y60173D03*
D22*
X20091Y60350D03*
D16*
X27292Y60350D03*
D23*
X19825Y60528D03*
D18*
X27737Y60528D03*
D24*
X19647Y60706D03*
D20*
X27915Y60706D03*
D23*
X19469Y60884D03*
D18*
X28270Y60884D03*
D25*
X19202Y61062D03*
D20*
X28448Y61062D03*
D25*
X19025Y61239D03*
D26*
X28715Y61239D03*
D27*
X18847Y61417D03*
D28*
X28981Y61417D03*
D29*
X18758Y61595D03*
D20*
X29159Y61595D03*
D30*
X18580Y61773D03*
D31*
X29426Y61773D03*
D29*
X18402Y61951D03*
D26*
X29604Y61951D03*
D29*
X18225Y62128D03*
D24*
X29782Y62128D03*
D27*
X18136Y62306D03*
D31*
X29959Y62306D03*
D29*
X18047Y62484D03*
D26*
X30137Y62484D03*
D30*
X17869Y62662D03*
D31*
X30315Y62662D03*
D29*
X17691Y62840D03*
D26*
X30493Y62840D03*
D29*
X17691Y63017D03*
D24*
X30671Y63017D03*
D30*
X17513Y63195D03*
D27*
X30759Y63195D03*
D29*
X17513Y63373D03*
D26*
X31026Y63373D03*
D30*
X17336Y63551D03*
D27*
X31115Y63551D03*
D32*
X17247Y63729D03*
D25*
X31293Y63729D03*
D29*
X17158Y63906D03*
D25*
X31471Y63906D03*
D30*
X16980Y64084D03*
D27*
X31648Y64084D03*
D32*
X16891Y64262D03*
D24*
X31737Y64262D03*
D30*
X16802Y64440D03*
D27*
X31826Y64440D03*
D29*
X16802Y64618D03*
D25*
X32004Y64618D03*
D29*
X16624Y64795D03*
D25*
X32182Y64795D03*
D30*
X16624Y64973D03*
D27*
X32360Y64973D03*
D32*
X16535Y65151D03*
D25*
X32537Y65151D03*
D30*
X16447Y65329D03*
D27*
X32537Y65329D03*
D32*
X16358Y65507D03*
D25*
X32715Y65507D03*
D29*
X16269Y65684D03*
D25*
X32893Y65684D03*
D33*
X16180Y65862D03*
D31*
X32982Y65862D03*
D29*
X16091Y66040D03*
D25*
X33071Y66040D03*
D30*
X16091Y66218D03*
D27*
X33249Y66218D03*
D29*
X15913Y66396D03*
D25*
X33426Y66396D03*
D29*
X15913Y66573D03*
D25*
X33426Y66573D03*
D33*
X15824Y66751D03*
D27*
X33604Y66751D03*
D29*
X15735Y66929D03*
D25*
X33782Y66929D03*
D30*
X15735Y67107D03*
X33871Y67107D03*
D32*
X15646Y67285D03*
D25*
X33960Y67285D03*
D29*
X15558Y67462D03*
X34049Y67462D03*
D30*
X15558Y67640D03*
X34227Y67640D03*
D32*
X15469Y67818D03*
D25*
X34315Y67818D03*
D30*
X15380Y67996D03*
X34404Y67996D03*
D29*
X15380Y68174D03*
D25*
X34493Y68174D03*
D32*
X15291Y68351D03*
D25*
X34671Y68351D03*
D33*
X15291Y68529D03*
D30*
X34760Y68529D03*
D29*
X15202Y68707D03*
D25*
X34849Y68707D03*
D33*
X15113Y68885D03*
D30*
X34938Y68885D03*
D32*
X15113Y69063D03*
D25*
X35027Y69063D03*
D29*
X15024Y69240D03*
D34*
X19647Y69240D03*
D32*
X23825Y69240D03*
X24892Y69240D03*
D35*
X26848Y69240D03*
D36*
X28270Y69240D03*
D25*
X35204Y69240D03*
D30*
X15024Y69418D03*
D37*
X19825Y69418D03*
D38*
X25959Y69418D03*
D30*
X35293Y69418D03*
D32*
X14935Y69596D03*
D39*
X23114Y69596D03*
D25*
X35382Y69596D03*
D33*
X14935Y69774D03*
D40*
X23025Y69774D03*
D30*
X35471Y69774D03*
D29*
X14846Y69952D03*
D41*
X22936Y69952D03*
D25*
X35560Y69952D03*
D29*
X14846Y70129D03*
D42*
X22847Y70129D03*
D29*
X35649Y70129D03*
D33*
X14757Y70307D03*
D43*
X22847Y70307D03*
D27*
X35738Y70307D03*
D32*
X14757Y70485D03*
D44*
X22847Y70485D03*
D29*
X35827Y70485D03*
D30*
X14669Y70663D03*
D45*
X22847Y70663D03*
D27*
X35916Y70663D03*
D29*
X14669Y70841D03*
D10*
X17424Y70841D03*
D46*
X23470Y70841D03*
D17*
X28626Y70841D03*
D25*
X36093Y70841D03*
D29*
X14669Y71018D03*
D47*
X17158Y71018D03*
D34*
X23736Y71018D03*
D48*
X28715Y71018D03*
D25*
X36093Y71018D03*
D33*
X14580Y71196D03*
D49*
X16980Y71196D03*
D50*
X23736Y71196D03*
D14*
X28893Y71196D03*
D30*
X36182Y71196D03*
D29*
X14491Y71374D03*
D17*
X16891Y71374D03*
D51*
X23914Y71374D03*
D21*
X28981Y71374D03*
D25*
X36271Y71374D03*
D30*
X14491Y71552D03*
D52*
X16713Y71552D03*
D53*
X24003Y71552D03*
D19*
X28981Y71552D03*
D27*
X36449Y71552D03*
D29*
X14491Y71730D03*
D48*
X16624Y71730D03*
X24092Y71730D03*
X29070Y71730D03*
D25*
X36449Y71730D03*
D32*
X14402Y71907D03*
D48*
X16624Y71907D03*
X24270Y71907D03*
D21*
X29159Y71907D03*
D25*
X36627Y71907D03*
D33*
X14402Y72085D03*
D14*
X16624Y72085D03*
D19*
X24359Y72085D03*
D14*
X29248Y72085D03*
D30*
X36716Y72085D03*
D29*
X14313Y72263D03*
D48*
X16624Y72263D03*
D16*
X24448Y72263D03*
D48*
X29248Y72263D03*
D29*
X36716Y72263D03*
D30*
X14313Y72441D03*
D14*
X16624Y72441D03*
D54*
X24625Y72441D03*
D19*
X29337Y72441D03*
D30*
X36894Y72441D03*
D29*
X14313Y72619D03*
D48*
X16624Y72619D03*
D20*
X24714Y72619D03*
D48*
X29426Y72619D03*
D29*
X36894Y72619D03*
X14313Y72796D03*
D48*
X16624Y72796D03*
D16*
X24803Y72796D03*
D48*
X29426Y72796D03*
D29*
X37071Y72796D03*
D33*
X14224Y72974D03*
D19*
X16713Y72974D03*
D18*
X24892Y72974D03*
D19*
X29515Y72974D03*
D30*
X37071Y72974D03*
D32*
X14224Y73152D03*
D21*
X16713Y73152D03*
D20*
X24892Y73152D03*
D48*
X29604Y73152D03*
D25*
X37160Y73152D03*
D30*
X14135Y73330D03*
D19*
X16713Y73330D03*
D18*
X25070Y73330D03*
D14*
X29604Y73330D03*
D30*
X37249Y73330D03*
D29*
X14135Y73508D03*
D21*
X16713Y73508D03*
D20*
X25070Y73508D03*
D21*
X29693Y73508D03*
D25*
X37338Y73508D03*
D29*
X14135Y73685D03*
D21*
X16891Y73685D03*
D20*
X25070Y73685D03*
D48*
X29782Y73685D03*
D29*
X37427Y73685D03*
D33*
X14046Y73863D03*
D19*
X16891Y73863D03*
D18*
X25248Y73863D03*
D14*
X29782Y73863D03*
D27*
X37516Y73863D03*
D32*
X14046Y74041D03*
D21*
X17069Y74041D03*
D29*
X21247Y74041D03*
D20*
X25248Y74041D03*
D48*
X29959Y74041D03*
D29*
X37605Y74041D03*
D33*
X14046Y74219D03*
D19*
X17069Y74219D03*
D30*
X21247Y74219D03*
D18*
X25248Y74219D03*
D14*
X29959Y74219D03*
D27*
X37694Y74219D03*
D29*
X13957Y74397D03*
D21*
X17069Y74397D03*
D25*
X21336Y74397D03*
D22*
X25425Y74397D03*
D48*
X29959Y74397D03*
D29*
X37783Y74397D03*
X13957Y74574D03*
D21*
X17069Y74574D03*
D25*
X21336Y74574D03*
D22*
X25425Y74574D03*
D48*
X30137Y74574D03*
D25*
X37871Y74574D03*
D30*
X13957Y74752D03*
D19*
X17247Y74752D03*
D31*
X21425Y74752D03*
X25514Y74752D03*
D14*
X30137Y74752D03*
D30*
X37960Y74752D03*
D29*
X13957Y74930D03*
D21*
X17247Y74930D03*
D25*
X21514Y74930D03*
D20*
X25603Y74930D03*
D48*
X30137Y74930D03*
D29*
X37960Y74930D03*
D30*
X13957Y75108D03*
D14*
X17336Y75108D03*
D27*
X21514Y75108D03*
D18*
X25603Y75108D03*
D14*
X30315Y75108D03*
D30*
X38138Y75108D03*
D32*
X13868Y75286D03*
D21*
X17424Y75286D03*
D25*
X21692Y75286D03*
D26*
X25692Y75286D03*
D48*
X30315Y75286D03*
D29*
X38138Y75286D03*
D32*
X13868Y75463D03*
D21*
X17424Y75463D03*
D25*
X21692Y75463D03*
D20*
X25781Y75463D03*
D21*
X30404Y75463D03*
D25*
X38227Y75463D03*
D33*
X13868Y75641D03*
D14*
X17513Y75641D03*
D31*
X21781Y75641D03*
D18*
X25781Y75641D03*
D14*
X30493Y75641D03*
D30*
X38316Y75641D03*
D29*
X13780Y75819D03*
D21*
X17602Y75819D03*
D25*
X21869Y75819D03*
D20*
X25959Y75819D03*
D48*
X30493Y75819D03*
D29*
X38316Y75819D03*
D30*
X13780Y75997D03*
D19*
X17602Y75997D03*
D27*
X21869Y75997D03*
D18*
X25959Y75997D03*
D14*
X30671Y75997D03*
D30*
X38494Y75997D03*
D29*
X13780Y76175D03*
D21*
X17780Y76175D03*
D25*
X22047Y76175D03*
D26*
X26048Y76175D03*
D48*
X30671Y76175D03*
D29*
X38494Y76175D03*
X13780Y76352D03*
D21*
X17780Y76352D03*
D25*
X22047Y76352D03*
D20*
X26137Y76352D03*
D48*
X30671Y76352D03*
D29*
X38672Y76352D03*
D33*
X13691Y76530D03*
D19*
X17780Y76530D03*
D30*
X22136Y76530D03*
D18*
X26137Y76530D03*
D14*
X30848Y76530D03*
D30*
X38672Y76530D03*
D32*
X13691Y76708D03*
D21*
X17958Y76708D03*
D25*
X22225Y76708D03*
D22*
X26314Y76708D03*
D48*
X30848Y76708D03*
D32*
X38760Y76708D03*
D30*
X13602Y76886D03*
D19*
X17958Y76886D03*
D27*
X22225Y76886D03*
D28*
X26314Y76886D03*
D52*
X30937Y76886D03*
D30*
X38849Y76886D03*
D29*
X13602Y77064D03*
D48*
X18047Y77064D03*
D25*
X22403Y77064D03*
D24*
X26403Y77064D03*
D48*
X31026Y77064D03*
D29*
X38849Y77064D03*
X13602Y77241D03*
D21*
X18136Y77241D03*
D25*
X22403Y77241D03*
D20*
X26492Y77241D03*
D48*
X31026Y77241D03*
D29*
X39027Y77241D03*
D30*
X13602Y77419D03*
D19*
X18136Y77419D03*
D27*
X22403Y77419D03*
D18*
X26492Y77419D03*
D14*
X31026Y77419D03*
D30*
X39027Y77419D03*
D29*
X13602Y77597D03*
D21*
X18136Y77597D03*
D25*
X22581Y77597D03*
D20*
X26492Y77597D03*
D48*
X31204Y77597D03*
D25*
X39116Y77597D03*
D30*
X13602Y77775D03*
D19*
X18313Y77775D03*
D27*
X22581Y77775D03*
D18*
X26670Y77775D03*
D14*
X31204Y77775D03*
D30*
X39205Y77775D03*
D29*
X13602Y77953D03*
D21*
X18313Y77953D03*
D25*
X22758Y77953D03*
D20*
X26670Y77953D03*
D17*
X31293Y77953D03*
D29*
X39205Y77953D03*
X13602Y78130D03*
D48*
X18402Y78130D03*
D25*
X22758Y78130D03*
D24*
X26759Y78130D03*
D48*
X31382Y78130D03*
D29*
X39383Y78130D03*
D30*
X13602Y78308D03*
D19*
X18491Y78308D03*
D30*
X22847Y78308D03*
D18*
X26848Y78308D03*
D14*
X31382Y78308D03*
D30*
X39383Y78308D03*
D29*
X13602Y78486D03*
D21*
X18491Y78486D03*
D25*
X22936Y78486D03*
D20*
X26848Y78486D03*
D48*
X31560Y78486D03*
D29*
X39383Y78486D03*
D33*
X13513Y78664D03*
D14*
X18580Y78664D03*
D27*
X22936Y78664D03*
D23*
X26937Y78664D03*
D14*
X31560Y78664D03*
D30*
X39561Y78664D03*
D32*
X13513Y78842D03*
D21*
X18669Y78842D03*
D32*
X26848Y78842D03*
D48*
X31560Y78842D03*
D29*
X39561Y78842D03*
D32*
X13513Y79019D03*
D48*
X18758Y79019D03*
D17*
X31648Y79019D03*
D29*
X39738Y79019D03*
D30*
X13424Y79197D03*
D19*
X18847Y79197D03*
D14*
X31737Y79197D03*
D30*
X39738Y79197D03*
D29*
X13424Y79375D03*
D48*
X18936Y79375D03*
X31737Y79375D03*
D29*
X39738Y79375D03*
D30*
X13424Y79553D03*
D19*
X19025Y79553D03*
D14*
X31737Y79553D03*
D30*
X39916Y79553D03*
D29*
X13424Y79731D03*
D48*
X19114Y79731D03*
X31737Y79731D03*
D29*
X39916Y79731D03*
X13424Y79908D03*
D48*
X19291Y79908D03*
X31737Y79908D03*
D29*
X39916Y79908D03*
D30*
X13424Y80086D03*
D52*
X19380Y80086D03*
D14*
X31737Y80086D03*
D30*
X40094Y80086D03*
D29*
X13424Y80264D03*
D48*
X19469Y80264D03*
X31737Y80264D03*
D29*
X40094Y80264D03*
D30*
X13424Y80442D03*
D53*
X19558Y80442D03*
D14*
X31737Y80442D03*
D30*
X40094Y80442D03*
D29*
X13424Y80620D03*
D51*
X19825Y80620D03*
D48*
X31737Y80620D03*
D29*
X40272Y80620D03*
X13424Y80797D03*
D35*
X19914Y80797D03*
D17*
X31648Y80797D03*
D29*
X40272Y80797D03*
D33*
X13335Y80975D03*
D15*
X20091Y80975D03*
D53*
X31648Y80975D03*
D30*
X40272Y80975D03*
D32*
X13335Y81153D03*
D35*
X20269Y81153D03*
D51*
X31560Y81153D03*
D29*
X40450Y81153D03*
D33*
X13335Y81331D03*
D50*
X20536Y81331D03*
X31560Y81331D03*
D30*
X40450Y81331D03*
D32*
X13335Y81509D03*
D10*
X20803Y81509D03*
D55*
X31471Y81509D03*
D29*
X40450Y81509D03*
D32*
X13335Y81686D03*
D34*
X21069Y81686D03*
D56*
X31293Y81686D03*
D29*
X40627Y81686D03*
D30*
X13246Y81864D03*
D57*
X26581Y81864D03*
D30*
X40627Y81864D03*
D29*
X13246Y82042D03*
D58*
X26759Y82042D03*
D25*
X40716Y82042D03*
D30*
X13246Y82220D03*
D57*
X26937Y82220D03*
D30*
X40805Y82220D03*
D29*
X13246Y82398D03*
D44*
X27115Y82398D03*
D29*
X40805Y82398D03*
X13246Y82575D03*
D44*
X27292Y82575D03*
D29*
X40983Y82575D03*
D30*
X13246Y82753D03*
D43*
X27292Y82753D03*
D30*
X40983Y82753D03*
D29*
X13246Y82931D03*
D59*
X27381Y82931D03*
D29*
X40983Y82931D03*
D30*
X13246Y83109D03*
D43*
X27470Y83109D03*
D27*
X41072Y83109D03*
D29*
X13246Y83287D03*
D60*
X27381Y83287D03*
D29*
X41161Y83287D03*
X13246Y83464D03*
D60*
X27381Y83464D03*
D29*
X41161Y83464D03*
D30*
X13246Y83642D03*
D61*
X22047Y83642D03*
D52*
X33249Y83642D03*
D33*
X41250Y83642D03*
D29*
X13246Y83820D03*
D35*
X21692Y83820D03*
D48*
X33338Y83820D03*
D29*
X41339Y83820D03*
D30*
X13246Y83998D03*
D53*
X21514Y83998D03*
D19*
X33426Y83998D03*
D30*
X41339Y83998D03*
D29*
X13246Y84176D03*
D48*
X21425Y84176D03*
X33515Y84176D03*
D32*
X41427Y84176D03*
D29*
X13246Y84353D03*
D48*
X21247Y84353D03*
D21*
X33604Y84353D03*
D29*
X41516Y84353D03*
D30*
X13246Y84531D03*
D14*
X21247Y84531D03*
X33693Y84531D03*
D30*
X41516Y84531D03*
D29*
X13246Y84709D03*
D48*
X21069Y84709D03*
X33693Y84709D03*
D29*
X41516Y84709D03*
D30*
X13246Y84887D03*
D19*
X21158Y84887D03*
X33782Y84887D03*
D33*
X41605Y84887D03*
D29*
X13246Y85065D03*
D21*
X21158Y85065D03*
D48*
X33871Y85065D03*
D29*
X41694Y85065D03*
X13246Y85242D03*
D21*
X21158Y85242D03*
X33960Y85242D03*
D29*
X41694Y85242D03*
D30*
X13246Y85420D03*
D19*
X21158Y85420D03*
X33960Y85420D03*
D30*
X41872Y85420D03*
D29*
X13246Y85598D03*
D21*
X21158Y85598D03*
D48*
X34049Y85598D03*
D29*
X41872Y85598D03*
D30*
X13246Y85776D03*
D19*
X21158Y85776D03*
D14*
X34049Y85776D03*
D30*
X41872Y85776D03*
D29*
X13246Y85954D03*
D21*
X21158Y85954D03*
X34138Y85954D03*
D29*
X41872Y85954D03*
D32*
X13335Y86131D03*
D21*
X21336Y86131D03*
D62*
X34138Y86131D03*
D29*
X42050Y86131D03*
D63*
X13424Y86309D03*
D19*
X21336Y86309D03*
D52*
X34138Y86309D03*
D30*
X42050Y86309D03*
D64*
X13513Y86487D03*
D21*
X21336Y86487D03*
D35*
X34138Y86487D03*
D29*
X42050Y86487D03*
D19*
X21514Y86665D03*
D65*
X30404Y86665D03*
D33*
X42139Y86665D03*
D21*
X21514Y86843D03*
D66*
X30315Y86843D03*
D29*
X42228Y86843D03*
D21*
X21514Y87020D03*
D67*
X30404Y87020D03*
D29*
X42228Y87020D03*
D68*
X12802Y87198D03*
D19*
X21692Y87198D03*
D69*
X30493Y87198D03*
D30*
X42228Y87198D03*
D70*
X13068Y87376D03*
D21*
X21692Y87376D03*
D71*
X30493Y87376D03*
D29*
X42405Y87376D03*
D68*
X13157Y87554D03*
D54*
X21781Y87554D03*
D72*
X30582Y87554D03*
D30*
X42405Y87554D03*
D32*
X13335Y87732D03*
D21*
X21869Y87732D03*
D66*
X30671Y87732D03*
D29*
X42405Y87732D03*
D32*
X13513Y87909D03*
D21*
X21869Y87909D03*
D66*
X30671Y87909D03*
D32*
X42494Y87909D03*
D30*
X13602Y88087D03*
D54*
X21958Y88087D03*
D73*
X27115Y88087D03*
D33*
X28981Y88087D03*
X31826Y88087D03*
D30*
X42583Y88087D03*
D29*
X13780Y88265D03*
D21*
X22047Y88265D03*
D51*
X26937Y88265D03*
D29*
X42583Y88265D03*
D27*
X13868Y88443D03*
D19*
X22047Y88443D03*
D74*
X26937Y88443D03*
D33*
X42672Y88443D03*
D25*
X14046Y88621D03*
D21*
X22225Y88621D03*
D17*
X26848Y88621D03*
D29*
X42761Y88621D03*
D25*
X14224Y88798D03*
D21*
X22225Y88798D03*
D48*
X26937Y88798D03*
D29*
X42761Y88798D03*
D18*
X14402Y88976D03*
D19*
X22225Y88976D03*
D14*
X26937Y88976D03*
D30*
X42761Y88976D03*
D20*
X14580Y89154D03*
D21*
X22403Y89154D03*
D62*
X27026Y89154D03*
D32*
X42850Y89154D03*
D54*
X14669Y89332D03*
D19*
X22403Y89332D03*
D14*
X27115Y89332D03*
D30*
X42939Y89332D03*
D70*
X13068Y89510D03*
D16*
X14846Y89510D03*
D21*
X22403Y89510D03*
D17*
X27203Y89510D03*
D29*
X42939Y89510D03*
D70*
X13068Y89687D03*
D16*
X15024Y89687D03*
D21*
X22581Y89687D03*
D47*
X27648Y89687D03*
D75*
X31826Y89687D03*
D70*
X35471Y89687D03*
D64*
X36093Y89687D03*
D29*
X42939Y89687D03*
D33*
X13157Y89865D03*
D19*
X15113Y89865D03*
X22581Y89865D03*
D72*
X31471Y89865D03*
D33*
X43028Y89865D03*
D70*
X13246Y90043D03*
D21*
X15291Y90043D03*
D16*
X22670Y90043D03*
D67*
X31471Y90043D03*
D29*
X43117Y90043D03*
D33*
X13335Y90221D03*
D19*
X15469Y90221D03*
X22758Y90221D03*
D76*
X31648Y90221D03*
D30*
X43117Y90221D03*
D32*
X13335Y90399D03*
D48*
X15558Y90399D03*
D21*
X22758Y90399D03*
D77*
X31648Y90399D03*
D29*
X43117Y90399D03*
D32*
X13335Y90576D03*
D48*
X15735Y90576D03*
D21*
X22936Y90576D03*
D77*
X31648Y90576D03*
D32*
X43205Y90576D03*
D33*
X13335Y90754D03*
D14*
X15913Y90754D03*
D19*
X22936Y90754D03*
D72*
X31826Y90754D03*
D30*
X43294Y90754D03*
D32*
X13335Y90932D03*
D17*
X16002Y90932D03*
D16*
X23025Y90932D03*
D67*
X31826Y90932D03*
D29*
X43294Y90932D03*
D33*
X13335Y91110D03*
D74*
X16269Y91110D03*
D19*
X23114Y91110D03*
D69*
X31915Y91110D03*
D30*
X43294Y91110D03*
D32*
X13335Y91288D03*
D51*
X16269Y91288D03*
D21*
X23114Y91288D03*
D66*
X32093Y91288D03*
D32*
X43383Y91288D03*
D29*
X13424Y91465D03*
D51*
X16447Y91465D03*
D16*
X23203Y91465D03*
D51*
X36005Y91465D03*
D29*
X43472Y91465D03*
D30*
X13424Y91643D03*
D15*
X16713Y91643D03*
D19*
X23292Y91643D03*
D14*
X36182Y91643D03*
D30*
X43472Y91643D03*
D29*
X13424Y91821D03*
D47*
X16802Y91821D03*
D21*
X23292Y91821D03*
D48*
X36360Y91821D03*
D29*
X43472Y91821D03*
D30*
X13424Y91999D03*
D50*
X16980Y91999D03*
D54*
X23381Y91999D03*
D14*
X36360Y91999D03*
D33*
X43561Y91999D03*
D29*
X13424Y92177D03*
D10*
X17069Y92177D03*
D21*
X23470Y92177D03*
D48*
X36538Y92177D03*
D32*
X43561Y92177D03*
D29*
X13424Y92354D03*
D10*
X17247Y92354D03*
D21*
X23470Y92354D03*
D48*
X36538Y92354D03*
D29*
X43650Y92354D03*
D30*
X13424Y92532D03*
D61*
X17424Y92532D03*
D19*
X23647Y92532D03*
D14*
X36538Y92532D03*
D30*
X43650Y92532D03*
D29*
X13424Y92710D03*
D78*
X17513Y92710D03*
D16*
X23559Y92710D03*
D17*
X36627Y92710D03*
D32*
X43739Y92710D03*
D33*
X13513Y92888D03*
D79*
X17780Y92888D03*
D54*
X23559Y92888D03*
D14*
X36716Y92888D03*
D30*
X43828Y92888D03*
D32*
X13513Y93066D03*
D34*
X17869Y93066D03*
D25*
X23470Y93066D03*
D64*
X25959Y93066D03*
D62*
X36805Y93066D03*
D29*
X43828Y93066D03*
D32*
X13513Y93243D03*
D34*
X18047Y93243D03*
D64*
X23292Y93243D03*
D29*
X25692Y93243D03*
D62*
X36805Y93243D03*
D29*
X43828Y93243D03*
D33*
X13513Y93421D03*
D80*
X18225Y93421D03*
D27*
X25425Y93421D03*
D14*
X36894Y93421D03*
D33*
X43917Y93421D03*
D32*
X13513Y93599D03*
D34*
X18402Y93599D03*
D26*
X25159Y93599D03*
D17*
X36982Y93599D03*
D32*
X43917Y93599D03*
D33*
X13513Y93777D03*
D81*
X18491Y93777D03*
D18*
X24892Y93777D03*
D53*
X36982Y93777D03*
D33*
X43917Y93777D03*
D32*
X13513Y93955D03*
D56*
X18669Y93955D03*
D21*
X24714Y93955D03*
D51*
X36894Y93955D03*
D29*
X44006Y93955D03*
D32*
X13513Y94132D03*
D82*
X18758Y94132D03*
D62*
X24359Y94132D03*
D20*
X27026Y94132D03*
D70*
X34227Y94132D03*
D10*
X36805Y94132D03*
D29*
X44006Y94132D03*
D30*
X13602Y94310D03*
D83*
X18936Y94310D03*
D74*
X24270Y94310D03*
D84*
X32182Y94310D03*
D33*
X44094Y94310D03*
D29*
X13602Y94488D03*
D82*
X19114Y94488D03*
D47*
X23914Y94488D03*
D85*
X32093Y94488D03*
D32*
X44094Y94488D03*
D30*
X13602Y94666D03*
D11*
X19202Y94666D03*
D86*
X21336Y94666D03*
D61*
X23647Y94666D03*
D87*
X32182Y94666D03*
D30*
X44183Y94666D03*
D29*
X13602Y94844D03*
D88*
X21158Y94844D03*
D89*
X32093Y94844D03*
D29*
X44183Y94844D03*
X13602Y95021D03*
D90*
X21069Y95021D03*
D91*
X32093Y95021D03*
D29*
X44183Y95021D03*
D30*
X13602Y95199D03*
D92*
X21158Y95199D03*
D93*
X32093Y95199D03*
D33*
X44272Y95199D03*
D29*
X13602Y95377D03*
D94*
X21158Y95377D03*
D59*
X32004Y95377D03*
D29*
X44361Y95377D03*
D33*
X13691Y95555D03*
D95*
X21158Y95555D03*
D96*
X32004Y95555D03*
D30*
X44361Y95555D03*
D32*
X13691Y95733D03*
D97*
X21158Y95733D03*
D20*
X25781Y95733D03*
D16*
X27470Y95733D03*
D29*
X29070Y95733D03*
X31204Y95733D03*
D36*
X32360Y95733D03*
D70*
X33160Y95733D03*
D35*
X37516Y95733D03*
D29*
X44361Y95733D03*
D32*
X13691Y95910D03*
D98*
X21069Y95910D03*
D25*
X25603Y95910D03*
D48*
X37783Y95910D03*
D32*
X44450Y95910D03*
D33*
X13691Y96088D03*
D99*
X21069Y96088D03*
D27*
X25425Y96088D03*
D14*
X37960Y96088D03*
D33*
X44450Y96088D03*
D32*
X13691Y96266D03*
D100*
X21158Y96266D03*
D24*
X25337Y96266D03*
D48*
X37960Y96266D03*
D29*
X44539Y96266D03*
D33*
X13691Y96444D03*
D101*
X21069Y96444D03*
D18*
X25248Y96444D03*
D19*
X38049Y96444D03*
D30*
X44539Y96444D03*
D32*
X13691Y96622D03*
D102*
X21069Y96622D03*
D20*
X25248Y96622D03*
D48*
X38138Y96622D03*
D29*
X44539Y96622D03*
D32*
X13691Y96799D03*
X17424Y96799D03*
D102*
X21069Y96799D03*
D21*
X25248Y96799D03*
D48*
X38138Y96799D03*
D32*
X44628Y96799D03*
D15*
X8712Y96977D03*
D33*
X13691Y96977D03*
D19*
X17069Y96977D03*
D103*
X21158Y96977D03*
D19*
X25248Y96977D03*
D14*
X38316Y96977D03*
D33*
X44628Y96977D03*
D78*
X8623Y97155D03*
D29*
X13780Y97155D03*
D21*
X17069Y97155D03*
D104*
X21158Y97155D03*
D21*
X25248Y97155D03*
D48*
X38316Y97155D03*
D29*
X44717Y97155D03*
D81*
X8357Y97333D03*
D30*
X13780Y97333D03*
D19*
X17069Y97333D03*
D103*
X21158Y97333D03*
D19*
X25425Y97333D03*
D14*
X38316Y97333D03*
D30*
X44717Y97333D03*
D105*
X8268Y97511D03*
D32*
X13868Y97511D03*
D20*
X17069Y97511D03*
D104*
X21158Y97511D03*
D21*
X25425Y97511D03*
D48*
X38494Y97511D03*
D32*
X44806Y97511D03*
D46*
X8179Y97688D03*
D32*
X13868Y97688D03*
D24*
X16980Y97688D03*
D106*
X21158Y97688D03*
D21*
X25603Y97688D03*
D48*
X38494Y97688D03*
D32*
X44806Y97688D03*
D107*
X8090Y97866D03*
D33*
X13868Y97866D03*
D27*
X17069Y97866D03*
D101*
X21069Y97866D03*
D19*
X25603Y97866D03*
D14*
X38494Y97866D03*
D86*
X44983Y97866D03*
D75*
X8001Y98044D03*
D32*
X13868Y98044D03*
D29*
X16980Y98044D03*
D100*
X21158Y98044D03*
D16*
X25692Y98044D03*
D48*
X38672Y98044D03*
D103*
X8001Y98222D03*
D33*
X13868Y98222D03*
X16891Y98222D03*
D38*
X21158Y98222D03*
D19*
X25781Y98222D03*
D14*
X38672Y98222D03*
D104*
X8001Y98400D03*
D32*
X13868Y98400D03*
X16891Y98400D03*
D98*
X21069Y98400D03*
D16*
X25870Y98400D03*
D35*
X38583Y98400D03*
D106*
X8001Y98577D03*
D32*
X13868Y98577D03*
D64*
X16891Y98577D03*
D97*
X21158Y98577D03*
D48*
X26048Y98577D03*
D47*
X38672Y98577D03*
D101*
X7912Y98755D03*
D30*
X13957Y98755D03*
D95*
X21158Y98755D03*
D108*
X33604Y98755D03*
D109*
X7912Y98933D03*
D29*
X13957Y98933D03*
D110*
X21069Y98933D03*
D111*
X34138Y98933D03*
D99*
X7912Y99111D03*
D30*
X13957Y99111D03*
D92*
X21158Y99111D03*
D112*
X34493Y99111D03*
D13*
X7912Y99289D03*
D29*
X13957Y99289D03*
D90*
X21069Y99289D03*
D113*
X34849Y99289D03*
D114*
X8001Y99466D03*
D32*
X14046Y99466D03*
D115*
X21069Y99466D03*
D116*
X35204Y99466D03*
D38*
X8001Y99644D03*
D33*
X14046Y99644D03*
D117*
X21158Y99644D03*
D118*
X35382Y99644D03*
D98*
X7912Y99822D03*
D32*
X14046Y99822D03*
D55*
X18669Y99822D03*
D105*
X23025Y99822D03*
D119*
X35649Y99822D03*
D38*
X8001Y100000D03*
D33*
X14046Y100000D03*
D73*
X18402Y100000D03*
D11*
X23292Y100000D03*
D120*
X35827Y100000D03*
D97*
X8001Y100178D03*
D32*
X14046Y100178D03*
D35*
X18136Y100178D03*
D121*
X23470Y100178D03*
D122*
X36093Y100178D03*
D97*
X8001Y100355D03*
D32*
X14046Y100355D03*
D123*
X17869Y100355D03*
D82*
X23559Y100355D03*
D124*
X36271Y100355D03*
D125*
X8090Y100533D03*
D33*
X14046Y100533D03*
D14*
X17513Y100533D03*
D83*
X23736Y100533D03*
D18*
X27026Y100533D03*
D126*
X44539Y100533D03*
D127*
X8090Y100711D03*
D32*
X14046Y100711D03*
D16*
X17158Y100711D03*
D24*
X20536Y100711D03*
D56*
X23825Y100711D03*
D24*
X27115Y100711D03*
D82*
X44895Y100711D03*
D128*
X8179Y100889D03*
D33*
X14224Y100889D03*
D31*
X16980Y100889D03*
D19*
X20447Y100889D03*
D81*
X24003Y100889D03*
D27*
X27026Y100889D03*
D80*
X45250Y100889D03*
D129*
X8268Y101067D03*
D32*
X14224Y101067D03*
D25*
X16713Y101067D03*
D51*
X20358Y101067D03*
D34*
X24270Y101067D03*
D29*
X27115Y101067D03*
D55*
X45517Y101067D03*
D129*
X8268Y101244D03*
D32*
X14224Y101244D03*
D70*
X16447Y101244D03*
D10*
X20269Y101244D03*
D55*
X24359Y101244D03*
D32*
X27203Y101244D03*
D78*
X45784Y101244D03*
D128*
X8357Y101422D03*
D33*
X14224Y101422D03*
D81*
X20091Y101422D03*
D130*
X24536Y101422D03*
D33*
X27203Y101422D03*
D61*
X46050Y101422D03*
D127*
X8446Y101600D03*
D32*
X14224Y101600D03*
D105*
X20003Y101600D03*
D78*
X24625Y101600D03*
D32*
X27381Y101600D03*
D78*
X46317Y101600D03*
D125*
X8446Y101778D03*
D33*
X14224Y101778D03*
D131*
X20091Y101778D03*
D132*
X24803Y101778D03*
D133*
X27470Y101778D03*
D61*
X46584Y101778D03*
D97*
X8534Y101956D03*
D32*
X14224Y101956D03*
D134*
X20180Y101956D03*
D78*
X24981Y101956D03*
D32*
X27559Y101956D03*
D10*
X46761Y101956D03*
D109*
X8090Y102133D03*
D32*
X14224Y102133D03*
D46*
X20447Y102133D03*
D10*
X25070Y102133D03*
D135*
X27648Y102133D03*
D35*
X46939Y102133D03*
D136*
X8001Y102311D03*
D33*
X14224Y102311D03*
D81*
X20980Y102311D03*
D61*
X25248Y102311D03*
D33*
X27737Y102311D03*
D15*
X47117Y102311D03*
D102*
X8090Y102489D03*
D135*
X14313Y102489D03*
D82*
X21247Y102489D03*
D10*
X25425Y102489D03*
D70*
X27826Y102489D03*
D35*
X47295Y102489D03*
D103*
X8001Y102667D03*
D33*
X14402Y102667D03*
D83*
X21425Y102667D03*
D50*
X25514Y102667D03*
D68*
X27915Y102667D03*
D15*
X47473Y102667D03*
D104*
X8001Y102845D03*
D32*
X14402Y102845D03*
D56*
X21514Y102845D03*
D35*
X25781Y102845D03*
D70*
X28004Y102845D03*
D35*
X47650Y102845D03*
D104*
X8179Y103022D03*
D32*
X14402Y103022D03*
D121*
X21692Y103022D03*
D35*
X25959Y103022D03*
D64*
X28092Y103022D03*
D51*
X47739Y103022D03*
D103*
X8179Y103200D03*
D33*
X14402Y103200D03*
D11*
X21869Y103200D03*
D74*
X26048Y103200D03*
D68*
X28270Y103200D03*
D53*
X48006Y103200D03*
D104*
X8179Y103378D03*
D32*
X14402Y103378D03*
D105*
X21958Y103378D03*
D51*
X26226Y103378D03*
D36*
X28270Y103378D03*
D106*
X33960Y103378D03*
D16*
X40627Y103378D03*
D17*
X48184Y103378D03*
D37*
X8268Y103556D03*
D133*
X14491Y103556D03*
D131*
X22047Y103556D03*
D53*
X26314Y103556D03*
D136*
X33960Y103556D03*
D49*
X40983Y103556D03*
D14*
X48273Y103556D03*
D104*
X8357Y103734D03*
D70*
X14491Y103734D03*
D46*
X22225Y103734D03*
D62*
X26492Y103734D03*
D109*
X34049Y103734D03*
D137*
X41427Y103734D03*
D62*
X48362Y103734D03*
D104*
X8357Y103911D03*
D70*
X14491Y103911D03*
D134*
X22314Y103911D03*
D17*
X26670Y103911D03*
D109*
X34049Y103911D03*
D56*
X41605Y103911D03*
D17*
X48539Y103911D03*
D138*
X8446Y104089D03*
D133*
X14491Y104089D03*
D107*
X22492Y104089D03*
D14*
X26759Y104089D03*
D136*
X34138Y104089D03*
D83*
X41694Y104089D03*
D14*
X48628Y104089D03*
D12*
X8534Y104267D03*
D32*
X14580Y104267D03*
D139*
X22670Y104267D03*
D48*
X26937Y104267D03*
D109*
X34227Y104267D03*
D140*
X41961Y104267D03*
D48*
X48806Y104267D03*
D141*
X8534Y104445D03*
D33*
X14580Y104445D03*
D141*
X22758Y104445D03*
D14*
X27115Y104445D03*
D136*
X34315Y104445D03*
D131*
X42139Y104445D03*
D14*
X48984Y104445D03*
D104*
X8712Y104623D03*
D32*
X14580Y104623D03*
D102*
X22847Y104623D03*
D21*
X27203Y104623D03*
D106*
X34315Y104623D03*
D134*
X42228Y104623D03*
D21*
X49073Y104623D03*
D104*
X8712Y104800D03*
X22936Y104800D03*
D16*
X27470Y104800D03*
D109*
X34404Y104800D03*
D134*
X42405Y104800D03*
D48*
X49162Y104800D03*
D37*
X8801Y104978D03*
D142*
X23025Y104978D03*
D18*
X27559Y104978D03*
D136*
X34493Y104978D03*
D143*
X42494Y104978D03*
D19*
X49251Y104978D03*
D104*
X8890Y105156D03*
X23114Y105156D03*
D20*
X27737Y105156D03*
D123*
X32982Y105156D03*
D64*
X34315Y105156D03*
D51*
X36182Y105156D03*
D144*
X42583Y105156D03*
D48*
X49340Y105156D03*
D103*
X8890Y105334D03*
D142*
X23203Y105334D03*
D18*
X27915Y105334D03*
D49*
X32982Y105334D03*
D52*
X36271Y105334D03*
D138*
X42761Y105334D03*
D19*
X49428Y105334D03*
D139*
X8979Y105512D03*
D102*
X23203Y105512D03*
D24*
X28004Y105512D03*
D48*
X32982Y105512D03*
X36360Y105512D03*
D104*
X42850Y105512D03*
D48*
X49517Y105512D03*
D104*
X9068Y105689D03*
D102*
X23203Y105689D03*
D24*
X28181Y105689D03*
D48*
X32982Y105689D03*
X36360Y105689D03*
D104*
X42850Y105689D03*
D62*
X49606Y105689D03*
D103*
X9068Y105867D03*
D136*
X23292Y105867D03*
D23*
X28359Y105867D03*
D53*
X33071Y105867D03*
D14*
X36538Y105867D03*
D103*
X43028Y105867D03*
D14*
X49695Y105867D03*
D104*
X9246Y106045D03*
D106*
X23292Y106045D03*
D25*
X28448Y106045D03*
D48*
X33160Y106045D03*
X36538Y106045D03*
D51*
X41694Y106045D03*
D35*
X44450Y106045D03*
D48*
X49695Y106045D03*
D103*
X9246Y106223D03*
D145*
X23292Y106223D03*
D27*
X28626Y106223D03*
D52*
X33249Y106223D03*
D19*
X36627Y106223D03*
D52*
X41605Y106223D03*
D53*
X44628Y106223D03*
D14*
X49873Y106223D03*
D109*
X9512Y106401D03*
D98*
X23025Y106401D03*
D29*
X28715Y106401D03*
D48*
X33338Y106401D03*
X36716Y106401D03*
X41694Y106401D03*
D62*
X44806Y106401D03*
D48*
X49873Y106401D03*
D146*
X16535Y106578D03*
D32*
X28981Y106578D03*
D17*
X33426Y106578D03*
D48*
X36716Y106578D03*
X41694Y106578D03*
X44895Y106578D03*
D21*
X49962Y106578D03*
D147*
X16535Y106756D03*
D30*
X29070Y106756D03*
D15*
X33604Y106756D03*
D74*
X36716Y106756D03*
D14*
X41694Y106756D03*
X45072Y106756D03*
X50051Y106756D03*
D148*
X16713Y106934D03*
D32*
X29159Y106934D03*
D35*
X33782Y106934D03*
X36627Y106934D03*
D48*
X41872Y106934D03*
X45072Y106934D03*
X50051Y106934D03*
D118*
X16713Y107112D03*
D63*
X29426Y107112D03*
D136*
X35204Y107112D03*
D14*
X41872Y107112D03*
X45250Y107112D03*
D19*
X50140Y107112D03*
D149*
X16802Y107290D03*
D64*
X29515Y107290D03*
D109*
X35293Y107290D03*
D48*
X41872Y107290D03*
D21*
X45339Y107290D03*
D48*
X50229Y107290D03*
D149*
X16802Y107467D03*
D36*
X29693Y107467D03*
D106*
X35382Y107467D03*
D48*
X42050Y107467D03*
X45428Y107467D03*
D21*
X50317Y107467D03*
D150*
X16891Y107645D03*
D86*
X28448Y107645D03*
D136*
X35382Y107645D03*
D52*
X42139Y107645D03*
D19*
X45517Y107645D03*
D14*
X50406Y107645D03*
D151*
X16980Y107823D03*
D135*
X28537Y107823D03*
D106*
X35560Y107823D03*
D48*
X42228Y107823D03*
D21*
X45517Y107823D03*
D48*
X50406Y107823D03*
D150*
X17069Y108001D03*
D133*
X28715Y108001D03*
D136*
X35560Y108001D03*
D14*
X42228Y108001D03*
X45606Y108001D03*
D19*
X50495Y108001D03*
D116*
X17069Y108179D03*
D32*
X28804Y108179D03*
D102*
X35649Y108179D03*
D17*
X42316Y108179D03*
D21*
X45695Y108179D03*
D48*
X50584Y108179D03*
D152*
X17158Y108356D03*
D25*
X28981Y108356D03*
D102*
X35649Y108356D03*
D48*
X42405Y108356D03*
X45784Y108356D03*
D21*
X50673Y108356D03*
D153*
X17247Y108534D03*
D27*
X29159Y108534D03*
D103*
X35738Y108534D03*
D14*
X42405Y108534D03*
X45784Y108534D03*
D19*
X50673Y108534D03*
D113*
X17247Y108712D03*
D26*
X29248Y108712D03*
D62*
X42494Y108712D03*
D21*
X45872Y108712D03*
D48*
X50762Y108712D03*
D154*
X17336Y108890D03*
D31*
X29426Y108890D03*
D14*
X42583Y108890D03*
X45961Y108890D03*
X50762Y108890D03*
D155*
X17424Y109068D03*
D20*
X29515Y109068D03*
D48*
X42583Y109068D03*
D21*
X46050Y109068D03*
D48*
X50762Y109068D03*
D156*
X17513Y109245D03*
D16*
X29604Y109245D03*
D48*
X42583Y109245D03*
D123*
X46317Y109245D03*
D35*
X50673Y109245D03*
D157*
X17424Y109423D03*
D54*
X29782Y109423D03*
D14*
X42583Y109423D03*
D158*
X48539Y109423D03*
D159*
X17513Y109601D03*
D21*
X29870Y109601D03*
D48*
X42583Y109601D03*
D160*
X48539Y109601D03*
D161*
X17691Y109779D03*
D19*
X30048Y109779D03*
X42672Y109779D03*
D95*
X48717Y109779D03*
D162*
X17691Y109957D03*
D17*
X30226Y109957D03*
D21*
X42672Y109957D03*
D94*
X48717Y109957D03*
D163*
X17780Y110134D03*
D17*
X30404Y110134D03*
D21*
X42672Y110134D03*
D94*
X48717Y110134D03*
D164*
X17780Y110312D03*
D53*
X30404Y110312D03*
D14*
X42583Y110312D03*
D95*
X48895Y110312D03*
D165*
X17869Y110490D03*
D62*
X30582Y110490D03*
D48*
X42583Y110490D03*
D94*
X48895Y110490D03*
D166*
X17869Y110668D03*
D53*
X30759Y110668D03*
D52*
X42494Y110668D03*
D95*
X48895Y110668D03*
D167*
X17958Y110846D03*
D62*
X30937Y110846D03*
D35*
X42494Y110846D03*
D127*
X48984Y110846D03*
D168*
X18047Y111023D03*
D17*
X31115Y111023D03*
D47*
X42405Y111023D03*
D98*
X48984Y111023D03*
D96*
X18136Y111201D03*
D74*
X31382Y111201D03*
D130*
X42316Y111201D03*
D89*
X18225Y111379D03*
D169*
X37249Y111379D03*
D170*
X18225Y111557D03*
D45*
X37427Y111557D03*
D60*
X37694Y111735D03*
X37694Y111912D03*
D43*
X37783Y112090D03*
D44*
X37960Y112268D03*
D43*
X37960Y112446D03*
D60*
X38049Y112624D03*
X38049Y112801D03*
D99*
X16269Y112979D03*
D96*
X38049Y112979D03*
D171*
X16535Y113157D03*
D47*
X32449Y113157D03*
D48*
X44006Y113157D03*
D172*
X16624Y113335D03*
D74*
X32271Y113335D03*
D19*
X44094Y113335D03*
D173*
X16802Y113513D03*
D17*
X32182Y113513D03*
D48*
X44183Y113513D03*
D71*
X16802Y113690D03*
D17*
X32004Y113690D03*
D48*
X44183Y113690D03*
D174*
X16891Y113868D03*
D14*
X31915Y113868D03*
D19*
X44272Y113868D03*
D175*
X17069Y114046D03*
D48*
X31915Y114046D03*
X44361Y114046D03*
D176*
X17069Y114224D03*
D19*
X31826Y114224D03*
D14*
X44361Y114224D03*
D177*
X17158Y114402D03*
D21*
X31826Y114402D03*
D48*
X44539Y114402D03*
D85*
X17158Y114579D03*
D21*
X31826Y114579D03*
D48*
X44539Y114579D03*
D87*
X17247Y114757D03*
D19*
X31826Y114757D03*
X44628Y114757D03*
D89*
X17336Y114935D03*
D21*
X31826Y114935D03*
D48*
X44717Y114935D03*
D178*
X17424Y115113D03*
D19*
X31826Y115113D03*
D14*
X44717Y115113D03*
D59*
X17424Y115291D03*
D21*
X31826Y115291D03*
X44806Y115291D03*
D44*
X17513Y115468D03*
D16*
X31915Y115468D03*
D48*
X44895Y115468D03*
D96*
X17602Y115646D03*
D19*
X32004Y115646D03*
D52*
X44806Y115646D03*
D169*
X17691Y115824D03*
D21*
X32004Y115824D03*
D51*
X44895Y115824D03*
D179*
X17602Y116002D03*
D14*
X32093Y116002D03*
D86*
X37871Y116002D03*
D133*
X39561Y116002D03*
X42405Y116002D03*
D50*
X44717Y116002D03*
D180*
X17691Y116180D03*
D21*
X32182Y116180D03*
D66*
X40983Y116180D03*
D181*
X17780Y116357D03*
D21*
X32182Y116357D03*
D67*
X41072Y116357D03*
D182*
X17780Y116535D03*
D19*
X32360Y116535D03*
D72*
X41072Y116535D03*
D168*
X17869Y116713D03*
D21*
X32360Y116713D03*
D71*
X41161Y116713D03*
D183*
X18047Y116891D03*
D19*
X32360Y116891D03*
D72*
X41250Y116891D03*
D168*
X18047Y117069D03*
D48*
X32449Y117069D03*
D66*
X41339Y117069D03*
D184*
X18136Y117246D03*
D21*
X32537Y117246D03*
D77*
X41427Y117246D03*
D185*
X18136Y117424D03*
D19*
X32537Y117424D03*
D76*
X41427Y117424D03*
D186*
X18225Y117602D03*
D21*
X32715Y117602D03*
D66*
X41516Y117602D03*
D187*
X18313Y117780D03*
D19*
X32715Y117780D03*
D74*
X37605Y117780D03*
D188*
X18313Y117958D03*
D21*
X32715Y117958D03*
D51*
X37605Y117958D03*
D186*
X18402Y118135D03*
D21*
X32893Y118135D03*
D48*
X37605Y118135D03*
D142*
X13780Y118313D03*
X23203Y118313D03*
D19*
X32893Y118313D03*
X37516Y118313D03*
D104*
X13691Y118491D03*
X23292Y118491D03*
D21*
X33071Y118491D03*
D48*
X37605Y118491D03*
D103*
X13691Y118669D03*
X23470Y118669D03*
D19*
X33071Y118669D03*
X37694Y118669D03*
D139*
X13780Y118847D03*
X23559Y118847D03*
D21*
X33071Y118847D03*
D48*
X37783Y118847D03*
D139*
X13780Y119024D03*
D12*
X23647Y119024D03*
D21*
X33249Y119024D03*
X37871Y119024D03*
D138*
X13780Y119202D03*
D141*
X23647Y119202D03*
D19*
X33249Y119202D03*
D52*
X38049Y119202D03*
D139*
X13957Y119380D03*
X23736Y119380D03*
D21*
X33249Y119380D03*
D51*
X38138Y119380D03*
D138*
X13957Y119558D03*
D103*
X23825Y119558D03*
D19*
X33426Y119558D03*
D65*
X42139Y119558D03*
D144*
X14135Y119736D03*
X23914Y119736D03*
D21*
X33426Y119736D03*
D189*
X42139Y119736D03*
D144*
X14135Y119913D03*
X23914Y119913D03*
D16*
X33515Y119913D03*
D189*
X42316Y119913D03*
D37*
X14135Y120091D03*
D103*
X24003Y120091D03*
D19*
X33604Y120091D03*
D65*
X42316Y120091D03*
D139*
X14313Y120269D03*
X24092Y120269D03*
D21*
X33604Y120269D03*
D66*
X42405Y120269D03*
D138*
X14313Y120447D03*
D103*
X24181Y120447D03*
D19*
X33782Y120447D03*
D65*
X42494Y120447D03*
D139*
X14313Y120625D03*
D104*
X24181Y120625D03*
D21*
X33782Y120625D03*
D189*
X42494Y120625D03*
D144*
X14491Y120802D03*
X24270Y120802D03*
D21*
X33782Y120802D03*
D71*
X42583Y120802D03*
D37*
X14491Y120980D03*
D103*
X24359Y120980D03*
D19*
X33960Y120980D03*
D65*
X42672Y120980D03*
D104*
X14580Y121158D03*
D139*
X24448Y121158D03*
D21*
X33960Y121158D03*
D51*
X39738Y121158D03*
D64*
X41072Y121158D03*
D48*
X42939Y121158D03*
D25*
X44628Y121158D03*
D35*
X46584Y121158D03*
D138*
X14669Y121336D03*
X24448Y121336D03*
D14*
X34049Y121336D03*
D19*
X46939Y121336D03*
D12*
X14757Y121514D03*
X24536Y121514D03*
D21*
X34138Y121514D03*
X46939Y121514D03*
D12*
X14757Y121691D03*
X24536Y121691D03*
D21*
X34138Y121691D03*
X47117Y121691D03*
D103*
X14935Y121869D03*
D142*
X24625Y121869D03*
D52*
X34138Y121869D03*
D19*
X47117Y121869D03*
D104*
X14935Y122047D03*
D36*
X17602Y122047D03*
D109*
X24625Y122047D03*
D51*
X34049Y122047D03*
D16*
X47206Y122047D03*
D142*
X15202Y122225D03*
D38*
X24536Y122225D03*
D15*
X33960Y122225D03*
D19*
X47295Y122225D03*
D190*
X24003Y122403D03*
D21*
X47295Y122403D03*
D190*
X24003Y122580D03*
D21*
X47473Y122580D03*
D191*
X24092Y122758D03*
D19*
X47473Y122758D03*
D190*
X24181Y122936D03*
D21*
X47473Y122936D03*
D192*
X24181Y123114D03*
D19*
X47650Y123114D03*
D190*
X24359Y123292D03*
D21*
X47650Y123292D03*
D190*
X24359Y123469D03*
D21*
X47650Y123469D03*
D192*
X24359Y123647D03*
D53*
X47650Y123647D03*
D193*
X24536Y123825D03*
D51*
X47562Y123825D03*
D194*
X31026Y124003D03*
D195*
X31026Y124181D03*
D196*
X31115Y124358D03*
D194*
X31204Y124536D03*
D196*
X31293Y124714D03*
D197*
X31293Y124892D03*
D195*
X31382Y125070D03*
D196*
X31471Y125247D03*
D197*
X31471Y125425D03*
D195*
X31560Y125603D03*
D198*
X23825Y125781D03*
D61*
X43739Y125781D03*
D52*
X48362Y125781D03*
D199*
X23647Y125959D03*
D51*
X44006Y125959D03*
D21*
X48717Y125959D03*
D119*
X23559Y126136D03*
D62*
X43917Y126136D03*
D21*
X48717Y126136D03*
D147*
X23647Y126314D03*
D14*
X44006Y126314D03*
D54*
X48806Y126314D03*
D119*
X23736Y126492D03*
D48*
X44006Y126492D03*
D21*
X48895Y126492D03*
D118*
X23825Y126670D03*
D19*
X44094Y126670D03*
X48895Y126670D03*
D119*
X23914Y126848D03*
D48*
X44183Y126848D03*
D16*
X48984Y126848D03*
D119*
X23914Y127025D03*
D48*
X44183Y127025D03*
D21*
X49073Y127025D03*
D118*
X24003Y127203D03*
D86*
X36093Y127203D03*
X36449Y127203D03*
D19*
X44272Y127203D03*
X49073Y127203D03*
D148*
X24003Y127381D03*
D98*
X38494Y127381D03*
D48*
X44361Y127381D03*
D21*
X49251Y127381D03*
D73*
X28181Y127559D03*
D52*
X32715Y127559D03*
D128*
X38583Y127559D03*
D14*
X44361Y127559D03*
D19*
X49251Y127559D03*
D35*
X28270Y127737D03*
D48*
X32804Y127737D03*
D97*
X38583Y127737D03*
D21*
X44450Y127737D03*
X49251Y127737D03*
D35*
X28270Y127914D03*
D48*
X32982Y127914D03*
D98*
X38672Y127914D03*
D48*
X44539Y127914D03*
D21*
X49428Y127914D03*
D52*
X28270Y128092D03*
D14*
X32982Y128092D03*
D128*
X38760Y128092D03*
D19*
X44628Y128092D03*
X49428Y128092D03*
D62*
X28270Y128270D03*
D21*
X33071Y128270D03*
D97*
X38760Y128270D03*
D21*
X44628Y128270D03*
D16*
X49517Y128270D03*
D52*
X28270Y128448D03*
D14*
X33160Y128448D03*
D200*
X38849Y128448D03*
D14*
X44717Y128448D03*
D19*
X49606Y128448D03*
D62*
X28270Y128626D03*
D48*
X33160Y128626D03*
D97*
X38938Y128626D03*
D48*
X44717Y128626D03*
D21*
X49606Y128626D03*
D17*
X28448Y128803D03*
D48*
X33338Y128803D03*
D97*
X38938Y128803D03*
D21*
X44806Y128803D03*
X49784Y128803D03*
D53*
X28448Y128981D03*
D14*
X33338Y128981D03*
D15*
X37160Y128981D03*
D52*
X41250Y128981D03*
D14*
X44895Y128981D03*
D19*
X49784Y128981D03*
D48*
X28537Y129159D03*
X33338Y129159D03*
D17*
X36982Y129159D03*
D48*
X41339Y129159D03*
D21*
X44983Y129159D03*
X49784Y129159D03*
D53*
X28626Y129337D03*
D19*
X33426Y129337D03*
D53*
X36982Y129337D03*
D14*
X41516Y129337D03*
X45072Y129337D03*
D19*
X49962Y129337D03*
D17*
X28626Y129515D03*
D48*
X33515Y129515D03*
D21*
X36982Y129515D03*
X41605Y129515D03*
D48*
X45072Y129515D03*
D21*
X49962Y129515D03*
D32*
X20625Y129692D03*
D62*
X28804Y129692D03*
D21*
X33604Y129692D03*
D48*
X37071Y129692D03*
D21*
X41605Y129692D03*
X45161Y129692D03*
X49962Y129692D03*
D33*
X20625Y129870D03*
D52*
X28804Y129870D03*
D14*
X33693Y129870D03*
X37071Y129870D03*
X41694Y129870D03*
X45250Y129870D03*
D19*
X50140Y129870D03*
D29*
X20714Y130048D03*
D62*
X28804Y130048D03*
D48*
X33693Y130048D03*
D21*
X37160Y130048D03*
X41783Y130048D03*
D48*
X45250Y130048D03*
D21*
X50140Y130048D03*
D33*
X20803Y130226D03*
D53*
X28981Y130226D03*
D19*
X33782Y130226D03*
X37160Y130226D03*
D14*
X41872Y130226D03*
D19*
X45339Y130226D03*
X50317Y130226D03*
D32*
X20803Y130404D03*
D17*
X28981Y130404D03*
D48*
X33871Y130404D03*
X37249Y130404D03*
X42050Y130404D03*
X45428Y130404D03*
D21*
X50317Y130404D03*
D32*
X20803Y130581D03*
D48*
X29070Y130581D03*
X33871Y130581D03*
D21*
X37338Y130581D03*
X41961Y130581D03*
D48*
X45428Y130581D03*
D21*
X50317Y130581D03*
D33*
X20980Y130759D03*
D52*
X29159Y130759D03*
D19*
X33960Y130759D03*
D14*
X37427Y130759D03*
X42050Y130759D03*
X45606Y130759D03*
D19*
X50495Y130759D03*
D32*
X20980Y130937D03*
D62*
X29159Y130937D03*
D48*
X34049Y130937D03*
D21*
X37516Y130937D03*
X42139Y130937D03*
D48*
X45606Y130937D03*
D21*
X50495Y130937D03*
D33*
X21158Y131115D03*
D14*
X29248Y131115D03*
D19*
X34138Y131115D03*
X37516Y131115D03*
X42139Y131115D03*
X45695Y131115D03*
X50495Y131115D03*
D32*
X21158Y131293D03*
D17*
X29337Y131293D03*
D48*
X34227Y131293D03*
X37605Y131293D03*
X42228Y131293D03*
X45784Y131293D03*
D21*
X50673Y131293D03*
D29*
X21247Y131470D03*
D17*
X29337Y131470D03*
D48*
X34227Y131470D03*
D17*
X37516Y131470D03*
D21*
X42316Y131470D03*
D48*
X45784Y131470D03*
D21*
X50673Y131470D03*
D33*
X21336Y131648D03*
D14*
X29426Y131648D03*
X34404Y131648D03*
X37605Y131648D03*
X42405Y131648D03*
X45784Y131648D03*
X50762Y131648D03*
D29*
X21425Y131826D03*
D17*
X29515Y131826D03*
D48*
X34404Y131826D03*
D51*
X37605Y131826D03*
D48*
X42405Y131826D03*
D51*
X45784Y131826D03*
D21*
X50851Y131826D03*
D30*
X21425Y132004D03*
D14*
X29604Y132004D03*
D52*
X34493Y132004D03*
D15*
X37516Y132004D03*
D14*
X42583Y132004D03*
D15*
X45695Y132004D03*
D19*
X50851Y132004D03*
D32*
X21514Y132182D03*
D48*
X29604Y132182D03*
D102*
X36182Y132182D03*
D35*
X42850Y132182D03*
D201*
X45606Y132182D03*
D48*
X50940Y132182D03*
D29*
X21603Y132359D03*
D62*
X29693Y132359D03*
D106*
X36271Y132359D03*
X44450Y132359D03*
D21*
X51029Y132359D03*
D33*
X21692Y132537D03*
D14*
X29782Y132537D03*
D142*
X36360Y132537D03*
D136*
X44450Y132537D03*
D19*
X51029Y132537D03*
D29*
X21781Y132715D03*
D17*
X29870Y132715D03*
D106*
X36449Y132715D03*
D109*
X44539Y132715D03*
D48*
X51118Y132715D03*
D30*
X21781Y132893D03*
D53*
X29870Y132893D03*
D136*
X36449Y132893D03*
X44628Y132893D03*
D19*
X51206Y132893D03*
D29*
X21958Y133071D03*
D48*
X29959Y133071D03*
D102*
X36538Y133071D03*
D106*
X44628Y133071D03*
D48*
X51295Y133071D03*
D29*
X21958Y133248D03*
D62*
X30048Y133248D03*
D106*
X36627Y133248D03*
D109*
X44717Y133248D03*
D21*
X51384Y133248D03*
D30*
X21958Y133426D03*
D52*
X30048Y133426D03*
D142*
X36716Y133426D03*
D136*
X44806Y133426D03*
D19*
X51384Y133426D03*
D29*
X22136Y133604D03*
D48*
X30137Y133604D03*
D102*
X36716Y133604D03*
D106*
X44806Y133604D03*
D48*
X51473Y133604D03*
D30*
X22136Y133782D03*
D53*
X30226Y133782D03*
D103*
X36805Y133782D03*
D142*
X44895Y133782D03*
D19*
X51562Y133782D03*
D29*
X22314Y133960D03*
D48*
X30315Y133960D03*
D21*
X51562Y133960D03*
D29*
X22314Y134137D03*
D48*
X30315Y134137D03*
X51651Y134137D03*
D30*
X22314Y134315D03*
D53*
X30404Y134315D03*
D19*
X51740Y134315D03*
D29*
X22492Y134493D03*
D48*
X30493Y134493D03*
X51829Y134493D03*
D27*
X22581Y134671D03*
D14*
X30493Y134671D03*
X51829Y134671D03*
D29*
X22670Y134849D03*
D62*
X30582Y134849D03*
D21*
X51918Y134849D03*
D29*
X22670Y135026D03*
D48*
X30671Y135026D03*
X52007Y135026D03*
D30*
X22847Y135204D03*
D14*
X30671Y135204D03*
D19*
X52095Y135204D03*
D29*
X22847Y135382D03*
D48*
X30848Y135382D03*
D21*
X52095Y135382D03*
D27*
X22936Y135560D03*
D14*
X30848Y135560D03*
X52184Y135560D03*
D29*
X23025Y135738D03*
D48*
X30848Y135738D03*
D21*
X52273Y135738D03*
D25*
X23114Y135915D03*
D48*
X31026Y135915D03*
X52362Y135915D03*
D30*
X23203Y136093D03*
D14*
X31026Y136093D03*
X52362Y136093D03*
D25*
X23292Y136271D03*
D48*
X31204Y136271D03*
X52362Y136271D03*
D30*
X23381Y136449D03*
D53*
X31293Y136449D03*
X52451Y136449D03*
D25*
X23470Y136627D03*
D51*
X31382Y136627D03*
X52362Y136627D03*
D29*
X23559Y136804D03*
D202*
X41961Y136804D03*
D27*
X23647Y136982D03*
D203*
X42050Y136982D03*
D29*
X23736Y137160D03*
D204*
X42050Y137160D03*
D30*
X23736Y137338D03*
D205*
X42139Y137338D03*
D25*
X23825Y137516D03*
D204*
X42228Y137516D03*
D29*
X23914Y137693D03*
D202*
X42316Y137693D03*
D27*
X24003Y137871D03*
D205*
X42316Y137871D03*
D25*
X24181Y138049D03*
D206*
X42405Y138049D03*
D30*
X24270Y138227D03*
D191*
X42405Y138227D03*
D25*
X24359Y138405D03*
X24359Y138582D03*
D27*
X24536Y138760D03*
D25*
X24536Y138938D03*
D27*
X24714Y139116D03*
D25*
X24714Y139294D03*
X24892Y139471D03*
D30*
X24981Y139649D03*
D25*
X25070Y139827D03*
D30*
X25159Y140005D03*
D86*
X45339Y140005D03*
D25*
X25248Y140183D03*
D70*
X45250Y140183D03*
D25*
X25425Y140360D03*
D70*
X45250Y140360D03*
D27*
X25425Y140538D03*
D133*
X45250Y140538D03*
D25*
X25603Y140716D03*
D70*
X45072Y140716D03*
D27*
X25603Y140894D03*
D133*
X45072Y140894D03*
D25*
X25781Y141072D03*
D70*
X45072Y141072D03*
D29*
X25870Y141249D03*
D32*
X44983Y141249D03*
D27*
X25959Y141427D03*
D133*
X44895Y141427D03*
D25*
X26137Y141605D03*
D70*
X44895Y141605D03*
D30*
X26226Y141783D03*
D33*
X44806Y141783D03*
D25*
X26314Y141961D03*
D70*
X44717Y141961D03*
D25*
X26492Y142138D03*
D70*
X44717Y142138D03*
D27*
X26492Y142316D03*
D33*
X44628Y142316D03*
D25*
X26670Y142494D03*
D135*
X44539Y142494D03*
D30*
X26759Y142672D03*
D33*
X44450Y142672D03*
D25*
X26848Y142850D03*
D32*
X44450Y142850D03*
D25*
X27026Y143027D03*
D70*
X44361Y143027D03*
D30*
X27115Y143205D03*
D33*
X44272Y143205D03*
D25*
X27203Y143383D03*
D32*
X44272Y143383D03*
D27*
X27381Y143561D03*
D33*
X44094Y143561D03*
D25*
X27559Y143739D03*
D32*
X44094Y143739D03*
D25*
X27559Y143916D03*
D32*
X43917Y143916D03*
D27*
X27737Y144094D03*
D33*
X43917Y144094D03*
D25*
X27915Y144272D03*
D32*
X43917Y144272D03*
D27*
X27915Y144450D03*
D33*
X43739Y144450D03*
D25*
X28092Y144628D03*
D32*
X43739Y144628D03*
D25*
X28270Y144805D03*
D32*
X43561Y144805D03*
D27*
X28448Y144983D03*
D33*
X43561Y144983D03*
D24*
X28537Y145161D03*
D32*
X43383Y145161D03*
D27*
X28626Y145339D03*
D30*
X43294Y145339D03*
D25*
X28804Y145517D03*
D32*
X43205Y145517D03*
D25*
X28981Y145694D03*
D29*
X43117Y145694D03*
D27*
X29159Y145872D03*
D30*
X43117Y145872D03*
D25*
X29337Y146050D03*
D29*
X42939Y146050D03*
D27*
X29515Y146228D03*
D30*
X42761Y146228D03*
D25*
X29515Y146406D03*
D29*
X42761Y146406D03*
D25*
X29693Y146583D03*
D29*
X42583Y146583D03*
D27*
X29870Y146761D03*
D30*
X42405Y146761D03*
D25*
X30048Y146939D03*
D29*
X42405Y146939D03*
D27*
X30226Y147117D03*
D30*
X42228Y147117D03*
D25*
X30404Y147295D03*
D29*
X42050Y147295D03*
D25*
X30582Y147472D03*
X41961Y147472D03*
D31*
X30848Y147650D03*
D27*
X41783Y147650D03*
D26*
X31026Y147828D03*
D25*
X41605Y147828D03*
D27*
X31293Y148006D03*
X41427Y148006D03*
D25*
X31471Y148184D03*
X41250Y148184D03*
X31648Y148361D03*
D26*
X41161Y148361D03*
D23*
X31915Y148539D03*
D31*
X40983Y148539D03*
D25*
X32182Y148717D03*
D26*
X40805Y148717D03*
D27*
X32360Y148895D03*
D31*
X40627Y148895D03*
D24*
X32626Y149073D03*
D20*
X40361Y149073D03*
X32893Y149250D03*
D24*
X40094Y149250D03*
D18*
X33249Y149428D03*
X39827Y149428D03*
D20*
X33604Y149606D03*
D16*
X39561Y149606D03*
D54*
X34049Y149784D03*
X39205Y149784D03*
D21*
X34493Y149962D03*
D48*
X38672Y149962D03*
D109*
X36716Y150139D03*
D107*
X36716Y150317D03*
D34*
X36716Y150495D03*
D18*
X36805Y150673D03*
D207*
X314579Y135870D02*
X314579Y129515D01*
X314579Y135870D02*
X311401Y135870D01*
X310342Y134811D01*
X310342Y132692D01*
X311401Y131633D01*
X314579Y131633D01*
X312461Y131633D02*
X310342Y129515D01*
X307563Y129515D02*
X303326Y135870D01*
X300546Y129515D02*
X298428Y129515D01*
X299487Y129515D02*
X299487Y135870D01*
X300546Y135870D02*
X298428Y135870D01*
X295869Y129515D02*
X293750Y129515D01*
X294809Y129515D02*
X294809Y135870D01*
X293750Y135870D02*
X295869Y135870D01*
X303738Y114026D02*
X307975Y114026D01*
X307975Y110848D01*
X305857Y111908D01*
X304797Y111908D01*
X303738Y110848D01*
X303738Y108730D01*
X304797Y107671D01*
X306916Y107671D01*
X307975Y108730D01*
X300959Y111908D02*
X298840Y107671D01*
X296722Y111908D01*
X312547Y87864D02*
X312547Y82568D01*
X311488Y81509D01*
X309369Y81509D01*
X308310Y82568D01*
X308310Y87864D01*
X305531Y81509D02*
X301294Y87864D01*
X298514Y81509D02*
X296396Y81509D01*
X297455Y81509D02*
X297455Y87864D01*
X298514Y87864D02*
X296396Y87864D01*
X328295Y67544D02*
X328295Y61189D01*
X324058Y61189D01*
X321279Y61189D02*
X317042Y67544D01*
X314262Y67544D02*
X314262Y61189D01*
X314262Y67544D02*
X311085Y67544D01*
X310025Y66485D01*
X310025Y64366D01*
X311085Y63307D01*
X314262Y63307D01*
X312144Y63307D02*
X310025Y61189D01*
X307246Y62248D02*
X307246Y65426D01*
X307246Y62248D02*
X306187Y61189D01*
X303009Y61189D01*
X303009Y65426D01*
X300230Y65426D02*
X300230Y61189D01*
X300230Y65426D02*
X297052Y65426D01*
X295993Y64366D01*
X295993Y61189D01*
X252349Y108687D02*
X252349Y115042D01*
X252349Y108687D02*
X249171Y108687D01*
X248112Y109746D01*
X248112Y113983D01*
X249171Y115042D01*
X252349Y115042D01*
X245333Y108687D02*
X241096Y115042D01*
X235139Y115042D02*
X234079Y113983D01*
X235139Y115042D02*
X237257Y115042D01*
X238316Y113983D01*
X238316Y112924D01*
X237257Y111864D01*
X235139Y111864D01*
X234079Y110805D01*
X234079Y109746D01*
X235139Y108687D01*
X237257Y108687D01*
X238316Y109746D01*
X230241Y108687D02*
X228122Y108687D01*
X230241Y108687D02*
X231300Y109746D01*
X231300Y111864D01*
X230241Y112924D01*
X228122Y112924D01*
X227063Y111864D01*
X227063Y110805D01*
X231300Y110805D01*
X224284Y115042D02*
X223224Y115042D01*
X223224Y108687D01*
X222165Y108687D02*
X224284Y108687D01*
X248155Y67798D02*
X247096Y66739D01*
X248155Y67798D02*
X250274Y67798D01*
X251333Y66739D01*
X251333Y62502D01*
X250274Y61443D01*
X248155Y61443D01*
X247096Y62502D01*
X247096Y64620D01*
X249215Y64620D01*
X244317Y61443D02*
X244317Y67798D01*
X240080Y61443D01*
X240080Y67798D01*
X237300Y67798D02*
X237300Y61443D01*
X234123Y61443D01*
X233063Y62502D01*
X233063Y66739D01*
X234123Y67798D01*
X237300Y67798D01*
X252349Y129515D02*
X252349Y135870D01*
X252349Y129515D02*
X249171Y129515D01*
X248112Y130574D01*
X248112Y134811D01*
X249171Y135870D01*
X252349Y135870D01*
X242155Y135870D02*
X241096Y134811D01*
X242155Y135870D02*
X244273Y135870D01*
X245333Y134811D01*
X245333Y133752D01*
X244273Y132692D01*
X242155Y132692D01*
X241096Y131633D01*
X241096Y130574D01*
X242155Y129515D01*
X244273Y129515D01*
X245333Y130574D01*
X248917Y93198D02*
X251036Y93198D01*
X252095Y92139D01*
X252095Y87902D01*
X251036Y86843D01*
X248917Y86843D01*
X247858Y87902D01*
X247858Y92139D01*
X248917Y93198D01*
X245079Y93198D02*
X240842Y93198D01*
X245079Y93198D02*
X245079Y86843D01*
X240842Y86843D01*
X242960Y90020D02*
X245079Y90020D01*
M02*
