G04 EAGLE Gerber RS-274X export*
G75*
%MOMM*%
%FSLAX34Y34*%
%LPD*%
%INSilkscreen Top*%
%IPPOS*%
%AMOC8*
5,1,8,0,0,1.08239X$1,22.5*%
G01*
%ADD10C,0.127000*%
%ADD11C,0.101600*%
%ADD12R,0.950000X0.500100*%
%ADD13C,0.076200*%
%ADD14C,0.050000*%
%ADD15C,0.100000*%
%ADD16C,0.200000*%
%ADD17C,0.100000*%
%ADD18C,0.152400*%
%ADD19R,0.300000X0.599900*%
%ADD20R,0.599900X0.300000*%


D10*
X-147700Y165156D02*
X-147700Y45156D01*
X59800Y45156D01*
X59800Y165156D01*
X-147700Y165156D01*
X-147700Y45156D01*
X-600Y45156D01*
X41800Y45156D01*
X41800Y165156D01*
X-147700Y165156D01*
X-600Y165156D02*
X-600Y45156D01*
X-600Y165156D02*
X-148600Y165156D01*
X-148600Y45156D01*
X-600Y45156D01*
D11*
X63598Y74562D02*
X67496Y70664D01*
X63598Y74562D02*
X75292Y74562D01*
X75292Y70664D02*
X75292Y78460D01*
X75292Y62613D02*
X73343Y60664D01*
X75292Y62613D02*
X75292Y66511D01*
X73343Y68460D01*
X65547Y68460D01*
X63598Y66511D01*
X63598Y62613D01*
X65547Y60664D01*
X67496Y60664D01*
X69445Y62613D01*
X69445Y68460D01*
X75292Y136511D02*
X63598Y136511D01*
X69445Y130664D01*
X69445Y138460D01*
X63598Y140664D02*
X63598Y148460D01*
X63598Y140664D02*
X69445Y140664D01*
X67496Y144562D01*
X67496Y146511D01*
X69445Y148460D01*
X73343Y148460D01*
X75292Y146511D01*
X75292Y142613D01*
X73343Y140664D01*
X75292Y98460D02*
X75292Y90664D01*
X67496Y98460D01*
X65547Y98460D01*
X63598Y96511D01*
X63598Y92613D01*
X65547Y90664D01*
X65547Y110664D02*
X63598Y112613D01*
X63598Y116511D01*
X65547Y118460D01*
X67496Y118460D01*
X69445Y116511D01*
X69445Y114562D01*
X69445Y116511D02*
X71394Y118460D01*
X73343Y118460D01*
X75292Y116511D01*
X75292Y112613D01*
X73343Y110664D01*
X65547Y124562D02*
X63598Y128460D01*
X65547Y124562D02*
X69445Y120664D01*
X73343Y120664D01*
X75292Y122613D01*
X75292Y126511D01*
X73343Y128460D01*
X71394Y128460D01*
X69445Y126511D01*
X69445Y120664D01*
X63598Y108460D02*
X63598Y100664D01*
X63598Y108460D02*
X65547Y108460D01*
X73343Y100664D01*
X75292Y100664D01*
X63598Y82613D02*
X65547Y80664D01*
X63598Y82613D02*
X63598Y86511D01*
X65547Y88460D01*
X67496Y88460D01*
X69445Y86511D01*
X71394Y88460D01*
X73343Y88460D01*
X75292Y86511D01*
X75292Y82613D01*
X73343Y80664D01*
X71394Y80664D01*
X69445Y82613D01*
X67496Y80664D01*
X65547Y80664D01*
X69445Y82613D02*
X69445Y86511D01*
X23072Y117244D02*
X11378Y117244D01*
X19174Y117244D02*
X11378Y125040D01*
X17225Y119193D02*
X23072Y125040D01*
X23072Y128938D02*
X23072Y136734D01*
X23072Y128938D02*
X15276Y136734D01*
X13327Y136734D01*
X11378Y134785D01*
X11378Y130887D01*
X13327Y128938D01*
D10*
X371512Y173840D02*
X371512Y33840D01*
X241512Y33840D01*
X241512Y173840D01*
X371512Y173840D01*
X371512Y33840D01*
X241512Y33840D02*
X241512Y173840D01*
X332512Y173840D02*
X371512Y173840D01*
X371512Y33840D02*
X332512Y33840D01*
X300512Y173840D02*
X241512Y173840D01*
X241512Y33840D02*
X300512Y33840D01*
D11*
X360634Y96508D02*
X362587Y98461D01*
X362587Y100413D01*
X360634Y102366D01*
X350871Y102366D01*
X350871Y100413D02*
X350871Y104319D01*
X354776Y108222D02*
X350871Y112128D01*
X362587Y112128D01*
X362587Y116033D02*
X362587Y108222D01*
X53850Y23626D02*
X53850Y16506D01*
X45340Y16506D02*
X45340Y23626D01*
D12*
X49581Y25948D03*
X49581Y14264D03*
D13*
X32083Y16744D02*
X30855Y15515D01*
X30855Y13057D01*
X32083Y11829D01*
X36998Y11829D01*
X38227Y13057D01*
X38227Y15515D01*
X36998Y16744D01*
X33312Y19313D02*
X30855Y21770D01*
X38227Y21770D01*
X38227Y19313D02*
X38227Y24228D01*
D11*
X113540Y23626D02*
X113540Y16506D01*
X105030Y16506D02*
X105030Y23626D01*
D12*
X109271Y25948D03*
X109271Y14264D03*
D13*
X115945Y15515D02*
X117173Y16744D01*
X115945Y15515D02*
X115945Y13057D01*
X117173Y11829D01*
X122088Y11829D01*
X123317Y13057D01*
X123317Y15515D01*
X122088Y16744D01*
X123317Y19313D02*
X123317Y24228D01*
X123317Y19313D02*
X118402Y24228D01*
X117173Y24228D01*
X115945Y22999D01*
X115945Y20542D01*
X117173Y19313D01*
D14*
X99260Y6380D02*
X60760Y6380D01*
X60760Y41880D01*
X99260Y41880D01*
X99260Y6380D01*
D15*
X86410Y9830D02*
X73610Y9830D01*
X73610Y38430D01*
X86410Y38430D01*
X86410Y9830D01*
X86410Y19330D02*
X76910Y9830D01*
D16*
X79260Y9830D02*
X80760Y9830D01*
X79260Y9830D02*
X79260Y38430D01*
X80760Y38430D01*
X80760Y9830D01*
X84260Y8880D02*
X96760Y8880D01*
D13*
X70993Y27232D02*
X70993Y29690D01*
X70993Y28461D02*
X63621Y28461D01*
X63621Y27232D02*
X63621Y29690D01*
X63621Y35908D02*
X64849Y37136D01*
X63621Y35908D02*
X63621Y33450D01*
X64849Y32222D01*
X69764Y32222D01*
X70993Y33450D01*
X70993Y35908D01*
X69764Y37136D01*
X66078Y39706D02*
X63621Y42163D01*
X70993Y42163D01*
X70993Y39706D02*
X70993Y44621D01*
D14*
X141156Y52540D02*
X196156Y52540D01*
X196156Y16040D01*
X141156Y16040D01*
X141156Y52540D01*
D15*
X154656Y49040D02*
X182656Y49040D01*
X182656Y19540D01*
X154656Y19540D01*
X154656Y49040D01*
X154656Y42540D02*
X161156Y49040D01*
D16*
X158156Y49040D02*
X179156Y49040D01*
X179156Y19540D01*
X158156Y19540D01*
X158156Y49040D01*
X154656Y49790D02*
X143656Y49790D01*
D13*
X160328Y39497D02*
X162786Y39497D01*
X161557Y39497D02*
X161557Y46869D01*
X160328Y46869D02*
X162786Y46869D01*
X169004Y46869D02*
X170232Y45641D01*
X169004Y46869D02*
X166546Y46869D01*
X165318Y45641D01*
X165318Y40726D01*
X166546Y39497D01*
X169004Y39497D01*
X170232Y40726D01*
X176488Y39497D02*
X176488Y46869D01*
X172802Y43183D01*
X177717Y43183D01*
D16*
X124332Y88140D02*
X124332Y120140D01*
X124332Y88140D02*
X108332Y88140D01*
X108332Y120140D01*
X124332Y120140D01*
D15*
X134332Y125140D02*
X134332Y83140D01*
X96332Y83140D01*
X96332Y125140D01*
X134332Y125140D01*
X124332Y120140D02*
X107832Y120140D01*
X108332Y88140D02*
X124832Y88140D01*
D17*
X101832Y116640D03*
D15*
X101876Y116638D01*
X101919Y116632D01*
X101961Y116623D01*
X102003Y116610D01*
X102043Y116593D01*
X102082Y116573D01*
X102119Y116550D01*
X102153Y116523D01*
X102186Y116494D01*
X102215Y116461D01*
X102242Y116427D01*
X102265Y116390D01*
X102285Y116351D01*
X102302Y116311D01*
X102315Y116269D01*
X102324Y116227D01*
X102330Y116184D01*
X102332Y116140D01*
X102330Y116096D01*
X102324Y116053D01*
X102315Y116011D01*
X102302Y115969D01*
X102285Y115929D01*
X102265Y115890D01*
X102242Y115853D01*
X102215Y115819D01*
X102186Y115786D01*
X102153Y115757D01*
X102119Y115730D01*
X102082Y115707D01*
X102043Y115687D01*
X102003Y115670D01*
X101961Y115657D01*
X101919Y115648D01*
X101876Y115642D01*
X101832Y115640D01*
D17*
X101832Y115640D03*
D15*
X101788Y115642D01*
X101745Y115648D01*
X101703Y115657D01*
X101661Y115670D01*
X101621Y115687D01*
X101582Y115707D01*
X101545Y115730D01*
X101511Y115757D01*
X101478Y115786D01*
X101449Y115819D01*
X101422Y115853D01*
X101399Y115890D01*
X101379Y115929D01*
X101362Y115969D01*
X101349Y116011D01*
X101340Y116053D01*
X101334Y116096D01*
X101332Y116140D01*
X101334Y116184D01*
X101340Y116227D01*
X101349Y116269D01*
X101362Y116311D01*
X101379Y116351D01*
X101399Y116390D01*
X101422Y116427D01*
X101449Y116461D01*
X101478Y116494D01*
X101511Y116523D01*
X101545Y116550D01*
X101582Y116573D01*
X101621Y116593D01*
X101661Y116610D01*
X101703Y116623D01*
X101745Y116632D01*
X101788Y116638D01*
X101832Y116640D01*
D13*
X112659Y78563D02*
X120031Y78563D01*
X112659Y78563D02*
X112659Y82249D01*
X113887Y83478D01*
X116345Y83478D01*
X117574Y82249D01*
X117574Y78563D01*
X117574Y81020D02*
X120031Y83478D01*
X120031Y86047D02*
X112659Y86047D01*
X120031Y90962D01*
X112659Y90962D01*
X120031Y93531D02*
X120031Y98446D01*
X120031Y93531D02*
X115116Y98446D01*
X113887Y98446D01*
X112659Y97217D01*
X112659Y94760D01*
X113887Y93531D01*
D16*
X201678Y193166D02*
X233678Y193166D01*
X233678Y177166D01*
X201678Y177166D01*
X201678Y193166D01*
D15*
X196678Y203166D02*
X238678Y203166D01*
X238678Y165166D01*
X196678Y165166D01*
X196678Y203166D01*
X201678Y193166D02*
X201678Y176666D01*
X233678Y177166D02*
X233678Y193666D01*
D17*
X205178Y170666D03*
D15*
X205180Y170710D01*
X205186Y170753D01*
X205195Y170795D01*
X205208Y170837D01*
X205225Y170877D01*
X205245Y170916D01*
X205268Y170953D01*
X205295Y170987D01*
X205324Y171020D01*
X205357Y171049D01*
X205391Y171076D01*
X205428Y171099D01*
X205467Y171119D01*
X205507Y171136D01*
X205549Y171149D01*
X205591Y171158D01*
X205634Y171164D01*
X205678Y171166D01*
X205722Y171164D01*
X205765Y171158D01*
X205807Y171149D01*
X205849Y171136D01*
X205889Y171119D01*
X205928Y171099D01*
X205965Y171076D01*
X205999Y171049D01*
X206032Y171020D01*
X206061Y170987D01*
X206088Y170953D01*
X206111Y170916D01*
X206131Y170877D01*
X206148Y170837D01*
X206161Y170795D01*
X206170Y170753D01*
X206176Y170710D01*
X206178Y170666D01*
D17*
X206178Y170666D03*
D15*
X206176Y170622D01*
X206170Y170579D01*
X206161Y170537D01*
X206148Y170495D01*
X206131Y170455D01*
X206111Y170416D01*
X206088Y170379D01*
X206061Y170345D01*
X206032Y170312D01*
X205999Y170283D01*
X205965Y170256D01*
X205928Y170233D01*
X205889Y170213D01*
X205849Y170196D01*
X205807Y170183D01*
X205765Y170174D01*
X205722Y170168D01*
X205678Y170166D01*
X205634Y170168D01*
X205591Y170174D01*
X205549Y170183D01*
X205507Y170196D01*
X205467Y170213D01*
X205428Y170233D01*
X205391Y170256D01*
X205357Y170283D01*
X205324Y170312D01*
X205295Y170345D01*
X205268Y170379D01*
X205245Y170416D01*
X205225Y170455D01*
X205208Y170495D01*
X205195Y170537D01*
X205186Y170579D01*
X205180Y170622D01*
X205178Y170666D01*
D13*
X197943Y181753D02*
X197943Y189125D01*
X201629Y189125D01*
X202858Y187897D01*
X202858Y185439D01*
X201629Y184210D01*
X197943Y184210D01*
X200400Y184210D02*
X202858Y181753D01*
X205427Y181753D02*
X205427Y189125D01*
X210342Y181753D01*
X210342Y189125D01*
X212911Y186668D02*
X215369Y189125D01*
X215369Y181753D01*
X217826Y181753D02*
X212911Y181753D01*
D18*
X152818Y57704D02*
X147918Y57704D01*
X147918Y62184D02*
X152818Y62184D01*
D19*
X154408Y59993D03*
X146280Y59993D03*
D13*
X152126Y71803D02*
X150897Y73031D01*
X148439Y73031D01*
X147211Y71803D01*
X147211Y66888D01*
X148439Y65659D01*
X150897Y65659D01*
X152126Y66888D01*
X154695Y73031D02*
X159610Y73031D01*
X154695Y73031D02*
X154695Y69345D01*
X157152Y70574D01*
X158381Y70574D01*
X159610Y69345D01*
X159610Y66888D01*
X158381Y65659D01*
X155924Y65659D01*
X154695Y66888D01*
D18*
X183732Y62184D02*
X188632Y62184D01*
X188632Y57704D02*
X183732Y57704D01*
D19*
X182142Y59896D03*
X190270Y59896D03*
D13*
X181318Y72819D02*
X180089Y74047D01*
X177632Y74047D01*
X176403Y72819D01*
X176403Y67904D01*
X177632Y66675D01*
X180089Y66675D01*
X181318Y67904D01*
X186345Y72819D02*
X188802Y74047D01*
X186345Y72819D02*
X183887Y70361D01*
X183887Y67904D01*
X185116Y66675D01*
X187573Y66675D01*
X188802Y67904D01*
X188802Y69132D01*
X187573Y70361D01*
X183887Y70361D01*
D18*
X116286Y62648D02*
X116286Y57748D01*
X111806Y57748D02*
X111806Y62648D01*
D20*
X113998Y64238D03*
X113998Y56110D03*
D13*
X120517Y45865D02*
X127889Y45865D01*
X120517Y45865D02*
X120517Y49551D01*
X121745Y50780D01*
X124203Y50780D01*
X125432Y49551D01*
X125432Y45865D01*
X125432Y48322D02*
X127889Y50780D01*
X122974Y53349D02*
X120517Y55806D01*
X127889Y55806D01*
X127889Y53349D02*
X127889Y58264D01*
D18*
X99522Y57494D02*
X99522Y62394D01*
X95042Y62394D02*
X95042Y57494D01*
D20*
X97234Y63984D03*
X97234Y55856D03*
D13*
X91313Y46373D02*
X83941Y46373D01*
X83941Y50059D01*
X85169Y51288D01*
X87627Y51288D01*
X88856Y50059D01*
X88856Y46373D01*
X88856Y48830D02*
X91313Y51288D01*
X91313Y53857D02*
X91313Y58772D01*
X91313Y53857D02*
X86398Y58772D01*
X85169Y58772D01*
X83941Y57543D01*
X83941Y55086D01*
X85169Y53857D01*
D18*
X133440Y185120D02*
X138340Y185120D01*
X138340Y180640D02*
X133440Y180640D01*
D19*
X131850Y182832D03*
X139978Y182832D03*
D13*
X129756Y194485D02*
X128527Y195713D01*
X126070Y195713D01*
X124841Y194485D01*
X124841Y189570D01*
X126070Y188341D01*
X128527Y188341D01*
X129756Y189570D01*
X132325Y194485D02*
X133554Y195713D01*
X136011Y195713D01*
X137240Y194485D01*
X137240Y193256D01*
X136011Y192027D01*
X134783Y192027D01*
X136011Y192027D02*
X137240Y190798D01*
X137240Y189570D01*
X136011Y188341D01*
X133554Y188341D01*
X132325Y189570D01*
D18*
X175350Y179370D02*
X180250Y179370D01*
X180250Y183850D02*
X175350Y183850D01*
D19*
X181840Y181659D03*
X173712Y181659D03*
D13*
X171938Y193977D02*
X170709Y195205D01*
X168251Y195205D01*
X167023Y193977D01*
X167023Y189062D01*
X168251Y187833D01*
X170709Y187833D01*
X171938Y189062D01*
X178193Y187833D02*
X178193Y195205D01*
X174507Y191519D01*
X179422Y191519D01*
D14*
X196410Y112230D02*
X141410Y112230D01*
X196410Y112230D02*
X196410Y75730D01*
X141410Y75730D01*
X141410Y112230D01*
D15*
X154910Y108730D02*
X182910Y108730D01*
X182910Y79230D01*
X154910Y79230D01*
X154910Y108730D01*
X154910Y102230D02*
X161410Y108730D01*
D16*
X158410Y108730D02*
X179410Y108730D01*
X179410Y79230D01*
X158410Y79230D01*
X158410Y108730D01*
X154910Y109480D02*
X143910Y109480D01*
D13*
X159312Y99187D02*
X161770Y99187D01*
X160541Y99187D02*
X160541Y106559D01*
X159312Y106559D02*
X161770Y106559D01*
X167988Y106559D02*
X169216Y105331D01*
X167988Y106559D02*
X165530Y106559D01*
X164302Y105331D01*
X164302Y100416D01*
X165530Y99187D01*
X167988Y99187D01*
X169216Y100416D01*
X171786Y99187D02*
X176701Y99187D01*
X171786Y99187D02*
X176701Y104102D01*
X176701Y105331D01*
X175472Y106559D01*
X173014Y106559D01*
X171786Y105331D01*
D18*
X182970Y121620D02*
X187870Y121620D01*
X187870Y117140D02*
X182970Y117140D01*
D19*
X181380Y119332D03*
X189508Y119332D03*
D13*
X181826Y132255D02*
X180597Y133483D01*
X178140Y133483D01*
X176911Y132255D01*
X176911Y127340D01*
X178140Y126111D01*
X180597Y126111D01*
X181826Y127340D01*
X184395Y133483D02*
X189310Y133483D01*
X189310Y132255D01*
X184395Y127340D01*
X184395Y126111D01*
D18*
X153580Y117140D02*
X148680Y117140D01*
X148680Y121620D02*
X153580Y121620D01*
D19*
X155170Y119429D03*
X147042Y119429D03*
D13*
X151618Y131747D02*
X150389Y132975D01*
X147931Y132975D01*
X146703Y131747D01*
X146703Y126832D01*
X147931Y125603D01*
X150389Y125603D01*
X151618Y126832D01*
X154187Y131747D02*
X155416Y132975D01*
X157873Y132975D01*
X159102Y131747D01*
X159102Y130518D01*
X157873Y129289D01*
X159102Y128060D01*
X159102Y126832D01*
X157873Y125603D01*
X155416Y125603D01*
X154187Y126832D01*
X154187Y128060D01*
X155416Y129289D01*
X154187Y130518D01*
X154187Y131747D01*
X155416Y129289D02*
X157873Y129289D01*
D14*
X140140Y171920D02*
X195140Y171920D01*
X195140Y135420D01*
X140140Y135420D01*
X140140Y171920D01*
D15*
X153640Y168420D02*
X181640Y168420D01*
X181640Y138920D01*
X153640Y138920D01*
X153640Y168420D01*
X153640Y161920D02*
X160140Y168420D01*
D16*
X157140Y168420D02*
X178140Y168420D01*
X178140Y138920D01*
X157140Y138920D01*
X157140Y168420D01*
X153640Y169170D02*
X142640Y169170D01*
D13*
X158042Y157607D02*
X160500Y157607D01*
X159271Y157607D02*
X159271Y164979D01*
X158042Y164979D02*
X160500Y164979D01*
X166718Y164979D02*
X167946Y163751D01*
X166718Y164979D02*
X164260Y164979D01*
X163032Y163751D01*
X163032Y158836D01*
X164260Y157607D01*
X166718Y157607D01*
X167946Y158836D01*
X170516Y163751D02*
X171744Y164979D01*
X174202Y164979D01*
X175431Y163751D01*
X175431Y162522D01*
X174202Y161293D01*
X172973Y161293D01*
X174202Y161293D02*
X175431Y160064D01*
X175431Y158836D01*
X174202Y157607D01*
X171744Y157607D01*
X170516Y158836D01*
M02*
