G04 EAGLE Gerber RS-274X export*
G75*
%MOMM*%
%FSLAX34Y34*%
%LPD*%
%INSoldermask Top*%
%IPPOS*%
%AMOC8*
5,1,8,0,0,1.08239X$1,22.5*%
G01*
%ADD10C,1.280159*%
%ADD11C,1.432559*%
%ADD12C,1.803400*%
%ADD13R,1.927000X0.827000*%
%ADD14R,1.477000X1.477000*%
%ADD15C,1.477000*%
%ADD16C,1.627000*%
%ADD17R,1.127000X1.227000*%
%ADD18R,1.377000X0.777000*%
%ADD19R,1.227000X0.577000*%
%ADD20R,1.027000X0.577000*%
%ADD21R,0.577000X1.027000*%
%ADD22R,0.827000X1.027000*%
%ADD23R,1.027000X0.827000*%


D10*
X19050Y194310D03*
X351790Y194310D03*
X351790Y13970D03*
D11*
X19050Y194310D03*
X351790Y194310D03*
X351790Y13970D03*
X19050Y194310D03*
X351790Y194310D03*
X351790Y13970D03*
D12*
X34682Y163656D02*
X17918Y163656D01*
X17918Y46656D02*
X34682Y46656D01*
D13*
X50800Y105156D03*
X50800Y95156D03*
X50800Y85156D03*
X50800Y115156D03*
X50800Y125156D03*
X50800Y135156D03*
X50800Y75156D03*
X50800Y145156D03*
X50800Y65156D03*
D14*
X286512Y116840D03*
D15*
X286512Y90840D03*
X286512Y69840D03*
X261512Y116840D03*
X286512Y137840D03*
X261512Y69840D03*
X261512Y94840D03*
X261512Y137840D03*
D16*
X309012Y171340D02*
X324012Y171340D01*
X324012Y36340D02*
X309012Y36340D01*
X324512Y96340D02*
X324512Y111340D01*
D17*
X49530Y28566D03*
X49530Y11566D03*
X109220Y28566D03*
X109220Y11566D03*
D18*
X90510Y14630D03*
X90510Y33630D03*
X69510Y24130D03*
D19*
X149156Y44040D03*
X149156Y37540D03*
X149156Y31040D03*
X149156Y24540D03*
X188156Y24540D03*
X188156Y31040D03*
X188156Y37540D03*
X188156Y44040D03*
D20*
X107832Y116140D03*
X107832Y108140D03*
X107832Y100140D03*
X107832Y92140D03*
X124832Y92140D03*
X124832Y100140D03*
X124832Y108140D03*
X124832Y116140D03*
D21*
X205678Y176666D03*
X213678Y176666D03*
X221678Y176666D03*
X229678Y176666D03*
X229678Y193666D03*
X221678Y193666D03*
X213678Y193666D03*
X205678Y193666D03*
D22*
X156868Y59944D03*
X143868Y59944D03*
X179682Y59944D03*
X192682Y59944D03*
D23*
X114046Y66698D03*
X114046Y53698D03*
X97282Y66444D03*
X97282Y53444D03*
D22*
X129390Y182880D03*
X142390Y182880D03*
X184300Y181610D03*
X171300Y181610D03*
D19*
X149410Y103730D03*
X149410Y97230D03*
X149410Y90730D03*
X149410Y84230D03*
X188410Y84230D03*
X188410Y90730D03*
X188410Y97230D03*
X188410Y103730D03*
D22*
X178920Y119380D03*
X191920Y119380D03*
X157630Y119380D03*
X144630Y119380D03*
D19*
X148140Y163420D03*
X148140Y156920D03*
X148140Y150420D03*
X148140Y143920D03*
X187140Y143920D03*
X187140Y150420D03*
X187140Y156920D03*
X187140Y163420D03*
M02*
